<svg width="20" height="20" viewBox="0 0 20 20" fill="none" xmlns="http://www.w3.org/2000/svg">
<path fill-rule="evenodd" clip-rule="evenodd" d="M9.99996 7.18188L9.48595 8.57085C9.48595 8.57086 9.48595 8.57084 9.48595 8.57085C9.32906 8.99483 8.99485 9.32905 8.57087 9.48594C8.57086 9.48594 8.57088 9.48594 8.57087 9.48594L7.18188 9.99996L8.57085 10.514C8.57084 10.514 8.57086 10.514 8.57085 10.514C8.99483 10.6709 9.32906 11.0051 9.48594 11.429C9.48594 11.429 9.48595 11.4291 9.48594 11.429L9.99996 12.8181L10.514 11.4291C10.514 11.4291 10.514 11.4291 10.514 11.4291C10.6709 11.0051 11.0051 10.6709 11.429 10.514C11.429 10.514 11.4291 10.514 11.429 10.514L12.8181 9.99996L11.4291 9.48595C11.4291 9.48595 11.4291 9.48595 11.4291 9.48595C11.0051 9.32907 10.6709 8.99485 10.514 8.57087C10.514 8.57086 10.514 8.57088 10.514 8.57087L9.99996 7.18188ZM11.0193 6.33465C10.6692 5.38839 9.33074 5.38839 8.98064 6.33465C8.98063 6.33468 8.98065 6.33462 8.98064 6.33465L8.31364 8.13704C8.28336 8.21888 8.2189 8.28335 8.13707 8.31363L6.33474 8.98061C6.33471 8.98062 6.33477 8.9806 6.33474 8.98061C5.38848 9.33071 5.38839 10.6692 6.33465 11.0193C6.33462 11.0193 6.33468 11.0193 6.33465 11.0193L8.13704 11.6863C8.21888 11.7166 8.28335 11.781 8.31363 11.8628L8.98062 13.6652C8.98061 13.6652 8.98062 13.6652 8.98062 13.6652C9.33072 14.6114 10.6692 14.6115 11.0193 13.6653C11.0193 13.6653 11.0193 13.6653 11.0193 13.6653L11.6863 11.8629C11.7166 11.781 11.781 11.7166 11.8628 11.6863L13.6652 11.0193C13.6652 11.0193 13.6652 11.0193 13.6652 11.0193C14.6114 10.6692 14.6115 9.33074 13.6653 8.98064C13.6653 8.98063 13.6653 8.98065 13.6653 8.98064L11.8629 8.31364C11.781 8.28336 11.7166 8.2189 11.6863 8.13707L11.0193 6.33465C11.0193 6.33468 11.0193 6.33462 11.0193 6.33465Z" fill="#2196F3"/>
<path fill-rule="evenodd" clip-rule="evenodd" d="M7.29163 1.66663C7.29163 1.32145 7.0118 1.04163 6.66663 1.04163C6.32145 1.04163 6.04163 1.32145 6.04163 1.66663V2.86813C5.16398 3.0109 4.44435 3.29097 3.86766 3.86766C3.29097 4.44436 3.01089 5.16398 2.86813 6.04163H1.66663C1.32145 6.04163 1.04163 6.32145 1.04163 6.66663C1.04163 7.0118 1.32145 7.29163 1.66663 7.29163H2.74643C2.71565 7.90121 2.70971 8.59279 2.70856 9.37496H1.66663C1.32145 9.37496 1.04163 9.65478 1.04163 9.99996C1.04163 10.3451 1.32145 10.625 1.66663 10.625H2.70856C2.70971 11.4071 2.71565 12.0987 2.74643 12.7083H1.66663C1.32145 12.7083 1.04163 12.9881 1.04163 13.3333C1.04163 13.6785 1.32145 13.9583 1.66663 13.9583H2.86813C3.01089 14.8359 3.29096 15.5556 3.86766 16.1322C4.44435 16.7089 5.16398 16.989 6.04163 17.1318V18.3333C6.04163 18.6785 6.32145 18.9583 6.66663 18.9583C7.0118 18.9583 7.29163 18.6785 7.29163 18.3333V17.2535C7.90121 17.2843 8.59279 17.2902 9.37496 17.2914V18.3333C9.37496 18.6785 9.65478 18.9583 9.99996 18.9583C10.3451 18.9583 10.625 18.6785 10.625 18.3333V17.2914C11.4071 17.2902 12.0987 17.2843 12.7083 17.2535V18.3333C12.7083 18.6785 12.9881 18.9583 13.3333 18.9583C13.6785 18.9583 13.9583 18.6785 13.9583 18.3333V17.1318C14.8359 16.989 15.5556 16.7089 16.1323 16.1322C16.7089 15.5556 16.989 14.8359 17.1318 13.9583H18.3333C18.6785 13.9583 18.9583 13.6785 18.9583 13.3333C18.9583 12.9881 18.6785 12.7083 18.3333 12.7083H17.2535C17.2843 12.0987 17.2902 11.4071 17.2914 10.625H18.3333C18.6785 10.625 18.9583 10.3451 18.9583 9.99996C18.9583 9.65478 18.6785 9.37496 18.3333 9.37496H17.2914C17.2902 8.59279 17.2843 7.90121 17.2535 7.29163H18.3333C18.6785 7.29163 18.9583 7.0118 18.9583 6.66663C18.9583 6.32145 18.6785 6.04163 18.3333 6.04163H17.1318C16.989 5.16398 16.7089 4.44435 16.1322 3.86766C15.5556 3.29096 14.8359 3.01089 13.9583 2.86813V1.66663C13.9583 1.32145 13.6785 1.04163 13.3333 1.04163C12.9881 1.04163 12.7083 1.32145 12.7083 1.66663V2.74643C12.0987 2.71565 11.4071 2.70971 10.625 2.70856V1.66663C10.625 1.32145 10.3451 1.04163 9.99996 1.04163C9.65478 1.04163 9.37496 1.32145 9.37496 1.66663V2.70856C8.59279 2.70971 7.90121 2.71565 7.29163 2.74643V1.66663ZM4.75155 4.75154C5.10422 4.39887 5.58726 4.18748 6.42567 4.07476C7.16742 3.97503 8.11361 3.96069 9.38615 3.95863C9.58281 3.95832 9.78726 3.95829 9.99996 3.95829C10.1821 3.95829 10.3581 3.95831 10.5284 3.95851C11.8441 3.96009 12.816 3.97282 13.5743 4.07476C14.4127 4.18748 14.8957 4.39889 15.2484 4.75155C15.601 5.10423 15.8124 5.58726 15.9252 6.42567C16.0403 7.28205 16.0416 8.41094 16.0416 9.99996C16.0416 11.589 16.0403 12.7179 15.9252 13.5743C15.8487 14.1427 15.7269 14.5478 15.5465 14.8597C15.4608 15.0078 15.3619 15.1348 15.2483 15.2484C14.8957 15.601 14.4127 15.8124 13.5743 15.9252C12.7179 16.0403 11.589 16.0416 9.99996 16.0416C8.41094 16.0416 7.28205 16.0403 6.42567 15.9252C5.58726 15.8124 5.10421 15.601 4.75153 15.2483C4.63579 15.1326 4.53526 15.0028 4.44844 14.851C4.27074 14.5404 4.15048 14.1375 4.07476 13.5743C3.95962 12.7179 3.95829 11.589 3.95829 9.99996C3.95829 8.41094 3.95962 7.28205 4.07476 6.42567C4.18748 5.58726 4.39887 5.10422 4.75155 4.75154Z" fill="#2196F3"/>
</svg>
