<svg width="32" height="32" viewBox="0 0 32 32" fill="none" xmlns="http://www.w3.org/2000/svg">
<path fill-rule="evenodd" clip-rule="evenodd" d="M14.2445 17.6437C14.2413 17.6409 14.2381 17.6382 14.2348 17.6355C14.1181 17.5388 13.9595 17.4841 13.3441 17.3131C13.1664 17.2638 12.9881 17.2152 12.8096 17.1666C11.9873 16.9427 11.1603 16.7174 10.3685 16.4065C10.0163 16.2683 9.70881 16.1192 9.46676 15.9425C9.22121 15.7632 9.01506 15.5348 8.91793 15.2332C8.83644 14.9802 8.81267 14.7123 8.85139 14.4502C8.89885 14.1289 9.07629 13.8757 9.30181 13.6756C9.52125 13.4809 9.80969 13.3148 10.1385 13.1603C10.7877 12.8551 11.7253 12.5364 12.9184 12.131L15.1523 11.372C16.5762 10.8881 17.7184 10.5 18.6173 10.3064C19.508 10.1145 20.3004 10.0789 20.9294 10.4675C20.9377 10.4726 20.9458 10.478 20.9537 10.4835C21.0638 10.5541 21.1677 10.6376 21.2651 10.7349C21.8732 11.3431 21.9179 12.1731 21.7455 13.1205C21.5745 14.0599 21.1581 15.2817 20.6284 16.8354L19.8626 19.0817C19.4558 20.2749 19.1361 21.2128 18.8299 21.8621C18.6748 22.1909 18.5082 22.4793 18.3128 22.6988C18.1121 22.9243 17.8584 23.1012 17.5371 23.1486C17.2747 23.1872 17.0063 23.1636 16.7529 23.0822C16.451 22.9853 16.2221 22.7795 16.0422 22.5338C15.8649 22.2918 15.7153 21.9842 15.5766 21.632C15.2647 20.8403 15.0388 20.0132 14.8141 19.191C14.7653 19.0124 14.7165 18.834 14.667 18.6563C14.4955 18.041 14.4406 17.8824 14.3437 17.7658C14.3106 17.726 14.2739 17.6893 14.2341 17.6562L14.2445 17.6437ZM15.4421 12.3296C16.9047 11.8326 17.9924 11.4639 18.8279 11.284C19.6251 11.1122 20.0701 11.1428 20.3499 11.2877C20.2773 11.2501 20.1934 11.2202 20.0952 11.1995C20.2946 11.2415 20.4389 11.323 20.558 11.442C20.8057 11.6898 20.9178 12.0835 20.7616 12.9415C20.6057 13.7985 20.2148 14.9495 19.6667 16.5574L18.9277 18.7248C18.57 19.7744 18.298 20.5702 18.0531 21.1489C18.0098 21.2512 17.9674 21.3466 17.9255 21.4355C17.7864 21.7304 17.668 21.9192 17.566 22.0338C17.4694 22.1423 17.4134 22.156 17.3913 22.1592C17.2846 22.175 17.1705 22.166 17.0586 22.13C17.0207 22.1179 16.9499 22.0808 16.8489 21.9429C16.7453 21.8015 16.6328 21.5849 16.507 21.2655C16.1263 20.3212 15.9284 19.6735 15.6065 18.3022C15.4712 17.815 15.3641 17.4291 15.1127 17.1266C15.1028 17.1147 15.0928 17.103 15.0827 17.0913C15.0603 17.051 15.032 17.0132 14.9977 16.979C14.958 16.9395 14.9162 16.9014 14.8728 16.8654C14.5703 16.6148 14.1846 16.5081 13.6974 16.3733C13.6692 16.3655 13.6407 16.3576 13.6118 16.3496C12.3114 15.9883 11.3755 15.7276 10.734 15.4757C10.4145 15.3503 10.1979 15.2381 10.0564 15.1348C9.91847 15.0341 9.88173 14.9637 9.86977 14.9266C9.83396 14.8154 9.825 14.7023 9.84066 14.5963C9.84377 14.5753 9.85704 14.5198 9.96552 14.4236C10.0801 14.3219 10.2689 14.2039 10.5639 14.0652C11.156 13.7869 12.0398 13.4858 13.2747 13.0661L15.4421 12.3296Z" fill="#787A80"/>
</svg>
