<svg width="20" height="20" viewBox="0 0 20 20" fill="none" xmlns="http://www.w3.org/2000/svg">
<path d="M9.90889 8.56246C10.0916 8.58702 10.3251 8.65019 10.5216 8.8467C10.7181 9.04319 10.7814 9.27665 10.8059 9.45947C10.8269 9.6155 10.8269 9.80033 10.8268 9.97124L10.8268 14.1666C10.8268 14.5118 10.547 14.7916 10.2018 14.7916C9.8566 14.7916 9.57678 14.5118 9.57678 14.1666V9.99998C9.57678 9.91741 9.57675 9.85048 9.57582 9.7926C9.51794 9.79167 9.45101 9.79164 9.36845 9.79164C9.02327 9.79164 8.74345 9.51182 8.74345 9.16664C8.74345 8.82146 9.02327 8.54164 9.36845 8.54164L9.39715 8.54163C9.56808 8.54157 9.7529 8.54149 9.90889 8.56246Z" fill="#FF9800"/>
<path d="M9.9933 5.83329C9.53306 5.83329 9.15996 6.20639 9.15996 6.66663C9.15996 7.12686 9.53306 7.49996 9.9933 7.49996H10.0008C10.461 7.49996 10.8341 7.12686 10.8341 6.66663C10.8341 6.20639 10.461 5.83329 10.0008 5.83329H9.9933Z" fill="#FF9800"/>
<path fill-rule="evenodd" clip-rule="evenodd" d="M1.04163 9.99996C1.04163 5.05241 5.05241 1.04163 9.99996 1.04163C14.9475 1.04163 18.9583 5.0524 18.9583 9.99996C18.9583 14.9475 14.9475 18.9583 9.99996 18.9583C5.0524 18.9583 1.04163 14.9475 1.04163 9.99996ZM9.99996 2.29163C5.74276 2.29163 2.29163 5.74276 2.29163 9.99996C2.29163 14.2571 5.74276 17.7083 9.99996 17.7083C14.2571 17.7083 17.7083 14.2571 17.7083 9.99996C17.7083 5.74276 14.2571 2.29163 9.99996 2.29163Z" fill="#FF9800"/>
</svg>
