<svg width="24" height="24" viewBox="0 0 24 24" fill="none" xmlns="http://www.w3.org/2000/svg">
<path fill-rule="evenodd" clip-rule="evenodd" d="M12.0441 4.83337C12.3727 4.83337 12.6516 4.83336 12.8833 4.85409C13.1294 4.87609 13.3587 4.92373 13.5815 5.03932C13.8837 5.22865 14.1178 5.43324 14.3047 5.74461C14.4245 5.9442 14.5462 6.19523 14.6896 6.49098L15.0171 7.16671H16.9949C16.998 7.16668 17.0011 7.16668 17.0041 7.16671H18C18.2761 7.16671 18.5 7.39057 18.5 7.66671C18.5 7.94285 18.2761 8.16671 18 8.16671H17.47L17.0843 14.4075C17.0329 15.239 16.992 15.899 16.9084 16.4262C16.8226 16.967 16.6853 17.4173 16.4107 17.8113C16.1594 18.1715 15.8359 18.4758 15.4606 18.7044C15.0505 18.9542 14.5925 19.0635 14.0474 19.1158C13.516 19.1667 12.8545 19.1667 12.021 19.1667H11.9692C11.1347 19.1667 10.4724 19.1667 9.94024 19.1157C9.39454 19.0633 8.93608 18.9538 8.52566 18.7035C8.1502 18.4745 7.82658 18.1698 7.57539 17.8089C7.30079 17.4143 7.16389 16.9632 7.07875 16.4217C6.99573 15.8936 6.95582 15.2325 6.90553 14.3994L6.52927 8.16671H6C5.72386 8.16671 5.5 7.94285 5.5 7.66671C5.5 7.39057 5.72386 7.16671 6 7.16671H6.99591C6.99895 7.16668 7.00199 7.16668 7.00501 7.16671H9.04704L9.32638 6.55388C9.4661 6.24736 9.58461 5.98734 9.70261 5.78053C9.87873 5.47183 10.1142 5.2154 10.4291 5.04798C10.6557 4.92747 10.8901 4.87785 11.1417 4.85494C11.3788 4.83336 11.6646 4.83337 12.0014 4.83337H12.0441ZM7.53109 8.16671L7.90216 14.3134C7.95436 15.178 7.99192 15.7912 8.06662 16.2664C8.14006 16.7335 8.24291 17.0174 8.39618 17.2376C8.56807 17.4846 8.78951 17.6931 9.04635 17.8497C9.27544 17.9895 9.56504 18.0751 10.0357 18.1202C10.5145 18.1662 11.1289 18.1667 11.9951 18.1667C12.8603 18.1667 13.4738 18.1662 13.952 18.1203C14.4221 18.0752 14.7114 17.9899 14.9403 17.8504C15.197 17.694 15.4184 17.4859 15.5904 17.2393C15.7437 17.0194 15.8468 16.7359 15.9208 16.2695C15.996 15.795 16.0344 15.1827 16.0878 14.3193L16.4681 8.16671H14.7148C14.7077 8.16686 14.7006 8.16686 14.6935 8.16671H9.37933C9.372 8.16687 9.36465 8.16687 9.3573 8.16671H7.53109ZM10.7825 6.00553C10.8191 5.97751 10.8579 5.95255 10.8985 5.93093C10.9654 5.89537 11.0554 5.86694 11.2324 5.85083C11.4188 5.83385 11.6588 5.83338 12.023 5.83338C12.3783 5.83338 12.6123 5.83384 12.7943 5.85011C12.9669 5.86556 13.0552 5.89281 13.1211 5.927C13.1611 5.94777 13.1994 5.97176 13.2354 5.99861C13.2949 6.043 13.3581 6.11064 13.4473 6.25928C13.5413 6.41593 13.6438 6.62623 13.7988 6.94595L13.9058 7.16671H10.146L10.2274 6.98827C10.3784 6.65686 10.4784 6.43869 10.5712 6.27609C10.6592 6.12173 10.7224 6.05163 10.7825 6.00553Z" fill="#9FA0A5"/>
</svg>
