<svg width="20" height="20" viewBox="0 0 20 20" fill="none" xmlns="http://www.w3.org/2000/svg">
<path fill-rule="evenodd" clip-rule="evenodd" d="M10 1.66663C7.76967 1.66663 5.96162 3.48872 5.96162 5.73639C5.96162 7.98407 7.76967 9.80616 10 9.80616C12.2304 9.80616 14.0384 7.98406 14.0384 5.73639C14.0384 3.48873 12.2304 1.66663 10 1.66663ZM7.11545 5.73639C7.11545 4.13092 8.40691 2.82942 10 2.82942C11.5931 2.82942 12.8846 4.13091 12.8846 5.73639C12.8846 7.34188 11.5931 8.64337 10 8.64337C8.40691 8.64337 7.11545 7.34187 7.11545 5.73639Z" fill="#4CAF50"/>
<path fill-rule="evenodd" clip-rule="evenodd" d="M5.53382 12.1993C8.26766 10.5588 11.7323 10.5588 14.4662 12.1993C14.5556 12.253 14.6661 12.3158 14.7912 12.387C15.3396 12.6987 16.1684 13.1699 16.7363 13.7301C17.0914 14.0804 17.4288 14.542 17.4901 15.1075C17.5554 15.709 17.295 16.2734 16.7727 16.7749C15.8716 17.64 14.7903 18.3333 13.3916 18.3333H6.60843C5.20975 18.3333 4.1284 17.64 3.22731 16.7749C2.705 16.2734 2.44463 15.709 2.50987 15.1075C2.57121 14.542 2.90863 14.0804 3.26375 13.7301C3.83157 13.17 4.66042 12.6987 5.20873 12.387C5.33385 12.3158 5.44436 12.253 5.53382 12.1993ZM6.12414 13.1984C8.49424 11.7762 11.5058 11.7762 13.8759 13.1984C14.005 13.2759 14.1465 13.3568 14.2947 13.4415C14.8429 13.7549 15.4829 14.1209 15.9292 14.561C16.2062 14.8343 16.3242 15.0597 16.3431 15.2339C16.3581 15.3722 16.3234 15.6002 15.9768 15.933C15.1801 16.6979 14.3704 17.1705 13.3916 17.1705H6.60843C5.62965 17.1705 4.81999 16.6979 4.02319 15.933C3.67655 15.6002 3.64186 15.3722 3.65686 15.2339C3.67575 15.0597 3.79384 14.8343 4.07085 14.561C4.51707 14.1209 5.15708 13.755 5.70524 13.4416C5.85346 13.3568 5.995 13.2759 6.12414 13.1984Z" fill="#4CAF50"/>
</svg>
