<svg width="16" height="16" viewBox="0 0 16 16" fill="none" xmlns="http://www.w3.org/2000/svg">
<path d="M2.54077 13L4.46077 2.5H6.27577L8.23327 13H6.80077L5.46577 4.7725L5.36827 4.075L5.27077 4.7725L4.01077 13H2.54077ZM3.65077 10.2775V9.1H7.01077V10.2775H3.65077Z" fill="#DB3B4B"/>
<path d="M10.9429 13.1801C10.3979 13.1801 9.94544 13.0651 9.58544 12.8351C9.22544 12.6051 8.95544 12.2576 8.77544 11.7926C8.60044 11.3276 8.51294 10.7326 8.51294 10.0076H9.94544C9.94544 10.4476 9.98044 10.8101 10.0504 11.0951C10.1254 11.3801 10.2379 11.5926 10.3879 11.7326C10.5379 11.8676 10.7279 11.9351 10.9579 11.9351C11.1729 11.9351 11.3504 11.8701 11.4904 11.7401C11.6304 11.6101 11.7329 11.4151 11.7979 11.1551C11.8679 10.8901 11.9029 10.5501 11.9029 10.1351C11.9029 9.69007 11.8379 9.33257 11.7079 9.06257C11.5829 8.78757 11.3854 8.57757 11.1154 8.43257L10.2754 8.02757C9.91544 7.83257 9.61794 7.60507 9.38294 7.34507C9.15294 7.08507 8.98044 6.78257 8.86544 6.43757C8.75544 6.09257 8.70044 5.69757 8.70044 5.25257C8.70044 4.58757 8.78044 4.03757 8.94044 3.60257C9.10044 3.16757 9.34294 2.84507 9.66794 2.63507C9.99294 2.42507 10.4029 2.32007 10.8979 2.32007C11.3979 2.32007 11.8129 2.42757 12.1429 2.64257C12.4729 2.85257 12.7204 3.17257 12.8854 3.60257C13.0504 4.03257 13.1354 4.58507 13.1404 5.26007H11.7079C11.7079 4.87007 11.6779 4.55257 11.6179 4.30757C11.5579 4.05757 11.4704 3.87257 11.3554 3.75257C11.2404 3.62757 11.0929 3.56507 10.9129 3.56507C10.6429 3.56507 10.4429 3.70007 10.3129 3.97007C10.1829 4.23507 10.1179 4.65507 10.1179 5.23007C10.1179 5.60507 10.1804 5.91257 10.3054 6.15257C10.4304 6.39257 10.6229 6.58507 10.8829 6.73007L11.7679 7.16507C12.1229 7.35507 12.4154 7.58757 12.6454 7.86257C12.8754 8.13257 13.0479 8.45257 13.1629 8.82257C13.2779 9.19257 13.3354 9.61757 13.3354 10.0976C13.3354 10.7976 13.2479 11.3751 13.0729 11.8301C12.8979 12.2851 12.6329 12.6251 12.2779 12.8501C11.9229 13.0701 11.4779 13.1801 10.9429 13.1801Z" fill="#DB3B4B"/>
</svg>
