<svg width="16" height="16" viewBox="0 0 16 16" fill="none" xmlns="http://www.w3.org/2000/svg">
<path fill-rule="evenodd" clip-rule="evenodd" d="M7.96244 15.1667C6.73728 15.1667 5.76686 15.1667 5.00738 15.0646C4.22576 14.9595 3.59312 14.7381 3.09423 14.2392C2.59532 13.7402 2.37391 13.1076 2.26882 12.326C2.16671 11.5665 2.16672 10.5961 2.16673 9.37093L2.16673 9.37092V7.10459L2.16668 7.02402C2.16623 6.55829 2.16588 6.18967 2.30624 5.85074C2.44669 5.51176 2.70756 5.25135 3.03724 4.9223L3.09424 4.86537L6.25191 1.70771L6.30107 1.65849L6.30107 1.65849C6.58525 1.37384 6.80958 1.14913 7.09458 1.01277C7.15315 0.984805 7.21378 0.959604 7.27563 0.937793C7.57355 0.832692 7.89108 0.832955 8.29328 0.833289L8.36286 0.833327H8.39503L8.39506 0.833327C9.44942 0.833319 10.2847 0.833313 10.9462 0.910542C11.6251 0.989814 12.1847 1.15618 12.6543 1.53481C12.8301 1.67651 12.9902 1.83659 13.1319 2.01234C13.5105 2.48195 13.6769 3.04162 13.7562 3.72054C13.8334 4.38197 13.8334 5.21729 13.8334 6.27166V6.27169V7.67973C13.5119 7.59099 13.1774 7.53355 12.8334 7.51091V6.30386C12.8334 5.21011 12.8326 4.4332 12.7629 3.83651C12.6945 3.25062 12.5655 2.9031 12.3535 2.64005C12.2565 2.51981 12.1469 2.41026 12.0267 2.3133C11.7636 2.1012 11.4161 1.97221 10.8302 1.90379C10.2335 1.83413 9.4566 1.83333 8.36286 1.83333C8.10552 1.83333 7.94463 1.83505 7.83339 1.84214V2.03658V2.03659C7.83341 2.9483 7.83342 3.68317 7.75571 4.26114C7.72868 4.46218 7.69133 4.65257 7.63853 4.83198C7.61223 4.92134 7.58209 5.00797 7.54748 5.09184C7.44417 5.34218 7.30103 5.56786 7.10115 5.76775C6.69986 6.16903 6.19462 6.34163 5.59454 6.42231C5.01656 6.50002 4.28168 6.50001 3.36996 6.49999H3.17788C3.16892 6.62805 3.16673 6.81266 3.16673 7.10459V9.33333C3.16673 10.6045 3.16779 11.5077 3.2599 12.1928C3.35008 12.8635 3.51921 13.2499 3.80136 13.5321C4.08347 13.8142 4.46989 13.9833 5.14063 14.0735C5.78637 14.1603 6.62578 14.1662 7.78453 14.1666C7.90938 14.5199 8.0728 14.8549 8.26973 15.1666C8.19341 15.1667 8.11607 15.1667 8.03768 15.1667H8.03767H7.96245H7.96244ZM3.87449 5.49934L6.83274 2.54109C6.83029 3.21767 6.81877 3.72518 6.76463 4.12789C6.69886 4.61707 6.57856 4.87612 6.39404 5.06064C6.20952 5.24516 5.95047 5.36546 5.46129 5.43123C5.05858 5.48537 4.55107 5.4969 3.87449 5.49934Z" fill="#6C707E"/>
<path fill-rule="evenodd" clip-rule="evenodd" d="M12.7629 3.83656C12.6945 3.25067 12.5656 2.90315 12.3535 2.64009C12.2565 2.51986 12.147 2.41031 12.0267 2.31334C11.7636 2.10125 11.4161 1.97225 10.8302 1.90384C10.2335 1.83417 9.45662 1.83337 8.36288 1.83337C8.10554 1.83337 7.94465 1.83509 7.83341 1.84218V2.03662V2.03663C7.83343 2.94835 7.83344 3.68322 7.75573 4.26119C7.7287 4.46223 7.69135 4.65262 7.63855 4.83202C7.61225 4.92138 7.58211 5.00802 7.5475 5.09188C7.4442 5.34223 7.30105 5.56791 7.10117 5.76779C6.69988 6.16908 6.19464 6.34168 5.59456 6.42236C5.01659 6.50006 4.28171 6.50005 3.36998 6.50004H3.1779C3.16895 6.6281 3.16675 6.81271 3.16675 7.10464V9.33337C3.16675 10.6046 3.16781 11.5077 3.25992 12.1928C3.3501 12.8635 3.51923 13.25 3.80138 13.5321C4.08349 13.8142 4.46991 13.9834 5.14065 14.0735C5.78639 14.1604 6.6258 14.1663 7.78455 14.1667C7.6003 13.6454 7.50004 13.0844 7.50004 12.5C7.50004 9.73859 9.73862 7.50002 12.5 7.50002C12.6121 7.50002 12.7232 7.5037 12.8334 7.51096V6.30391C12.8334 5.21016 12.8326 4.43324 12.7629 3.83656ZM6.83276 2.54113L3.87451 5.49939C4.55109 5.49694 5.0586 5.48542 5.46131 5.43127C5.95049 5.3655 6.20954 5.2452 6.39406 5.06069C6.57858 4.87617 6.69888 4.61712 6.76465 4.12794C6.81879 3.72522 6.83032 3.21772 6.83276 2.54113Z" fill="#EBECF0"/>
<path fill-rule="evenodd" clip-rule="evenodd" d="M12.5 9C12.7761 9 13 9.22386 13 9.5V12H15.5C15.7761 12 16 12.2239 16 12.5C16 12.7761 15.7761 13 15.5 13H13V15.5C13 15.7761 12.7761 16 12.5 16C12.2239 16 12 15.7761 12 15.5V13H9.5C9.22386 13 9 12.7761 9 12.5C9 12.2239 9.22386 12 9.5 12H12V9.5C12 9.22386 12.2239 9 12.5 9Z" fill="#3574F0"/>
</svg>
