<svg width="16" height="16" viewBox="0 0 16 16" fill="none" xmlns="http://www.w3.org/2000/svg">
<path fill-rule="evenodd" clip-rule="evenodd" d="M5.00736 15.0647C5.76684 15.1668 6.73727 15.1668 7.96243 15.1667H8.03765C9.26282 15.1668 10.2332 15.1668 10.9927 15.0647C11.7743 14.9596 12.407 14.7382 12.9059 14.2393C13.4048 13.7403 13.6262 13.1077 13.7313 12.3261C13.8334 11.5666 13.8334 10.5962 13.8334 9.37103L13.8334 6.27177C13.8334 5.21739 13.8334 4.38206 13.7562 3.72063C13.6769 3.04171 13.5105 2.48204 13.1319 2.01243C12.9902 1.83668 12.8301 1.67659 12.6543 1.5349C12.1847 1.15627 11.6251 0.989902 10.9462 0.910631C10.2847 0.833402 9.44939 0.833408 8.39501 0.833416H8.36284L8.29326 0.833378C7.89106 0.833044 7.57353 0.832781 7.27561 0.937881C7.21376 0.959693 7.15313 0.984894 7.09456 1.01285C6.80956 1.14922 6.58522 1.37393 6.30105 1.65858L6.25189 1.7078L3.09422 4.86546L3.03722 4.92239C2.70754 5.25144 2.44667 5.51185 2.30622 5.85083C2.16586 6.18976 2.16621 6.55838 2.16666 7.02411L2.16671 7.10468V9.37101C2.1667 10.5962 2.16669 11.5666 2.2688 12.3261C2.37389 13.1077 2.5953 13.7403 3.09421 14.2392C3.5931 14.7382 4.22575 14.9596 5.00736 15.0647ZM12.7629 3.8366C12.6945 3.25071 12.5655 2.90319 12.3534 2.64013C12.2565 2.5199 12.1469 2.41035 12.0266 2.31339C11.7636 2.10129 11.4161 1.97229 10.8302 1.90388C10.2335 1.83421 9.45658 1.83342 8.36284 1.83342C8.1055 1.83342 7.94461 1.83513 7.83337 1.84222V2.03667C7.83339 2.94838 7.8334 3.68326 7.75569 4.26123C7.72866 4.46227 7.69131 4.65266 7.63851 4.83207C7.61221 4.92143 7.58207 5.00806 7.54746 5.09192C7.44416 5.34227 7.30101 5.56795 7.10113 5.76784C6.69984 6.16912 6.1946 6.34172 5.59452 6.4224C5.01655 6.50011 4.28166 6.5001 3.36994 6.50008H3.17786C3.1689 6.62814 3.16671 6.81275 3.16671 7.10468V9.33341C3.16671 10.6046 3.16777 11.5077 3.25988 12.1928C3.35006 12.8636 3.51919 13.25 3.80134 13.5322C4.08345 13.8143 4.46987 13.9834 5.14061 14.0736C5.82373 14.1654 6.72361 14.1667 7.989 14.1667H7.99903H8.00004C9.27125 14.1667 10.1744 14.1657 10.8595 14.0736C11.5302 13.9834 11.9166 13.8143 12.1988 13.5321C12.4809 13.25 12.65 12.8636 12.7402 12.1929C12.8323 11.5077 12.8334 10.6046 12.8334 9.33341V6.30395C12.8334 5.2102 12.8326 4.43329 12.7629 3.8366ZM6.83272 2.54118L3.87447 5.49943C4.55105 5.49698 5.05856 5.48546 5.46127 5.43132C5.95045 5.36555 6.2095 5.24525 6.39402 5.06073C6.57854 4.87621 6.69884 4.61716 6.76461 4.12798C6.81875 3.72526 6.83028 3.21776 6.83272 2.54118Z" fill="#6C707E"/>
<path d="M12.3534 2.64014C12.5655 2.90319 12.6945 3.25071 12.7629 3.8366C12.8326 4.43329 12.8334 5.2102 12.8334 6.30395V9.33341C12.8334 10.6046 12.8323 11.5077 12.7402 12.1929C12.65 12.8636 12.4809 13.25 12.1988 13.5321C11.9166 13.8143 11.5302 13.9834 10.8595 14.0736C10.1744 14.1657 9.27125 14.1667 8.00004 14.1667H7.99903H7.989C6.72361 14.1667 5.82373 14.1654 5.14061 14.0736C4.46987 13.9834 4.08345 13.8143 3.80134 13.5322C3.51919 13.25 3.35006 12.8636 3.25988 12.1928C3.16777 11.5077 3.16671 10.6046 3.16671 9.33341V7.10468C3.16671 6.81275 3.16891 6.62814 3.17786 6.50008H3.36994C4.28167 6.5001 5.01655 6.50011 5.59452 6.4224C6.1946 6.34172 6.69984 6.16912 7.10113 5.76784C7.30101 5.56795 7.44416 5.34227 7.54746 5.09193C7.58207 5.00806 7.61221 4.92143 7.63851 4.83207C7.69131 4.65266 7.72866 4.46227 7.75569 4.26123C7.8334 3.68326 7.83339 2.94838 7.83337 2.03667V1.84223C7.94461 1.83514 8.1055 1.83342 8.36284 1.83342C9.45658 1.83342 10.2335 1.83422 10.8302 1.90388C11.4161 1.9723 11.7636 2.10129 12.0266 2.31339C12.1469 2.41035 12.2565 2.5199 12.3534 2.64014Z" fill="#EBECF0"/>
<path d="M3.87447 5.49943L6.83272 2.54118C6.83028 3.21776 6.81875 3.72527 6.76461 4.12798C6.69884 4.61716 6.57854 4.87621 6.39402 5.06073C6.2095 5.24525 5.95045 5.36555 5.46127 5.43132C5.05856 5.48546 4.55105 5.49699 3.87447 5.49943Z" fill="#EBECF0"/>
</svg>
