<svg width="16" height="16" viewBox="0 0 16 16" fill="none" xmlns="http://www.w3.org/2000/svg">
<path fill-rule="evenodd" clip-rule="evenodd" d="M5.02947 3.02945C5.25906 2.79989 5.57691 2.65706 6.14986 2.58003C6.73722 2.50106 7.5134 2.5 8.61539 2.5H9.38462C10.4866 2.5 11.2628 2.50106 11.8501 2.58003C12.4231 2.65706 12.7409 2.79989 12.9705 3.02946C13.2001 3.25905 13.3429 3.5769 13.42 4.14986C13.4989 4.73722 13.5 5.5134 13.5 6.61539V7.38462C13.5 8.4866 13.4989 9.26278 13.42 9.85013C13.3429 10.4231 13.2001 10.7409 12.9705 10.9705C12.7409 11.2001 12.4231 11.3429 11.8501 11.42C11.2628 11.4989 10.4866 11.5 9.38462 11.5H8.61539C7.5134 11.5 6.73722 11.4989 6.14986 11.42C5.5769 11.3429 5.25905 11.2001 5.02946 10.9705C4.79989 10.7409 4.65706 10.4231 4.58003 9.85014C4.50106 9.26278 4.5 8.4866 4.5 7.38462V6.61539C4.5 5.5134 4.50106 4.73722 4.58003 4.14986C4.65706 3.57691 4.7999 3.25904 5.02947 3.02945ZM9.42174 1.5H8.57826C7.52193 1.49999 6.67836 1.49998 6.01662 1.58895C5.33275 1.68089 4.7687 1.87603 4.32235 2.32236C3.87602 2.76871 3.68089 3.33275 3.58895 4.01662C3.49998 4.67836 3.49999 5.52193 3.5 6.57826V7.42174C3.49999 8.47807 3.49998 9.32164 3.58895 9.98338C3.68089 10.6672 3.87603 11.2313 4.32236 11.6776C4.76871 12.124 5.33275 12.3191 6.01661 12.4111C6.67835 12.5 7.52192 12.5 8.57824 12.5H9.42176C10.4781 12.5 11.3216 12.5 11.9834 12.4111C12.6672 12.3191 13.2313 12.124 13.6776 11.6776C14.124 11.2313 14.3191 10.6672 14.4111 9.98339C14.5 9.32165 14.5 8.47808 14.5 7.42176V6.57824C14.5 5.52192 14.5 4.67835 14.4111 4.01661C14.3191 3.33275 14.124 2.7687 13.6776 2.32235C13.2313 1.87602 12.6672 1.68089 11.9834 1.58895C11.3216 1.49998 10.4781 1.49999 9.42174 1.5Z" fill="#43454A"/>
<path fill-rule="evenodd" clip-rule="evenodd" d="M3.02947 5.02945C3.25906 4.79989 3.57691 4.65706 4.14986 4.58003C4.73722 4.50106 5.5134 4.5 6.61539 4.5H7.38462C8.4866 4.5 9.26278 4.50106 9.85014 4.58003C10.4231 4.65706 10.7409 4.79989 10.9705 5.02946C11.2001 5.25905 11.3429 5.5769 11.42 6.14986C11.4989 6.73722 11.5 7.5134 11.5 8.61539V9.38462C11.5 10.4866 11.4989 11.2628 11.42 11.8501C11.3429 12.4231 11.2001 12.7409 10.9705 12.9705C10.7409 13.2001 10.4231 13.3429 9.85013 13.42C9.26278 13.4989 8.4866 13.5 7.38462 13.5H6.61539C5.5134 13.5 4.73722 13.4989 4.14986 13.42C3.5769 13.3429 3.25905 13.2001 3.02946 12.9705C2.79989 12.7409 2.65706 12.4231 2.58003 11.8501C2.50106 11.2628 2.5 10.4866 2.5 9.38462V8.61539C2.5 7.5134 2.50106 6.73722 2.58003 6.14986C2.65706 5.57691 2.7999 5.25904 3.02947 5.02945ZM7.42174 3.5H6.57826C5.52193 3.49999 4.67836 3.49998 4.01662 3.58895C3.33275 3.68089 2.7687 3.87603 2.32235 4.32236C1.87602 4.76871 1.68089 5.33275 1.58895 6.01662C1.49998 6.67836 1.49999 7.52193 1.5 8.57826V9.42174C1.49999 10.4781 1.49998 11.3216 1.58895 11.9834C1.68089 12.6672 1.87603 13.2313 2.32236 13.6776C2.76871 14.124 3.33275 14.3191 4.01661 14.4111C4.67835 14.5 5.52192 14.5 6.57824 14.5H7.42176C8.47808 14.5 9.32165 14.5 9.98339 14.4111C10.6672 14.3191 11.2313 14.124 11.6776 13.6776C12.124 13.2313 12.3191 12.6672 12.4111 11.9834C12.5 11.3216 12.5 10.4781 12.5 9.42176V8.57824C12.5 7.52192 12.5 6.67835 12.4111 6.01661C12.3191 5.33275 12.124 4.7687 11.6776 4.32235C11.2313 3.87602 10.6672 3.68089 9.98338 3.58895C9.32164 3.49998 8.47807 3.49999 7.42174 3.5Z" fill="#CED0D6"/>
<path fill-rule="evenodd" clip-rule="evenodd" d="M3.02947 5.02945C3.25906 4.79988 3.57691 4.65706 4.14986 4.58003C4.73722 4.50106 5.5134 4.5 6.61538 4.5H7.38462C8.4866 4.5 9.26278 4.50106 9.85014 4.58003C10.4231 4.65706 10.7409 4.79989 10.9705 5.02946C11.2001 5.25905 11.3429 5.5769 11.42 6.14986C11.4989 6.73722 11.5 7.5134 11.5 8.61538V9.38462C11.5 10.4866 11.4989 11.2628 11.42 11.8501C11.3429 12.4231 11.2001 12.7409 10.9705 12.9705C10.7409 13.2001 10.4231 13.3429 9.85013 13.42C9.26278 13.4989 8.4866 13.5 7.38462 13.5H6.61538C5.5134 13.5 4.73722 13.4989 4.14986 13.42C3.5769 13.3429 3.25905 13.2001 3.02946 12.9705C2.79989 12.7409 2.65706 12.4231 2.58003 11.8501C2.50106 11.2628 2.5 10.4866 2.5 9.38462V8.61538C2.5 7.5134 2.50106 6.73722 2.58003 6.14986C2.65706 5.57691 2.7999 5.25904 3.02947 5.02945Z" fill="#43454A"/>
<path fill-rule="evenodd" clip-rule="evenodd" d="M4.5 7.5C4.5 7.22386 4.72386 7 5 7H9C9.27614 7 9.5 7.22386 9.5 7.5C9.5 7.77614 9.27614 8 9 8H5C4.72386 8 4.5 7.77614 4.5 7.5ZM4.5 10.5C4.5 10.2239 4.72386 10 5 10H9C9.27614 10 9.5 10.2239 9.5 10.5C9.5 10.7761 9.27614 11 9 11H5C4.72386 11 4.5 10.7761 4.5 10.5Z" fill="#CED0D6"/>
</svg>
