<svg width="16" height="16" viewBox="0 0 16 16" fill="none" xmlns="http://www.w3.org/2000/svg">
<path fill-rule="evenodd" clip-rule="evenodd" d="M7.96244 15.1667C6.73728 15.1667 5.76686 15.1667 5.00738 15.0646C4.22576 14.9595 3.59312 14.7381 3.09423 14.2392C2.59532 13.7402 2.37391 13.1076 2.26882 12.326C2.16671 11.5665 2.16672 10.5961 2.16673 9.37093L2.16673 9.37092V7.10459L2.16668 7.02402C2.16623 6.55829 2.16588 6.18967 2.30624 5.85074C2.44669 5.51176 2.70756 5.25135 3.03724 4.9223L3.09424 4.86537L6.25191 1.70771L6.30107 1.65849L6.30107 1.65849C6.58525 1.37384 6.80958 1.14913 7.09458 1.01277C7.15315 0.984805 7.21378 0.959604 7.27563 0.937793C7.57355 0.832692 7.89108 0.832955 8.29328 0.833289L8.36286 0.833327H8.39503L8.39506 0.833327C9.44942 0.833319 10.2847 0.833313 10.9462 0.910542C11.6251 0.989814 12.1847 1.15618 12.6543 1.53481C12.8301 1.67651 12.9902 1.83659 13.1319 2.01234C13.5105 2.48195 13.6769 3.04162 13.7562 3.72054C13.8334 4.38197 13.8334 5.21729 13.8334 6.27166V6.27169V7.34679C13.5148 7.22115 13.1801 7.12729 12.8334 7.06911V6.30386C12.8334 5.21011 12.8326 4.4332 12.7629 3.83651C12.6945 3.25062 12.5655 2.9031 12.3535 2.64005C12.2565 2.51981 12.1469 2.41026 12.0267 2.3133C11.7636 2.1012 11.4161 1.97221 10.8302 1.90379C10.2335 1.83413 9.4566 1.83333 8.36286 1.83333C8.10552 1.83333 7.94463 1.83505 7.83339 1.84214V2.03658V2.03659C7.83341 2.9483 7.83342 3.68317 7.75571 4.26114C7.72868 4.46218 7.69133 4.65257 7.63853 4.83198C7.61223 4.92134 7.58209 5.00797 7.54748 5.09184C7.44417 5.34218 7.30103 5.56786 7.10115 5.76775C6.69986 6.16903 6.19462 6.34163 5.59454 6.42231C5.01656 6.50002 4.28168 6.50001 3.36996 6.49999H3.17788C3.16892 6.62805 3.16673 6.81266 3.16673 7.10459V9.33333C3.16673 10.6045 3.16779 11.5077 3.2599 12.1928C3.35008 12.8635 3.51921 13.2499 3.80136 13.5321C4.08347 13.8142 4.46989 13.9833 5.14063 14.0735C5.73081 14.1528 6.48277 14.1646 7.49244 14.1664C7.66549 14.5258 7.88025 14.8613 8.13045 15.1667C8.09969 15.1667 8.06877 15.1667 8.03768 15.1667H8.03767H7.96245H7.96244ZM3.87449 5.49934L6.83274 2.54109C6.83029 3.21767 6.81877 3.72518 6.76463 4.12789C6.69886 4.61707 6.57856 4.87612 6.39404 5.06064C6.20952 5.24516 5.95047 5.36546 5.46129 5.43123C5.05858 5.48537 4.55107 5.4969 3.87449 5.49934Z" fill="#CED0D6"/>
<path fill-rule="evenodd" clip-rule="evenodd" d="M12.7629 3.83656C12.6945 3.25067 12.5656 2.90315 12.3535 2.64009C12.2565 2.51986 12.147 2.41031 12.0267 2.31334C11.7636 2.10125 11.4161 1.97225 10.8302 1.90384C10.2335 1.83417 9.45662 1.83337 8.36288 1.83337C8.10554 1.83337 7.94465 1.83509 7.83341 1.84218V2.03662V2.03663C7.83343 2.94835 7.83344 3.68322 7.75573 4.26119C7.7287 4.46223 7.69135 4.65262 7.63855 4.83202C7.61225 4.92138 7.58211 5.00802 7.5475 5.09188C7.4442 5.34223 7.30105 5.56791 7.10117 5.76779C6.69988 6.16908 6.19464 6.34168 5.59456 6.42236C5.01659 6.50006 4.28171 6.50005 3.36998 6.50004H3.1779C3.16895 6.6281 3.16675 6.81271 3.16675 7.10464V9.33337C3.16675 10.6046 3.16781 11.5077 3.25992 12.1928C3.3501 12.8635 3.51923 13.25 3.80138 13.5321C4.08349 13.8142 4.46991 13.9834 5.14065 14.0735C5.73083 14.1529 6.48279 14.1647 7.49246 14.1664C7.17688 13.511 7.00004 12.7761 7.00004 12C7.00004 9.23859 9.23862 7.00002 12 7.00002C12.284 7.00002 12.5624 7.02369 12.8334 7.06916V6.30391C12.8334 5.21016 12.8326 4.43324 12.7629 3.83656ZM6.83276 2.54113L3.87451 5.49939C4.55109 5.49694 5.0586 5.48542 5.46131 5.43127C5.95049 5.3655 6.20954 5.2452 6.39406 5.06069C6.57858 4.87617 6.69888 4.61712 6.76465 4.12794C6.81879 3.72522 6.83032 3.21772 6.83276 2.54113Z" fill="#43454A"/>
<path d="M11.9976 13C12.5498 13 12.9976 12.5523 12.9976 12C12.9976 11.4477 12.5498 11 11.9976 11C11.4453 11 10.9976 11.4477 10.9976 12C10.9976 12.5523 11.4453 13 11.9976 13Z" fill="#3574F0"/>
<path fill-rule="evenodd" clip-rule="evenodd" d="M13.1192 15.6756C13.046 15.8707 12.8594 16 12.651 16H11.344C11.1356 16 10.949 15.8707 10.8758 15.6756L10.6263 15.0102C10.5424 14.7865 10.3119 14.6534 10.0761 14.6926L9.37521 14.8092C9.16961 14.8434 8.96437 14.7464 8.86016 14.5659L8.20666 13.4341C8.10245 13.2536 8.12113 13.0273 8.25355 12.8664L8.70498 12.3177C8.85681 12.1331 8.85681 11.8669 8.70498 11.6824L8.25353 11.1336C8.12111 10.9727 8.10243 10.7464 8.20664 10.5659L8.86014 9.43405C8.96435 9.25355 9.1696 9.15663 9.37519 9.19083L10.0761 9.30742C10.3119 9.34664 10.5424 9.21353 10.6263 8.98976L10.8758 8.32444C10.949 8.12929 11.1356 8 11.344 8H12.651C12.8594 8 13.046 8.12929 13.1192 8.32444L13.3687 8.98976C13.4526 9.21353 13.6831 9.34664 13.9189 9.30742L14.6198 9.19083C14.8254 9.15663 15.0307 9.25355 15.1349 9.43405L15.7884 10.5659C15.8926 10.7464 15.8739 10.9727 15.7415 11.1336L15.29 11.6824C15.1382 11.8669 15.1382 12.1331 15.29 12.3177L15.7415 12.8664C15.8739 13.0273 15.8926 13.2536 15.7883 13.4341L15.1348 14.5659C15.0306 14.7464 14.8254 14.8434 14.6198 14.8092L13.9189 14.6926C13.6831 14.6534 13.4526 14.7865 13.3687 15.0102L13.1192 15.6756ZM11.6905 15H12.3045L12.4323 14.6591C12.6841 13.9878 13.3757 13.5885 14.0829 13.7061L14.4421 13.7659L14.7491 13.2341L14.5178 12.953C14.0623 12.3993 14.0623 11.6007 14.5178 11.047L14.7491 10.7659L14.4421 10.2341L14.0829 10.2939C13.3757 10.4115 12.6841 10.0122 12.4323 9.34088L12.3045 9H11.6905L11.5627 9.34088C11.3109 10.0122 10.6193 10.4115 9.91205 10.2939L9.55291 10.2341L9.24591 10.7659L9.47722 11.047C9.93273 11.6007 9.93273 12.3993 9.47722 12.953L9.24593 13.2341L9.55293 13.7659L9.91205 13.7061C10.6193 13.5885 11.3109 13.9878 11.5627 14.6591L11.6905 15Z" fill="#3574F0"/>
<path fill-rule="evenodd" clip-rule="evenodd" d="M12.3086 15H11.6946L11.5668 14.6591C11.315 13.9878 10.6234 13.5885 9.91614 13.7061L9.55702 13.7659L9.25002 13.2341L9.48131 12.953C9.93681 12.3993 9.93681 11.6007 9.48131 11.047L9.25 10.7659L9.557 10.2341L9.91614 10.2939C10.6234 10.4115 11.315 10.0122 11.5668 9.34088L11.6946 9H12.3086L12.4364 9.34088C12.6882 10.0122 13.3798 10.4115 14.087 10.2939L14.4462 10.2341L14.7532 10.7659L14.5219 11.047C14.0664 11.6007 14.0664 12.3993 14.5219 12.953L14.7532 13.2341L14.4462 13.7659L14.087 13.7061C13.3798 13.5885 12.6882 13.9878 12.4364 14.6591L12.3086 15ZM13.0016 12C13.0016 12.5523 12.5539 13 12.0016 13C11.4494 13 11.0016 12.5523 11.0016 12C11.0016 11.4477 11.4494 11 12.0016 11C12.5539 11 13.0016 11.4477 13.0016 12Z" fill="#EDF3FF"/>
</svg>
