<svg width="16" height="16" viewBox="0 0 16 16" fill="none" xmlns="http://www.w3.org/2000/svg">
<path d="M4.85297 9.8103H2.7063C2.99053 10.7853 3.51797 11.6592 4.29015 12.4314C5.52117 13.6627 7.00143 14.2773 8.73246 14.2773C9.07849 14.2773 9.41374 14.2516 9.73939 14.2024C11.0432 14.0057 12.1848 13.4162 13.1628 12.4314C13.94 11.6595 14.4712 10.7853 14.7576 9.8103H13.8864H12.6126H4.85297Z" fill="#2C2255"/>
<path d="M3.66939 6.89478H2.54797C2.50695 7.14119 2.479 7.39273 2.46631 7.65068H3.79913H4.46772H14.1184H14.9993C14.9865 7.39273 14.9585 7.14119 14.9171 6.89478" fill="#2C2255"/>
<path d="M2.46631 8.35254C2.479 8.61062 2.50682 8.86216 2.54797 9.10844H3.71387H4.59759H14.0397H14.9173C14.9586 8.86216 14.9868 8.61062 14.9997 8.35254" fill="#2C2255"/>
<path d="M14.758 6.19264C14.4718 5.21495 13.9406 4.337 13.163 3.55931C12.1875 2.58392 11.0491 1.99853 9.74953 1.80161C9.42081 1.75174 9.08222 1.72559 8.7326 1.72559C7.00157 1.72559 5.52119 2.337 4.29029 3.55931C3.51785 4.337 2.99016 5.21495 2.70605 6.19264" fill="#2C2255"/>
<path d="M2.09359 8.00175C2.09359 4.69098 4.58013 1.94008 7.81488 1.45623C7.73462 1.45328 7.65398 1.44995 7.57296 1.44995C3.94295 1.44995 1 4.38342 1 8.00175C1 11.6202 3.94282 14.5534 7.57296 14.5534C7.65424 14.5534 7.73488 14.5504 7.81539 14.5474C4.58013 14.0635 2.09359 11.3126 2.09359 8.00175Z" fill="#F7941E"/>
<path d="M12.9979 7.65043C12.9769 7.39133 12.9333 7.13864 12.8682 6.89453H4.59765C4.53252 7.13838 4.4888 7.3912 4.46777 7.65043H12.9979Z" fill="url(#paint0_linear_3846_129956)"/>
<path d="M12.998 8.35254H4.46802C4.48904 8.61164 4.5325 8.86421 4.59776 9.10844H12.8684C12.9335 8.86434 12.977 8.61164 12.998 8.35254Z" fill="url(#paint1_linear_3846_129956)"/>
<path d="M8.7329 12.2822C10.4505 12.2822 11.931 11.2703 12.6128 9.8103H4.85303C5.53482 11.2703 7.01534 12.2822 8.7329 12.2822Z" fill="url(#paint2_linear_3846_129956)"/>
<defs>
<linearGradient id="paint0_linear_3846_129956" x1="8.73275" y1="15.1293" x2="8.73275" y2="5.68894" gradientUnits="userSpaceOnUse">
<stop offset="0.3033" stop-color="#473788"/>
<stop offset="0.872" stop-color="#2C2255"/>
</linearGradient>
<linearGradient id="paint1_linear_3846_129956" x1="8.73298" y1="15.1296" x2="8.73298" y2="5.6891" gradientUnits="userSpaceOnUse">
<stop offset="0.3033" stop-color="#473788"/>
<stop offset="0.872" stop-color="#2C2255"/>
</linearGradient>
<linearGradient id="paint2_linear_3846_129956" x1="8.73287" y1="15.129" x2="8.73287" y2="5.68939" gradientUnits="userSpaceOnUse">
<stop offset="0.3033" stop-color="#473788"/>
<stop offset="0.8631" stop-color="#2C2255"/>
</linearGradient>
</defs>
</svg>
