<svg width="16" height="16" viewBox="0 0 16 16" fill="none" xmlns="http://www.w3.org/2000/svg">
<path d="M2.07937 12L2.8805 9.69032H6.2896L7.08647 12H8.4842L5.34357 3.27271H3.82227L0.681641 12H2.07937ZM3.26403 8.58236L4.55096 4.85793H4.61914L5.90607 8.58236H3.26403Z" fill="#CED0D6"/>
<path d="M11.5471 12.145C12.6294 12.145 13.2388 11.5952 13.4817 11.1052H13.5328V12.0001H14.7772V7.65347C14.7772 5.74864 13.2772 5.36938 12.2374 5.36938C11.0527 5.36938 9.96187 5.84666 9.53573 7.03983L10.7331 7.31256C10.9206 6.84807 11.3979 6.40063 12.2544 6.40063C13.0769 6.40063 13.4988 6.83103 13.4988 7.5725V7.60233C13.4988 8.06682 13.0215 8.0583 11.8453 8.19466C10.6053 8.33955 9.33545 8.66342 9.33545 10.1506C9.33545 11.4376 10.3027 12.145 11.5471 12.145ZM11.824 11.1222C11.1039 11.1222 10.584 10.7984 10.584 10.1677C10.584 9.48585 11.1891 9.24297 11.9263 9.14495C12.3397 9.08956 13.3198 8.97876 13.503 8.79552V9.63927C13.503 10.4149 12.8851 11.1222 11.824 11.1222Z" fill="#CED0D6"/>
</svg>
