<svg width="16" height="16" viewBox="0 0 16 16" fill="none" xmlns="http://www.w3.org/2000/svg">
<path fill-rule="evenodd" clip-rule="evenodd" d="M8.70705 1.30473C8.31652 0.914211 7.68336 0.91421 7.29283 1.30473L6.38061 2.21695L7.33527 3.17161C7.83703 2.87467 8.49455 2.94185 8.92584 3.37314C9.35712 3.80442 9.4243 4.46194 9.12736 4.9637L11.036 6.87233C11.5377 6.57554 12.1951 6.64275 12.6263 7.07398C13.1372 7.58483 13.1372 8.41309 12.6263 8.92395C12.1154 9.4348 11.2872 9.4348 10.7763 8.92395C10.3456 8.49321 10.278 7.83681 10.5737 7.33529L8.66431 5.42588C8.55785 5.48861 8.44442 5.53497 8.32765 5.56498V10.4334C8.5466 10.4898 8.75379 10.6037 8.92524 10.7751C9.43609 11.286 9.43609 12.1143 8.92524 12.6251C8.41438 13.136 7.58612 13.136 7.07527 12.6251C6.56442 12.1143 6.56442 11.286 7.07527 10.7751C7.24686 10.6036 7.45426 10.4896 7.67342 10.4333V5.56482C7.45448 5.50844 7.2473 5.39454 7.07587 5.2231C6.64519 4.79242 6.5776 4.13615 6.87309 3.63466L5.918 2.67957L1.30522 7.29235C0.914698 7.68287 0.914697 8.31604 1.30522 8.70656L7.29283 14.6942C7.68336 15.0847 8.31652 15.0847 8.70705 14.6942L14.6946 8.70656C15.0851 8.31604 15.0851 7.68287 14.6946 7.29235L8.70705 1.30473Z" fill="#F34E29"/>
</svg>
