<svg width="16" height="16" viewBox="0 0 16 16" fill="none" xmlns="http://www.w3.org/2000/svg">
<path d="M3.18481 12.9999V3.8999H4.27031V12.9999H3.18481Z" fill="#B589EC"/>
<path d="M5.58423 12.9999V3.8999H7.37823C7.84623 3.8999 8.22756 4.03207 8.52223 4.2964C8.8169 4.56074 9.03356 4.97024 9.17223 5.5249C9.3109 6.07524 9.38023 6.7924 9.38023 7.6764V9.2234C9.38023 10.1074 9.3109 10.8267 9.17223 11.3814C9.03356 11.9317 8.8169 12.3391 8.52223 12.6034C8.22756 12.8677 7.84623 12.9999 7.37823 12.9999H5.58423ZM7.37823 11.9859C7.58189 11.9859 7.74656 11.8884 7.87223 11.6934C8.00223 11.4984 8.09756 11.1994 8.15823 10.7964C8.2189 10.3934 8.24923 9.86907 8.24923 9.2234V7.6764C8.24923 7.03074 8.2189 6.5064 8.15823 6.1034C8.09756 5.7004 8.00223 5.4014 7.87223 5.2064C7.74656 5.0114 7.58189 4.9139 7.37823 4.9139H6.66973V11.9859H7.37823Z" fill="#B589EC"/>
<path d="M10.3831 3.8999H11.4556V11.9794H13.5291V12.9999H10.3831V3.8999Z" fill="#B589EC"/>
</svg>
