<svg width="16" height="16" viewBox="0 0 16 16" fill="none" xmlns="http://www.w3.org/2000/svg">
<path fill-rule="evenodd" clip-rule="evenodd" d="M11 3.50006C10.1716 3.50006 9.5 4.17163 9.5 5.00006C9.5 5.82849 10.1716 6.50006 11 6.50006C11.8284 6.50006 12.5 5.82849 12.5 5.00006C12.5 4.17163 11.8284 3.50006 11 3.50006ZM10.5 5.00006C10.5 4.72392 10.7239 4.50006 11 4.50006C11.2761 4.50006 11.5 4.72392 11.5 5.00006C11.5 5.2762 11.2761 5.50006 11 5.50006C10.7239 5.50006 10.5 5.2762 10.5 5.00006Z" fill="#3574F0"/>
<path fill-rule="evenodd" clip-rule="evenodd" d="M7.96184 1.16675H8.03807C9.49853 1.16674 10.6457 1.16673 11.5413 1.28714C12.459 1.41053 13.1872 1.66856 13.7594 2.24068C14.3315 2.81282 14.5895 3.541 14.7129 4.45877C14.8333 5.35437 14.8333 6.50149 14.8333 7.96195V8.03822C14.8333 9.49867 14.8333 10.6458 14.7129 11.5414C14.5895 12.4592 14.3315 13.1873 13.7594 13.7595C13.1872 14.3316 12.459 14.5896 11.5413 14.713C10.6457 14.8334 9.49854 14.8334 8.03809 14.8334H7.96182C6.50136 14.8334 5.35425 14.8334 4.45865 14.713C3.54088 14.5896 2.81271 14.3316 2.24057 13.7595C1.66845 13.1874 1.41041 12.4592 1.28702 11.5414C1.16661 10.6458 1.16662 9.49866 1.16663 8.0382V7.96197C1.16662 6.5015 1.16661 5.35438 1.28702 4.45877C1.41041 3.54099 1.66843 2.81282 2.24056 2.24069C2.8127 1.66856 3.54087 1.41053 4.45864 1.28714C5.35425 1.16673 6.50138 1.16674 7.96184 1.16675ZM4.59189 2.27823C3.78501 2.38671 3.30304 2.59243 2.94767 2.94779C2.59231 3.30316 2.38659 3.78513 2.2781 4.59201C2.16769 5.41328 2.16663 6.49317 2.16663 8.00008C2.16663 8.29854 2.16667 8.58024 2.16759 8.8465C2.33579 8.83863 2.50426 8.83484 2.67282 8.83515C4.67521 8.79695 6.63582 9.37616 8.2054 10.4806C8.49572 10.6848 8.76939 10.9048 9.02507 11.1388C10.0475 10.4994 11.1407 10.1626 12.2582 10.1668C12.7793 10.1664 13.2966 10.241 13.8047 10.3875C13.8329 9.73384 13.8333 8.9522 13.8333 8.00008C13.8333 6.49317 13.8322 5.41328 13.7218 4.59201C13.6133 3.78513 13.4076 3.30315 13.0523 2.94779C12.6969 2.59243 12.2149 2.38671 11.408 2.27823C10.5867 2.16781 9.50686 2.16675 7.99996 2.16675C6.49304 2.16675 5.41316 2.16781 4.59189 2.27823ZM13.7217 11.4087C13.2361 11.2466 12.7465 11.1663 12.258 11.1668L12.2555 11.1668C11.4119 11.1635 10.5619 11.3986 9.73457 11.8785C10.2195 12.4562 10.6091 13.0947 10.8884 13.7755C11.0726 13.7614 11.2454 13.7438 11.408 13.7219C12.2149 13.6135 12.6969 13.4078 13.0523 13.0524C13.4075 12.6971 13.6132 12.2152 13.7217 11.4087ZM2.2781 11.4081C2.21919 10.97 2.19141 10.4582 2.17831 9.84717C2.34391 9.83877 2.50986 9.83477 2.67595 9.83516L2.68695 9.83506C4.49057 9.79963 6.24244 10.3221 7.62994 11.2984C8.59986 11.9808 9.34443 12.8511 9.81457 13.8224C9.28818 13.8332 8.68867 13.8334 7.99996 13.8334C6.49305 13.8334 5.41316 13.8324 4.59189 13.7219C3.785 13.6135 3.30303 13.4077 2.94767 13.0524C2.59231 12.697 2.38659 12.215 2.2781 11.4081Z" fill="#3574F0"/>
<path fill-rule="evenodd" clip-rule="evenodd" d="M2.94767 2.94779C3.30304 2.59243 3.78501 2.38671 4.59189 2.27823C5.41316 2.16781 6.49304 2.16675 7.99996 2.16675C9.50686 2.16675 10.5867 2.16781 11.408 2.27823C12.2149 2.38671 12.6969 2.59243 13.0523 2.94779C13.4076 3.30315 13.6133 3.78512 13.7218 4.59201C13.8322 5.41328 13.8333 6.49317 13.8333 8.00008C13.8333 8.9522 13.8329 9.73384 13.8047 10.3875C13.2966 10.241 12.7793 10.1664 12.2582 10.1668C11.1407 10.1626 10.0475 10.4994 9.02507 11.1388C8.76939 10.9048 8.49572 10.6848 8.2054 10.4806C6.63582 9.37616 4.67521 8.79695 2.67282 8.83515C2.50426 8.83484 2.33579 8.83863 2.16759 8.8465C2.16667 8.58024 2.16663 8.29854 2.16663 8.00008C2.16663 6.49317 2.16769 5.41328 2.2781 4.59201C2.38659 3.78513 2.59231 3.30316 2.94767 2.94779ZM11 3.50006C10.1716 3.50006 9.5 4.17163 9.5 5.00006C9.5 5.82849 10.1716 6.50006 11 6.50006C11.8284 6.50006 12.5 5.82849 12.5 5.00006C12.5 4.17163 11.8284 3.50006 11 3.50006Z" fill="#E7EFFD"/>
<path d="M2.17831 9.84717C2.19141 10.4582 2.21919 10.97 2.2781 11.4081C2.38659 12.215 2.59231 12.697 2.94767 13.0524C3.30303 13.4077 3.785 13.6135 4.59189 13.7219C5.41316 13.8324 6.49304 13.8334 7.99996 13.8334C8.68867 13.8334 9.28818 13.8332 9.81457 13.8224C9.34442 12.8511 8.59986 11.9808 7.62994 11.2984C6.24244 10.3221 4.49057 9.79963 2.68695 9.83506L2.67595 9.83516C2.50986 9.83477 2.3439 9.83877 2.17831 9.84717Z" fill="#E7EFFD"/>
<path d="M13.7217 11.4087C13.2361 11.2466 12.7465 11.1663 12.258 11.1668L12.2555 11.1668C11.4119 11.1635 10.5619 11.3986 9.73457 11.8785C10.2195 12.4562 10.6091 13.0947 10.8884 13.7755C11.0726 13.7614 11.2454 13.7438 11.408 13.7219C12.2149 13.6135 12.6969 13.4078 13.0523 13.0524C13.4075 12.6971 13.6132 12.2152 13.7217 11.4087Z" fill="#E7EFFD"/>
<path d="M11 4.50006C10.7239 4.50006 10.5 4.72392 10.5 5.00006C10.5 5.2762 10.7239 5.50006 11 5.50006C11.2761 5.50006 11.5 5.2762 11.5 5.00006C11.5 4.72392 11.2761 4.50006 11 4.50006Z" fill="#E7EFFD"/>
</svg>
