<svg width="16" height="16" viewBox="0 0 16 16" fill="none" xmlns="http://www.w3.org/2000/svg">
<path fill-rule="evenodd" clip-rule="evenodd" d="M10.98 6.99195C9.484 6.99195 8.5 5.73595 8.5 4.11195V4.09595C8.5 2.47195 9.508 1.19995 10.996 1.19995C12.476 1.19995 13.476 2.45595 13.476 4.07995V4.09595C13.476 5.71995 12.476 6.99195 10.98 6.99195ZM11.002 5.87995C11.746 5.87995 12.218 5.12795 12.218 4.11195V4.09595C12.218 3.07995 11.722 2.31195 10.986 2.31195C10.25 2.31195 9.76999 3.05595 9.76999 4.07995V4.09595C9.76999 5.11995 10.258 5.87995 11.002 5.87995Z" fill="#CED0D6"/>
<path fill-rule="evenodd" clip-rule="evenodd" d="M4.98 14.792C3.484 14.792 2.5 13.536 2.5 11.912V11.896C2.5 10.272 3.508 9 4.996 9C6.476 9 7.476 10.256 7.476 11.88V11.896C7.476 13.52 6.476 14.792 4.98 14.792ZM5.00199 13.68C5.74599 13.68 6.21799 12.928 6.21799 11.912V11.896C6.21799 10.88 5.72199 10.112 4.98599 10.112C4.24999 10.112 3.76999 10.856 3.76999 11.88V11.896C3.76999 12.92 4.25799 13.68 5.00199 13.68Z" fill="#CED0D6"/>
<path d="M6.90999 6.09194H5.85798V1.35132H5.01798L3.08252 1.97237L3.33852 2.88581L4.64198 2.50477V6.09194H3.40999V6.99194H6.90999V6.09194Z" fill="#CED0D6"/>
<path d="M11.862 13.7406H12.914V14.6406H9.41401V13.7406H10.646V10.1534L9.34255 10.5345L9.08655 9.62105L11.022 9H11.862V13.7406Z" fill="#CED0D6"/>
</svg>
