<svg width="16" height="16" viewBox="0 0 16 16" fill="none" xmlns="http://www.w3.org/2000/svg">
<path d="M13.5 13H2.5C2.22386 13 2 13.2239 2 13.5C2 13.7761 2.22386 14 2.5 14H13.5C13.7761 14 14 13.7761 14 13.5C14 13.2239 13.7761 13 13.5 13Z" fill="#C77D55"/>
<path fill-rule="evenodd" clip-rule="evenodd" d="M13 6.57143C13 7.70222 12.9991 8.60277 12.904 9.30979C12.805 10.046 12.5958 10.6468 12.1214 11.1213C11.6468 11.5958 11.046 11.805 10.3098 11.904C9.59569 12 8.68416 12 7.53739 12H7.46261C6.31583 12 5.4043 12 4.6902 11.904C3.95397 11.805 3.35319 11.5958 2.87869 11.1213C2.40419 10.6468 2.19497 10.046 2.09599 9.30979C1.99998 8.59569 1.99999 7.68417 2 6.53741V3.49969C2 2.67106 2.67178 2 3.5 2H11.5C11.5005 2 11.5011 2 11.5016 2L14.5 2C15.0522 2 15.5 2.44769 15.5 3V4.18121C15.5 4.98126 15.0232 5.70434 14.2879 6.0195L13 6.57143ZM3 3.49969C3 3.22375 3.22366 3 3.5 3H11.5C11.776 3 11.9995 3.22322 12 3.4987C12 3.49903 12 3.49936 12 3.49969V6.5C12 6.51752 12 6.53497 12 6.55235C12 7.7174 11.9977 8.54622 11.9129 9.17655C11.8289 9.8019 11.672 10.1565 11.4142 10.4142C11.1565 10.672 10.8019 10.8289 10.1766 10.9129C9.53682 10.9989 8.69263 11 7.5 11C6.30736 11 5.46317 10.9989 4.82344 10.9129C4.1981 10.8289 3.84351 10.672 3.58578 10.4142C3.32805 10.1565 3.17114 9.80188 3.08707 9.17655C3.00106 8.53682 3 7.69263 3 6.5V3.49969ZM13 5.48347L13.8939 5.10036C14.2616 4.94278 14.5 4.58123 14.5 4.18121V3H13V3.49798C13 3.49855 13 3.49912 13 3.49969L13 5.48347Z" fill="#C77D55"/>
<path fill-rule="evenodd" clip-rule="evenodd" d="M3 3.49969C3 3.22375 3.22366 3 3.5 3H11.5C11.776 3 11.9995 3.22322 12 3.4987L12 3.49969V6.5C12 6.51752 12 6.53497 12 6.55235C12 7.7174 11.9977 8.54622 11.9129 9.17655C11.8289 9.8019 11.672 10.1565 11.4142 10.4142C11.1565 10.672 10.8019 10.8289 10.1765 10.9129C9.53682 10.9989 8.69263 11 7.5 11C6.30735 11 5.46317 10.9989 4.82344 10.9129C4.1981 10.8289 3.84351 10.672 3.58578 10.4142C3.32805 10.1565 3.17114 9.80188 3.08707 9.17655C3.00106 8.53682 3 7.69263 3 6.5V3.49969Z" fill="#45322B"/>
</svg>
