<svg width="16" height="16" viewBox="0 0 16 16" fill="none" xmlns="http://www.w3.org/2000/svg">
<path d="M2.09595 12.9999V11.9794H2.61595C2.83695 11.9794 3.00161 11.8841 3.10995 11.6934C3.21828 11.5027 3.27245 11.2102 3.27245 10.8159V3.8999H4.35795V10.8809C4.35795 11.3619 4.29728 11.7606 4.17595 12.0769C4.05461 12.3889 3.87045 12.6207 3.62345 12.7724C3.37645 12.9241 3.06228 12.9999 2.68095 12.9999H2.09595Z" fill="#E08855"/>
<path d="M5.66675 12.9999V3.8999H8.76075V4.9269H6.75225V8.0469H8.50075V9.0739H6.75225V12.9999H5.66675Z" fill="#E08855"/>
<path d="M12.3751 12.9999L11.2701 8.8399H12.3881L13.5516 12.9999H12.3751ZM9.71655 12.9999V3.8999H11.2766C11.7749 3.8999 12.1801 3.99524 12.4921 4.1859C12.8084 4.37657 13.0403 4.6669 13.1876 5.0569C13.3393 5.4469 13.4151 5.9409 13.4151 6.5389C13.4151 7.14557 13.3393 7.64607 13.1876 8.0404C13.0359 8.4304 12.7976 8.72074 12.4726 8.9114C12.1519 9.10207 11.7359 9.1974 11.2246 9.1974H10.8021V12.9999H9.71655ZM11.2766 8.1834C11.6276 8.1834 11.8789 8.0534 12.0306 7.7934C12.1823 7.52907 12.2581 7.1109 12.2581 6.5389C12.2581 5.9799 12.1823 5.5704 12.0306 5.3104C11.8789 5.04607 11.6276 4.9139 11.2766 4.9139H10.8021V8.1834H11.2766Z" fill="#E08855"/>
</svg>
