<svg width="16" height="16" viewBox="0 0 16 16" fill="none" xmlns="http://www.w3.org/2000/svg">
<path d="M2.98755 9.77751C2.99755 9.39251 2.87005 9.08501 2.60505 8.85501C2.34005 8.62501 1.98255 8.51001 1.53255 8.51001H1.5C1.22386 8.51001 1 8.28615 1 8.01001V7.93001C1 7.65387 1.22386 7.43001 1.5 7.43001H1.53255C1.98255 7.43001 2.34005 7.31501 2.60505 7.08501C2.87005 6.85501 2.99755 6.54751 2.98755 6.16251L2.95755 4.58C2.94755 4.06 3.05505 3.605 3.28005 3.215C3.51005 2.825 3.83755 2.525 4.26255 2.315C4.68755 2.105 5.18755 2 5.76255 2H6C6.27614 2 6.5 2.22636 6.5 2.5025V2.5025C6.5 2.77864 6.27614 3.005 6 3.005H5.77005C5.25005 3.005 4.83755 3.15 4.53255 3.44C4.23255 3.725 4.08505 4.1125 4.09005 4.6025L4.12005 6.17001C4.13005 6.68001 3.99255 7.09751 3.70755 7.42251C3.42255 7.74251 3.03755 7.92001 2.55255 7.95501C3.03755 8.04501 3.42255 8.25501 3.70755 8.58501C3.99255 8.91001 4.13005 9.30501 4.12005 9.77001L4.09005 11.5475C4.08005 11.9875 4.21255 12.3375 4.48755 12.5975C4.76755 12.8625 5.14505 12.995 5.62005 12.995H6C6.27614 12.995 6.5 13.2214 6.5 13.4975V13.4975C6.5 13.7736 6.27614 14 6 14H5.61255C5.07755 14 4.60755 13.9 4.20255 13.7C3.80255 13.505 3.49255 13.2225 3.27255 12.8525C3.05755 12.4875 2.95255 12.06 2.95755 11.57L2.98755 9.77751Z" fill="#834DF0"/>
<path d="M13.5388 7.19146C13.4889 7.15924 13.4416 7.12376 13.397 7.08501C13.132 6.85501 13.0045 6.54751 13.0145 6.16251L13.0445 4.58C13.0545 4.06 12.9445 3.605 12.7145 3.215C12.4895 2.825 12.1645 2.525 11.7395 2.315C11.3145 2.105 10.8145 2 10.2395 2H10C9.72386 2 9.5 2.22636 9.5 2.5025C9.5 2.77864 9.72386 3.005 10 3.005H10.232C10.752 3.005 11.162 3.15 11.462 3.44C11.767 3.725 11.917 4.1125 11.912 4.6025L11.882 6.17001C11.872 6.68001 12.0095 7.09751 12.2945 7.42251C12.4155 7.55839 12.5546 7.66857 12.7116 7.75307C12.945 7.51422 13.2258 7.32194 13.5388 7.19146Z" fill="#834DF0"/>
<mask id="mask0_3846_129953" style="mask-type:luminance" maskUnits="userSpaceOnUse" x="8" y="8" width="8" height="8">
<path d="M16 8H8V16H16V8Z" fill="white"/>
</mask>
<g mask="url(#mask0_3846_129953)">
<path d="M16 14.5C16 15.3284 15.3284 16 14.5 16C13.6716 16 13 15.3284 13 14.5C13 13.6716 13.6716 13 14.5 13C15.3284 13 16 13.6716 16 14.5Z" fill="#EBECF0"/>
<path d="M11 14.5C11 15.3284 10.3284 16 9.5 16C8.67157 16 8 15.3284 8 14.5C8 13.6716 8.67157 13 9.5 13C10.3284 13 11 13.6716 11 14.5Z" fill="#EBECF0"/>
<path d="M11 9.5C11 10.3284 10.3284 11 9.5 11C8.67157 11 8 10.3284 8 9.5C8 8.67157 8.67157 8 9.5 8C10.3284 8 11 8.67157 11 9.5Z" fill="#EBECF0"/>
<path d="M16 9.5C16 10.3284 15.3284 11 14.5 11C13.6716 11 13 10.3284 13 9.5C13 8.67157 13.6716 8 14.5 8C15.3284 8 16 8.67157 16 9.5Z" fill="#EBECF0"/>
<path fill-rule="evenodd" clip-rule="evenodd" d="M10.9146 9C10.7087 8.4174 10.1531 8 9.5 8C8.67157 8 8 8.67157 8 9.5C8 10.1531 8.4174 10.7087 9 10.9146V13.0854C8.4174 13.2913 8 13.8469 8 14.5C8 15.3284 8.67157 16 9.5 16C10.1531 16 10.7087 15.5826 10.9146 15H13.0854C13.2913 15.5826 13.8469 16 14.5 16C15.3284 16 16 15.3284 16 14.5C16 13.8469 15.5826 13.2913 15 13.0854V10.9146C15.5826 10.7087 16 10.1531 16 9.5C16 8.67157 15.3284 8 14.5 8C13.8469 8 13.2913 8.4174 13.0854 9H10.9146ZM10 9.5C10 9.77614 9.77614 10 9.5 10C9.22386 10 9 9.77614 9 9.5C9 9.22386 9.22386 9 9.5 9C9.77614 9 10 9.22386 10 9.5ZM10 10.9146V13.0854C10.4262 13.236 10.764 13.5738 10.9146 14H13.0854C13.236 13.5738 13.5738 13.236 14 13.0854V10.9146C13.5738 10.764 13.236 10.4262 13.0854 10H10.9146C10.764 10.4262 10.4262 10.764 10 10.9146ZM9.5 15C9.77614 15 10 14.7761 10 14.5C10 14.2239 9.77614 14 9.5 14C9.22386 14 9 14.2239 9 14.5C9 14.7761 9.22386 15 9.5 15ZM14.5 15C14.7761 15 15 14.7761 15 14.5C15 14.2239 14.7761 14 14.5 14C14.2239 14 14 14.2239 14 14.5C14 14.7761 14.2239 15 14.5 15ZM14.5 10C14.7761 10 15 9.77614 15 9.5C15 9.22386 14.7761 9 14.5 9C14.2239 9 14 9.22386 14 9.5C14 9.77614 14.2239 10 14.5 10Z" fill="#6C707E"/>
</g>
</svg>
