<svg width="16" height="16" viewBox="0 0 16 16" fill="none" xmlns="http://www.w3.org/2000/svg">
<path d="M2.14038 12.9999V11.9794H2.66038C2.88138 11.9794 3.04605 11.8841 3.15438 11.6934C3.26271 11.5027 3.31688 11.2102 3.31688 10.8159V3.8999H4.40238V10.8809C4.40238 11.3619 4.34171 11.7606 4.22038 12.0769C4.09905 12.3889 3.91488 12.6207 3.66788 12.7724C3.42088 12.9241 3.10671 12.9999 2.72538 12.9999H2.14038Z" fill="#E66D17"/>
<path d="M7.1997 13.156C6.76203 13.156 6.40453 13.0607 6.1272 12.87C5.84986 12.6793 5.64403 12.3847 5.5097 11.986C5.3797 11.583 5.3147 11.0652 5.3147 10.4325H6.4327C6.4327 10.8355 6.4587 11.167 6.5107 11.427C6.56703 11.6827 6.65153 11.8712 6.7642 11.9925C6.8812 12.1138 7.0307 12.1745 7.2127 12.1745C7.38603 12.1745 7.5247 12.1182 7.6287 12.0055C7.73703 11.8885 7.8172 11.7108 7.8692 11.4725C7.9212 11.2298 7.9472 10.9178 7.9472 10.5365C7.9472 10.1248 7.89303 9.79768 7.7847 9.55502C7.6807 9.31235 7.51603 9.11952 7.2907 8.97652L6.7122 8.62552C6.42186 8.44352 6.1857 8.23985 6.0037 8.01452C5.8217 7.78918 5.68736 7.53352 5.6007 7.24752C5.51403 6.95718 5.4707 6.62352 5.4707 6.24652C5.4707 5.66152 5.5292 5.18485 5.6462 4.81652C5.76753 4.44818 5.9517 4.17735 6.1987 4.00402C6.4457 3.83068 6.76636 3.74402 7.1607 3.74402C7.5637 3.74402 7.89086 3.83285 8.1422 4.01052C8.39353 4.18385 8.57986 4.45685 8.7012 4.82952C8.82253 5.19785 8.8832 5.67668 8.8832 6.26602H7.7717C7.7717 5.90635 7.75003 5.61385 7.7067 5.38852C7.66336 5.16318 7.59836 4.99635 7.5117 4.88802C7.42936 4.77968 7.3167 4.72552 7.1737 4.72552C6.9657 4.72552 6.81403 4.84685 6.7187 5.08952C6.62336 5.32785 6.5757 5.71135 6.5757 6.24002C6.5757 6.58235 6.62553 6.86402 6.7252 7.08502C6.8292 7.30168 6.9917 7.47718 7.2127 7.61152L7.8497 8.00152C8.1357 8.17918 8.36536 8.38502 8.5387 8.61902C8.71636 8.84868 8.84636 9.11952 8.9287 9.43152C9.01103 9.74352 9.0522 10.1075 9.0522 10.5235C9.0522 11.1345 8.9872 11.635 8.8572 12.025C8.7272 12.4107 8.5257 12.6967 8.2527 12.883C7.98403 13.065 7.63303 13.156 7.1997 13.156Z" fill="#E66D17"/>
<path d="M9.97681 12.9999V3.8999H11.5368C12.0352 3.8999 12.4403 3.99523 12.7523 4.1859C13.0687 4.37656 13.3005 4.6669 13.4478 5.0569C13.5995 5.4469 13.6753 5.9409 13.6753 6.5389C13.6753 7.14556 13.5995 7.64606 13.4478 8.0404C13.2962 8.4304 13.0578 8.72073 12.7328 8.9114C12.4122 9.10206 11.9962 9.1974 11.4848 9.1974H11.0623V12.9999H9.97681ZM11.5368 8.1834C11.8878 8.1834 12.1392 8.0534 12.2908 7.7934C12.4425 7.52906 12.5183 7.1109 12.5183 6.5389C12.5183 5.9799 12.4425 5.5704 12.2908 5.3104C12.1392 5.04606 11.8878 4.9139 11.5368 4.9139H11.0623V8.1834H11.5368Z" fill="#E66D17"/>
</svg>
