<svg width="16" height="16" viewBox="0 0 16 16" fill="none" xmlns="http://www.w3.org/2000/svg">
<path d="M2.03882 13V11.9795H2.55882C2.77982 11.9795 2.94449 11.8842 3.05282 11.6935C3.16115 11.5029 3.21532 11.2104 3.21532 10.816V3.90002H4.30082V10.881C4.30082 11.362 4.24015 11.7607 4.11882 12.077C3.99749 12.389 3.81332 12.6209 3.56632 12.7725C3.31932 12.9242 3.00515 13 2.62382 13H2.03882Z" fill="#E08855"/>
<path d="M7.09813 13.156C6.66047 13.156 6.30297 13.0607 6.02563 12.87C5.7483 12.6794 5.54247 12.3847 5.40813 11.986C5.27813 11.583 5.21313 11.0652 5.21313 10.4325H6.33113C6.33113 10.8355 6.35713 11.167 6.40913 11.427C6.46547 11.6827 6.54997 11.8712 6.66263 11.9925C6.77963 12.1139 6.92913 12.1745 7.11113 12.1745C7.28447 12.1745 7.42313 12.1182 7.52713 12.0055C7.63547 11.8885 7.71563 11.7109 7.76763 11.4725C7.81963 11.2299 7.84563 10.9179 7.84563 10.5365C7.84563 10.1249 7.79147 9.79768 7.68313 9.55502C7.57913 9.31235 7.41447 9.11952 7.18913 8.97652L6.61063 8.62552C6.3203 8.44352 6.08413 8.23985 5.90213 8.01452C5.72013 7.78918 5.5858 7.53352 5.49913 7.24752C5.41247 6.95718 5.36913 6.62352 5.36913 6.24652C5.36913 5.66152 5.42763 5.18485 5.54463 4.81652C5.66597 4.44818 5.85013 4.17735 6.09713 4.00402C6.34413 3.83069 6.6648 3.74402 7.05913 3.74402C7.46213 3.74402 7.7893 3.83285 8.04064 4.01052C8.29197 4.18385 8.4783 4.45685 8.59964 4.82952C8.72097 5.19785 8.78164 5.67668 8.78164 6.26602H7.67013C7.67013 5.90635 7.64847 5.61385 7.60513 5.38852C7.5618 5.16319 7.4968 4.99635 7.41013 4.88802C7.3278 4.77969 7.21513 4.72552 7.07213 4.72552C6.86413 4.72552 6.71247 4.84685 6.61713 5.08952C6.5218 5.32785 6.47413 5.71135 6.47413 6.24002C6.47413 6.58235 6.52397 6.86402 6.62363 7.08502C6.72763 7.30169 6.89013 7.47719 7.11113 7.61152L7.74813 8.00152C8.03413 8.17918 8.2638 8.38502 8.43713 8.61902C8.6148 8.84868 8.7448 9.11952 8.82714 9.43152C8.90947 9.74352 8.95063 10.1075 8.95063 10.5235C8.95063 11.1345 8.88563 11.635 8.75563 12.025C8.62563 12.4107 8.42413 12.6967 8.15113 12.883C7.88247 13.065 7.53147 13.156 7.09813 13.156Z" fill="#E08855"/>
<path d="M12.7043 13L11.3328 8.84002L11.0338 8.54752L9.41528 3.90002H10.5203L11.5668 7.01352L11.8918 7.37102L13.8028 13H12.7043ZM9.28528 13L11.2158 7.35152L11.5083 7.08502L12.5873 3.90002H13.6728L12.0218 8.61252L11.7228 8.90502L10.3708 13H9.28528Z" fill="#E08855"/>
</svg>
