<svg width="16" height="16" viewBox="0 0 16 16" fill="none" xmlns="http://www.w3.org/2000/svg">
<path d="M7.5 2.00014L6.7917 2.00022C5.65349 2.0017 4.81127 2.01319 4.15334 2.10164C3.42165 2.20002 3.00008 2.38451 2.69229 2.69229C2.3845 3.00008 2.20002 3.42165 2.10164 4.15334C2.00116 4.90074 2 5.88595 2 7.27273V7.5H7.5V2.00014Z" fill="#6C707E"/>
<path d="M2 8.5V8.72727C2 10.114 2.00116 11.0993 2.10164 11.8467C2.16304 12.3034 2.258 12.6392 2.39554 12.902C2.47836 13.0603 2.57662 13.192 2.69229 13.3077C3.00009 13.6155 3.42165 13.8 4.15335 13.8984C4.90074 13.9988 5.88595 14 7.27273 14H7.5V8.5H2Z" fill="#6C707E"/>
<path d="M8.5 14H8.72727C10.114 14 11.0993 13.9988 11.8467 13.8984C12.5784 13.8 12.9999 13.6155 13.3077 13.3077C13.3914 13.224 13.466 13.1318 13.5323 13.0273C13.7095 12.7476 13.8267 12.3793 13.8984 11.8467C13.9988 11.0993 14 10.114 14 8.72727V8.5H8.5V14Z" fill="#6C707E"/>
<path d="M14 7.5V7.27273C14 5.88595 13.9988 4.90074 13.8984 4.15335C13.8 3.42165 13.6155 3.00007 13.3077 2.69228C12.9999 2.3845 12.5784 2.20002 11.8467 2.10164C11.0993 2.00116 10.114 2 8.72727 2L8.5 2.00003V7.5H14Z" fill="#6C707E"/>
</svg>
