<svg width="16" height="16" viewBox="0 0 16 16" fill="none" xmlns="http://www.w3.org/2000/svg">
<path fill-rule="evenodd" clip-rule="evenodd" d="M7.99998 1C7.72383 1 7.49998 1.22386 7.49998 1.5V5.5H3.5C3.22386 5.5 3 5.72386 3 6C3 6.27614 3.22386 6.5 3.5 6.5H7.49998V10.5C7.49998 10.7761 7.72383 11 7.99998 11C8.27612 11 8.49998 10.7761 8.49998 10.5V6.5H12.5C12.7761 6.5 13 6.27614 13 6C13 5.72386 12.7761 5.5 12.5 5.5H8.49998V1.5C8.49998 1.22386 8.27612 1 7.99998 1Z" fill="#6C707E"/>
<path d="M12.5 14C12.7761 14 13 13.7761 13 13.5C13 13.2239 12.7761 13 12.5 13H3.5C3.22386 13 3 13.2239 3 13.5C3 13.7761 3.22386 14 3.5 14H12.5Z" fill="#6C707E"/>
</svg>
