<svg width="16" height="16" viewBox="0 0 16 16" fill="none" xmlns="http://www.w3.org/2000/svg">
<path d="M8.00004 9.1472V13.3333H5.66671L6.66671 12L6.00004 9C4.00004 9 3.00004 6.66667 3.00004 5.33333H2.00004C1.63185 5.33333 1.33337 5.03485 1.33337 4.66667C1.33337 3.93029 1.93033 3.33333 2.66671 3.33333H3.66671L3.84548 3.06517C4.11045 2.66773 4.65489 2.57447 5.03702 2.86107C5.3903 3.12603 5.47505 3.62081 5.2301 3.98825L5.00004 4.33333C4.88893 4.77778 4.86671 5.73333 5.66671 6C6.11115 6.11111 7.06671 6 7.33337 4.66667C7.66671 3.66667 8.33337 2 9.66671 2C10.7438 2 10.9508 3.52265 12.2206 4.63507C12.8224 5.16227 13.3334 5.85207 13.3334 6.65213V13.3333H11.3334L12 12L11.6667 9.48567C10.529 9.83693 9.02851 9.75927 8.00004 9.1472ZM12.8658 5.33333C12.8658 5.33333 14.6667 5.66669 14.6667 8Z" fill="#548AF7"/>
</svg>
