<svg width="16" height="16" viewBox="0 0 16 16" fill="none" xmlns="http://www.w3.org/2000/svg">
<path fill-rule="evenodd" clip-rule="evenodd" d="M8.013 5.16669C6.44819 5.16669 5.17969 6.43522 5.17969 8.00002C5.17969 9.56482 6.44819 10.8334 8.013 10.8334C9.57781 10.8334 10.8463 9.56483 10.8463 8.00002C10.8463 6.43521 9.57781 5.16669 8.013 5.16669ZM6.17969 8.00002C6.17969 6.98749 7.00048 6.16669 8.013 6.16669C9.02553 6.16669 9.84633 6.9875 9.84633 8.00002C9.84633 9.01254 9.02553 9.83335 8.013 9.83335C7.00048 9.83335 6.17969 9.01255 6.17969 8.00002Z" fill="#CED0D6"/>
<path fill-rule="evenodd" clip-rule="evenodd" d="M9.01276 0.857439C9.19802 0.878631 9.39287 0.927643 9.57467 1.05895C9.75638 1.19018 9.86431 1.35973 9.94284 1.52885L10.3687 2.7449C10.5232 3.13422 11.0213 3.40691 11.4315 3.31781C11.5632 3.2807 11.6955 3.24039 11.8283 3.19992C12.1669 3.09672 12.5089 2.99251 12.8544 2.93765C13.0503 2.90656 13.2645 2.90259 13.486 2.99268C13.7075 3.08276 13.8582 3.23511 13.9769 3.39397C14.3457 3.88781 14.6868 4.48242 14.9302 5.04456C15.0048 5.2169 15.0598 5.41142 15.0363 5.63574C15.0127 5.86011 14.9184 6.0391 14.8096 6.19214C14.5901 6.50079 14.3256 6.7833 14.0636 7.06313C13.9561 7.17797 13.849 7.29236 13.7457 7.40792C13.6614 7.52213 13.5733 7.7703 13.5733 8.00506C13.5733 8.23999 13.6613 8.48803 13.7456 8.60227C13.8491 8.71791 13.9563 8.83239 14.0638 8.94732C14.3257 9.2271 14.5901 9.50956 14.8096 9.81808C14.9184 9.97113 15.0127 10.15 15.0363 10.3744C15.0598 10.5987 15.0048 10.7933 14.9302 10.9657C14.8069 11.2504 14.6439 11.5214 14.4824 11.7899C14.4217 11.8908 14.3613 11.9913 14.3032 12.0921C14.2894 12.116 14.2756 12.1402 14.2617 12.1646C14.069 12.5017 13.8614 12.8649 13.4861 13.0175C13.2646 13.1076 13.0503 13.1036 12.8544 13.0726C12.509 13.0177 12.167 12.9135 11.8284 12.8103C11.6956 12.7698 11.5633 12.7295 11.4315 12.6924C11.0204 12.6031 10.5236 12.8748 10.3688 13.2653C10.3314 13.377 10.2958 13.4904 10.2601 13.6042C10.1669 13.9016 10.0728 14.2016 9.94284 14.4814C9.8643 14.6506 9.75643 14.8201 9.57471 14.9513C9.3929 15.0826 9.19801 15.1316 9.01274 15.1528C8.38742 15.2243 7.6923 15.2239 7.07082 15.1528C6.88555 15.1316 6.69072 15.0826 6.5089 14.9514C6.32721 14.8201 6.21923 14.6505 6.1407 14.4814C6.01083 14.2017 5.91682 13.9019 5.8236 13.6047C5.78787 13.4908 5.75226 13.3772 5.71478 13.2653C5.56037 12.876 5.06221 12.6032 4.65206 12.6924C4.52027 12.7295 4.38798 12.7698 4.25517 12.8103C3.91655 12.9135 3.57459 13.0177 3.22911 13.0726C3.03328 13.1036 2.81907 13.1076 2.59758 13.0175C2.37612 12.9275 2.2253 12.7751 2.10668 12.6162L1.15338 10.9657C1.07875 10.7934 1.0237 10.5988 1.04727 10.3744C1.07084 10.15 1.16513 9.97114 1.27398 9.81808C1.49336 9.5096 1.75776 9.22714 2.01965 8.94737C2.12726 8.83242 2.23444 8.71792 2.3379 8.60226C2.42218 8.48806 2.51023 8.24004 2.51023 8.00506C2.51023 7.77021 2.42214 7.52207 2.3379 7.40795C2.23442 7.29227 2.12723 7.17776 2.0196 7.06279C1.75773 6.78304 1.49334 6.50061 1.27398 6.19215C1.16514 6.0391 1.07084 5.86022 1.04727 5.63582C1.02369 5.41144 1.07875 5.21688 1.15337 5.04455C1.39655 4.48297 1.73828 3.88722 2.10669 3.39396C2.22534 3.2351 2.37605 3.08276 2.5975 2.99269C2.81904 2.90259 3.03327 2.90656 3.22911 2.93765C3.57459 2.9925 3.91663 3.09673 4.25529 3.19994C4.38807 3.2404 4.52034 3.2807 4.65208 3.31781C4.93548 3.37937 5.16239 3.26987 5.39858 3.1336C5.72825 2.91667 5.84685 2.48602 5.95934 2.0776C6.01356 1.88071 6.06636 1.68899 6.1407 1.52887C6.21923 1.35974 6.32712 1.1902 6.50884 1.05895C6.69066 0.927653 6.88552 0.878635 7.07081 0.857439C7.69227 0.786348 8.38744 0.785907 9.01276 0.857439ZM3.51023 8.00506C3.51023 7.58016 3.36494 7.09453 3.1153 6.77852C2.97191 6.597 2.81241 6.43007 2.65287 6.26308C2.45471 6.05569 2.25648 5.84821 2.08891 5.61259C2.0401 5.54395 2.03744 5.51948 2.07103 5.44191C2.28382 4.95051 2.58553 4.42397 2.90789 3.99235C2.9611 3.92111 2.98456 3.91135 3.0723 3.92528C3.38962 3.97566 3.70504 4.07331 4.017 4.16988C4.15103 4.21137 4.28442 4.25266 4.41705 4.28993C5.31054 4.49597 6.32508 3.94637 6.65195 3.09415C6.68978 2.9814 6.72527 2.8664 6.76092 2.75091C6.84484 2.47902 6.9296 2.20439 7.04772 1.94998C7.08289 1.87423 7.0998 1.86064 7.18446 1.85096C7.73099 1.78844 8.34931 1.78807 8.89911 1.85096C8.98217 1.86046 8.99994 1.87267 9.03585 1.95C9.154 2.20445 9.23875 2.47908 9.32267 2.75102C9.35829 2.86647 9.39377 2.98143 9.43159 3.09417C9.61869 3.58191 9.98435 3.88329 10.42 4.13451C10.8041 4.33191 11.2457 4.38698 11.6665 4.28993C11.8573 4.24594 12.0436 4.18745 12.2298 4.12898C12.4865 4.0484 12.7432 3.96784 13.0112 3.92528C13.0991 3.91133 13.1225 3.92112 13.1757 3.99234C13.498 4.42396 13.7997 4.95049 14.0125 5.4419C14.0452 5.5175 14.0429 5.54476 13.9946 5.6126C13.7889 5.90183 13.539 6.1669 13.2917 6.42927C13.182 6.54562 13.0728 6.66144 12.9682 6.7786C12.7187 7.09452 12.5733 7.58009 12.5733 8.00506C12.5733 8.43013 12.7186 8.91559 12.9682 9.23161C13.1116 9.41326 13.2712 9.58028 13.4308 9.74736C13.6289 9.95468 13.8271 10.1621 13.9946 10.3976C14.0448 10.4682 14.0462 10.4905 14.0125 10.5683C13.7981 11.0635 13.4966 11.5881 13.1756 12.0179C13.1215 12.0903 13.1022 12.0994 13.0112 12.0849C12.694 12.0346 12.3786 11.9369 12.0667 11.8403C11.9326 11.7988 11.7992 11.7575 11.6665 11.7203C10.7726 11.5141 9.75835 12.0638 9.43162 12.9162C9.3938 13.0289 9.35832 13.1438 9.32268 13.2593C9.23876 13.5312 9.15399 13.8059 9.03585 14.0603C9.00124 14.1348 8.98061 14.15 8.89913 14.1593C8.3493 14.2222 7.731 14.2218 7.18444 14.1593C7.10305 14.15 7.08188 14.1339 7.04772 14.0603C6.92959 13.8059 6.84484 13.5313 6.76092 13.2594C6.72528 13.1439 6.68978 13.0289 6.65194 12.9161C6.32021 12.0511 5.30246 11.516 4.40534 11.7229C4.27435 11.7598 4.14261 11.8007 4.01023 11.8418C3.70054 11.9378 3.3874 12.0349 3.07232 12.0849C2.98457 12.0989 2.96109 12.0891 2.90789 12.0178C2.58554 11.5862 2.28383 11.0597 2.07102 10.5683C2.03822 10.4926 2.04107 10.4649 2.08891 10.3976C2.2946 10.1084 2.54449 9.84335 2.79184 9.58099C2.90154 9.46463 3.01074 9.3488 3.11535 9.23163C3.36498 8.91558 3.51023 8.43009 3.51023 8.00506Z" fill="#CED0D6"/>
</svg>
