<svg width="16" height="16" viewBox="0 0 16 16" fill="none" xmlns="http://www.w3.org/2000/svg">
<path fill-rule="evenodd" clip-rule="evenodd" d="M4.4654 2.57667C3.77346 2.65163 3.33998 2.79506 3.00131 3.04112C2.76078 3.21588 2.54925 3.42741 2.37449 3.66794C2.12843 4.00661 1.98501 4.44009 1.91004 5.13203C1.83406 5.83333 1.83337 6.73895 1.83337 8C1.83337 9.26104 1.83406 10.1667 1.91004 10.868C1.98501 11.5599 2.12843 11.9934 2.37449 12.332C2.54924 12.5726 2.76078 12.7841 3.00131 12.9589C3.33998 13.2049 3.77346 13.3484 4.4654 13.4233C5.1667 13.4993 6.07233 13.5 7.33337 13.5H8.66671C9.92774 13.5 10.8334 13.4993 11.5347 13.4233C12.2266 13.3484 12.6601 13.2049 12.9987 12.9589C13.2393 12.7841 13.4508 12.5726 13.6256 12.3321C13.8716 11.9934 14.0151 11.5599 14.09 10.868C14.166 10.1667 14.1667 9.26104 14.1667 8C14.1667 6.73895 14.166 5.83333 14.09 5.13203C14.0151 4.44009 13.8716 4.00661 13.6256 3.66794C13.4508 3.42741 13.2393 3.21588 12.9988 3.04112C12.6601 2.79507 12.2266 2.65163 11.5347 2.57667C10.8334 2.50069 9.92774 2.5 8.66671 2.5H7.33337C6.07233 2.5 5.1667 2.50069 4.4654 2.57667ZM7.30321 1.5H8.69687C9.92122 1.49999 10.881 1.49999 11.6424 1.58249C12.4194 1.66667 13.049 1.84154 13.5865 2.23209C13.912 2.46853 14.1982 2.75472 14.4346 3.08015C14.8252 3.6177 15 4.24729 15.0842 5.02432C15.1667 5.78574 15.1667 6.74547 15.1667 7.96982V8.03018C15.1667 9.25452 15.1667 10.2143 15.0842 10.9757C15 11.7527 14.8252 12.3823 14.4346 12.9198C14.1982 13.2453 13.912 13.5315 13.5865 13.7679C13.049 14.1585 12.4194 14.3333 11.6424 14.4175C10.881 14.5 9.92123 14.5 8.69689 14.5H7.30319C6.07884 14.5 5.11911 14.5 4.35769 14.4175C3.58067 14.3333 2.95108 14.1585 2.41353 13.7679C2.08811 13.5315 1.80191 13.2453 1.56547 12.9198C1.17492 12.3823 1.00004 11.7527 0.915859 10.9757C0.833364 10.2142 0.833369 9.25451 0.833374 8.03017V7.96983C0.833369 6.74548 0.833364 5.78574 0.915859 5.02432C1.00004 4.24729 1.17492 3.61771 1.56547 3.08016C1.80191 2.75473 2.0881 2.46854 2.41353 2.2321C2.95107 1.84155 3.58067 1.66667 4.35769 1.58249C5.11912 1.49999 6.07885 1.49999 7.30321 1.5Z" fill="#6C707E"/>
<path fill-rule="evenodd" clip-rule="evenodd" d="M4.4654 2.57675C3.77346 2.65172 3.33998 2.79515 3.00131 3.0412C2.76078 3.21596 2.54925 3.42749 2.37449 3.66803C2.12843 4.0067 1.98501 4.44017 1.91004 5.13212C1.83406 5.83342 1.83337 6.73904 1.83337 8.00009C1.83337 9.26112 1.83406 10.1667 1.91004 10.868C1.98501 11.56 2.12843 11.9935 2.37449 12.3321C2.54924 12.5727 2.76078 12.7842 3.00131 12.959C3.33998 13.205 3.77346 13.3485 4.4654 13.4234C5.1667 13.4994 6.07233 13.5001 7.33337 13.5001H8.66671C9.92774 13.5001 10.8334 13.4994 11.5347 13.4234C12.2266 13.3485 12.6601 13.205 12.9987 12.959C13.2393 12.7842 13.4508 12.5727 13.6256 12.3321C13.8716 11.9935 14.0151 11.56 14.09 10.868C14.166 10.1667 14.1667 9.26112 14.1667 8.00009C14.1667 6.73904 14.166 5.83342 14.09 5.13212C14.0151 4.44017 13.8716 4.00669 13.6256 3.66802C13.4508 3.4275 13.2393 3.21597 12.9988 3.04121C12.6601 2.79516 12.2266 2.65172 11.5347 2.57675C10.8334 2.50077 9.92774 2.50009 8.66671 2.50009H7.33337C6.07233 2.50009 5.1667 2.50077 4.4654 2.57675Z" fill="#EBECF0"/>
<path d="M4 6L6 8L4 10" stroke="#6C707E" stroke-width="1.2"/>
<path d="M7.5 10.5H11.5" stroke="#6C707E" stroke-width="1.2"/>
</svg>
