<svg width="16" height="16" viewBox="0 0 16 16" fill="none" xmlns="http://www.w3.org/2000/svg">
<path d="M2.98755 9.77751C2.99755 9.39251 2.87005 9.08501 2.60505 8.85501C2.34005 8.62501 1.98255 8.51001 1.53255 8.51001H1.5C1.22386 8.51001 1 8.28615 1 8.01001V7.93001C1 7.65387 1.22386 7.43001 1.5 7.43001H1.53255C1.98255 7.43001 2.34005 7.31501 2.60505 7.08501C2.87005 6.85501 2.99755 6.54751 2.98755 6.16251L2.95755 4.58C2.94755 4.06 3.05505 3.605 3.28005 3.215C3.51005 2.825 3.83755 2.525 4.26255 2.315C4.68755 2.105 5.18755 2 5.76255 2H6C6.27614 2 6.5 2.22636 6.5 2.5025V2.5025C6.5 2.77864 6.27614 3.005 6 3.005H5.77005C5.25005 3.005 4.83755 3.15 4.53255 3.44C4.23255 3.725 4.08505 4.1125 4.09005 4.6025L4.12005 6.17001C4.13005 6.68001 3.99255 7.09751 3.70755 7.42251C3.42255 7.74251 3.03755 7.92001 2.55255 7.95501C3.03755 8.04501 3.42255 8.25501 3.70755 8.58501C3.99255 8.91001 4.13005 9.30501 4.12005 9.77001L4.09005 11.5475C4.08005 11.9875 4.21255 12.3375 4.48755 12.5975C4.76755 12.8625 5.14505 12.995 5.62005 12.995H6C6.27614 12.995 6.5 13.2214 6.5 13.4975V13.4975C6.5 13.7736 6.27614 14 6 14H5.61255C5.07755 14 4.60755 13.9 4.20255 13.7C3.80255 13.505 3.49255 13.2225 3.27255 12.8525C3.05755 12.4875 2.95255 12.06 2.95755 11.57L2.98755 9.77751Z" fill="#834DF0"/>
<path d="M13.0145 9.77751C13.0045 9.39251 13.132 9.08501 13.397 8.85501C13.662 8.62501 14.0195 8.51001 14.4695 8.51001H14.5C14.7761 8.51001 15 8.28615 15 8.01001V7.93001C15 7.65387 14.7761 7.43001 14.5 7.43001H14.4695C14.0195 7.43001 13.662 7.31501 13.397 7.08501C13.132 6.85501 13.0045 6.54751 13.0145 6.16251L13.0445 4.58C13.0545 4.06 12.9445 3.605 12.7145 3.215C12.4895 2.825 12.1645 2.525 11.7395 2.315C11.3145 2.105 10.8145 2 10.2395 2H10C9.72386 2 9.5 2.22636 9.5 2.5025V2.5025C9.5 2.77864 9.72386 3.005 10 3.005H10.232C10.752 3.005 11.162 3.15 11.462 3.44C11.767 3.725 11.917 4.1125 11.912 4.6025L11.882 6.17001C11.872 6.68001 12.0095 7.09751 12.2945 7.42251C12.5795 7.74251 12.9645 7.92001 13.4495 7.95501C12.9645 8.04501 12.5795 8.25501 12.2945 8.58501C12.0095 8.91001 11.872 9.30501 11.882 9.77001L11.912 11.5475C11.922 11.9875 11.787 12.3375 11.507 12.5975C11.232 12.8625 10.857 12.995 10.382 12.995H10C9.72386 12.995 9.5 13.2214 9.5 13.4975V13.4975C9.5 13.7736 9.72386 14 10 14H10.3896C10.9246 14 11.392 13.9 11.792 13.7C12.197 13.505 12.507 13.2225 12.722 12.8525C12.942 12.4875 13.0495 12.06 13.0445 11.57L13.0145 9.77751Z" fill="#834DF0"/>
</svg>
