<svg width="16" height="16" viewBox="0 0 16 16" fill="none" xmlns="http://www.w3.org/2000/svg">
<path fill-rule="evenodd" clip-rule="evenodd" d="M8.69687 1.5H7.30321C6.07885 1.49999 5.11912 1.49999 4.35769 1.58248C3.58067 1.66667 2.95108 1.84155 2.41353 2.2321C2.0881 2.46854 1.80191 2.75473 1.56547 3.08016C1.17492 3.61771 1.00004 4.24729 0.915859 5.02432C0.833364 5.78574 0.833369 6.74548 0.833374 7.96983V8.03017C0.833369 9.25451 0.833364 10.2142 0.915859 10.9757C1.00004 11.7527 1.17492 12.3823 1.56547 12.9198C1.80191 13.2453 2.08811 13.5315 2.41353 13.7679C2.95108 14.1585 3.58067 14.3333 4.35769 14.4175C5.11911 14.5 6.07884 14.5 7.30319 14.5H8.69689C9.92123 14.5 10.881 14.5 11.6424 14.4175C12.4194 14.3333 13.049 14.1585 13.5865 13.7679C13.912 13.5315 14.1982 13.2453 14.4346 12.9198C14.8252 12.3823 15 11.7527 15.0842 10.9757C15.1667 10.2143 15.1667 9.25452 15.1667 8.03018V7.96982C15.1667 6.74547 15.1667 5.78574 15.0842 5.02432C15 4.24729 14.8252 3.6177 14.4346 3.08015C14.1982 2.75472 13.912 2.46853 13.5865 2.23209C13.049 1.84154 12.4194 1.66667 11.6424 1.58248C10.881 1.49999 9.92122 1.49999 8.69687 1.5ZM3.00131 3.04112C3.33998 2.79506 3.77346 2.65163 4.4654 2.57667C5.1667 2.50069 6.07233 2.5 7.33337 2.5H8.66671C9.92774 2.5 10.8334 2.50069 11.5347 2.57667C12.2266 2.65163 12.6601 2.79507 12.9988 3.04112C13.2393 3.21588 13.4508 3.42741 13.6256 3.66794C13.8556 3.98454 13.9959 4.38399 14.0745 5H1.92558C2.00414 4.38399 2.14447 3.98454 2.37449 3.66794C2.54925 3.42741 2.76078 3.21588 3.00131 3.04112ZM1.85292 6C1.83365 6.55053 1.83337 7.20456 1.83337 8C1.83337 9.26104 1.83406 10.1667 1.91004 10.868C1.98501 11.5599 2.12843 11.9934 2.37449 12.332C2.54924 12.5726 2.76078 12.7841 3.00131 12.9589C3.33998 13.2049 3.77346 13.3484 4.4654 13.4233C5.1667 13.4993 6.07233 13.5 7.33337 13.5H8.66671C9.92774 13.5 10.8334 13.4993 11.5347 13.4233C12.2266 13.3484 12.6601 13.2049 12.9987 12.9589C13.2393 12.7841 13.4508 12.5726 13.6256 12.3321C13.8716 11.9934 14.0151 11.5599 14.09 10.868C14.166 10.1667 14.1667 9.26104 14.1667 8C14.1667 7.20456 14.1664 6.55053 14.1472 6H1.85292Z" fill="#6C707E"/>
</svg>
