<svg width="16" height="16" viewBox="0 0 16 16" fill="none" xmlns="http://www.w3.org/2000/svg">
<path fill-rule="evenodd" clip-rule="evenodd" d="M2.94767 2.94767C3.30304 2.59231 3.78501 2.38659 4.59189 2.2781C5.41316 2.16769 6.49304 2.16663 7.99996 2.16663C9.50686 2.16663 10.5867 2.16769 11.408 2.2781C12.2149 2.38659 12.6969 2.59231 13.0523 2.94767C13.4076 3.30303 13.6133 3.78501 13.7218 4.59189C13.8322 5.41316 13.8333 6.49305 13.8333 7.99996C13.8333 9.50686 13.8322 10.5867 13.7218 11.408C13.6133 12.2149 13.4076 12.6969 13.0523 13.0523C12.6969 13.4076 12.2149 13.6133 11.408 13.7218C10.5867 13.8322 9.50686 13.8333 7.99996 13.8333C6.49305 13.8333 5.41316 13.8322 4.59189 13.7218C3.78501 13.6133 3.30304 13.4076 2.94768 13.0523C2.59232 12.6969 2.38659 12.2149 2.2781 11.408C2.16769 10.5867 2.16663 9.50686 2.16663 7.99996C2.16663 6.49304 2.16769 5.41316 2.2781 4.59189C2.38659 3.78501 2.59231 3.30304 2.94767 2.94767ZM8.03807 1.16663H7.96184C6.50137 1.16662 5.35425 1.16661 4.45864 1.28702C3.54087 1.41041 2.8127 1.66844 2.24056 2.24057C1.66843 2.8127 1.41041 3.54087 1.28702 4.45864C1.16661 5.35425 1.16662 6.50137 1.16663 7.96184V8.03808C1.16662 9.49853 1.16661 10.6456 1.28702 11.5413C1.41041 12.459 1.66845 13.1872 2.24057 13.7594C2.81271 14.3315 3.54088 14.5895 4.45865 14.7129C5.35426 14.8333 6.50137 14.8333 7.96185 14.8333H8.03807C9.49853 14.8333 10.6456 14.8333 11.5413 14.7129C12.459 14.5895 13.1872 14.3315 13.7594 13.7594C14.3315 13.1872 14.5895 12.459 14.7129 11.5413C14.8333 10.6456 14.8333 9.49853 14.8333 8.03807V7.96185C14.8333 6.50138 14.8333 5.35426 14.7129 4.45865C14.5895 3.54088 14.3315 2.81269 13.7594 2.24056C13.1872 1.66843 12.459 1.41041 11.5413 1.28702C10.6456 1.16661 9.49853 1.16662 8.03807 1.16663Z" fill="#CED0D6"/>
<path d="M2.94767 2.94767C3.30304 2.59231 3.78501 2.38659 4.59189 2.2781C5.41316 2.16769 6.49304 2.16663 7.99996 2.16663C9.50686 2.16663 10.5867 2.16769 11.408 2.2781C12.2149 2.38659 12.6969 2.59231 13.0523 2.94767C13.4076 3.30303 13.6133 3.78501 13.7218 4.59189C13.8322 5.41316 13.8333 6.49304 13.8333 7.99996C13.8333 9.50686 13.8322 10.5867 13.7218 11.408C13.6133 12.2149 13.4076 12.6969 13.0523 13.0523C12.6969 13.4076 12.2149 13.6133 11.408 13.7218C10.5867 13.8322 9.50686 13.8333 7.99996 13.8333C6.49304 13.8333 5.41316 13.8322 4.59189 13.7218C3.78501 13.6133 3.30304 13.4076 2.94768 13.0523C2.59232 12.6969 2.38659 12.2149 2.2781 11.408C2.16769 10.5867 2.16663 9.50686 2.16663 7.99996C2.16663 6.49304 2.16769 5.41316 2.2781 4.59189C2.38659 3.78501 2.59231 3.30304 2.94767 2.94767Z" fill="#43454A"/>
<path d="M7.32546 9.03C7.32546 8.80334 7.3638 8.60501 7.44046 8.43501C7.52046 8.26168 7.61546 8.115 7.72546 7.995C7.8388 7.87167 7.98546 7.73167 8.16546 7.575C8.32546 7.435 8.45046 7.31834 8.54046 7.225C8.6338 7.12834 8.71046 7.01667 8.77046 6.89C8.8338 6.76334 8.86546 6.62167 8.86546 6.465C8.86546 6.215 8.7888 6.01167 8.63546 5.855C8.48213 5.695 8.2788 5.615 8.02546 5.615C7.74546 5.615 7.52046 5.705 7.35046 5.885C7.1838 6.06501 7.10213 6.3 7.10546 6.59H5.72546C5.72546 6.13 5.8188 5.735 6.00546 5.405C6.19213 5.07167 6.4588 4.81834 6.80546 4.645C7.15546 4.46834 7.56713 4.38 8.04046 4.38C8.49713 4.38 8.8938 4.46167 9.23046 4.625C9.56713 4.78834 9.82546 5.02 10.0055 5.32C10.1855 5.61667 10.2738 5.96667 10.2705 6.37C10.2705 6.67334 10.2221 6.935 10.1255 7.155C10.0288 7.375 9.9138 7.555 9.78046 7.695C9.64713 7.835 9.47213 7.99334 9.25546 8.17C9.10546 8.29 8.98713 8.39 8.90046 8.47001C8.81713 8.55 8.74713 8.64168 8.69046 8.74502C8.63713 8.84502 8.61046 8.95667 8.61046 9.08V9.255H7.32546V9.03ZM8.74046 11.5H7.24046V10H8.74046V11.5Z" fill="#CED0D6"/>
</svg>
