<svg width="16" height="16" viewBox="0 0 16 16" fill="none" xmlns="http://www.w3.org/2000/svg">
<path d="M10.3708 11.5969C10.2471 11.688 10.1667 11.8346 10.1667 12C10.1667 12.1219 10.2103 12.2335 10.2828 12.3203C10.3282 12.3748 10.383 12.4173 10.4431 12.4473C10.5027 12.4772 10.5691 12.4955 10.6393 12.4993C10.7029 12.5028 10.7674 12.4942 10.829 12.4731C10.8808 12.4553 10.9287 12.4294 10.9711 12.3967C11.0286 12.3532 11.086 12.3096 11.1431 12.2657C11.2542 12.1805 11.4124 12.0578 11.6021 11.9076C11.981 11.6077 12.4878 11.196 12.996 10.7513C13.5018 10.3087 14.0199 9.82402 14.4155 9.37906C14.6126 9.15724 14.7899 8.93357 14.9207 8.72103C15.0416 8.52454 15.1667 8.26902 15.1667 8C15.1667 7.73098 15.0416 7.47546 14.9207 7.27897C14.7899 7.06643 14.6126 6.84276 14.4155 6.62094C14.0199 6.17598 13.5018 5.69128 12.996 5.24871C12.4878 4.80404 11.981 4.39232 11.6021 4.09235C11.4124 3.94217 11.2542 3.81955 11.1431 3.73429C11.0861 3.69049 11.0289 3.64693 10.9715 3.60357C10.8871 3.53862 10.7814 3.5 10.6667 3.5C10.5732 3.5 10.4856 3.52571 10.4107 3.57045C10.3637 3.59841 10.3207 3.63453 10.2838 3.6785C10.2431 3.72695 10.2114 3.78323 10.1913 3.84476C10.1721 3.90374 10.1642 3.96516 10.1674 4.02583C10.1745 4.16118 10.2362 4.29274 10.3476 4.38493C10.3757 4.40826 10.4033 4.42889 10.4404 4.45658C10.466 4.47574 10.4961 4.49828 10.5341 4.52744C10.6418 4.61014 10.7961 4.7297 10.9814 4.8764C11.3525 5.17019 11.8457 5.57096 12.3375 6.00129C12.8317 6.43373 13.3136 6.88652 13.668 7.28531C13.8459 7.48537 13.9811 7.66013 14.069 7.80307C14.1422 7.9219 14.1606 7.98438 14.1652 8.0001C14.1607 8.01543 14.1425 8.07752 14.069 8.19694C13.9811 8.33987 13.8459 8.51464 13.668 8.71469C13.3136 9.11348 12.8317 9.56628 12.3375 9.99871C11.8457 10.429 11.3525 10.8298 10.9814 11.1236C10.7961 11.2703 10.6418 11.3899 10.5341 11.4726C10.4798 11.5142 10.4255 11.5558 10.3708 11.5969Z" fill="#3574F0"/>
<path d="M5.62933 11.5969C5.75308 11.688 5.83339 11.8346 5.83339 12C5.83339 12.1219 5.7898 12.2335 5.71736 12.3203C5.67198 12.3748 5.61713 12.4173 5.55704 12.4473C5.49745 12.4772 5.43106 12.4955 5.36082 12.4993C5.29721 12.5028 5.23273 12.4942 5.17109 12.4731C5.11937 12.4553 5.07148 12.4294 5.02899 12.3967C4.9715 12.3532 4.91416 12.3096 4.857 12.2657C4.74595 12.1804 4.58774 12.0578 4.39803 11.9076C4.01913 11.6077 3.51233 11.196 3.00413 10.7513C2.49835 10.3087 1.9802 9.82402 1.58468 9.37906C1.38751 9.15724 1.21022 8.93357 1.07943 8.72103C0.958512 8.52454 0.833386 8.26902 0.833386 8C0.833386 7.73098 0.958512 7.47546 1.07943 7.27897C1.21022 7.06643 1.38751 6.84276 1.58468 6.62094C1.9802 6.17598 2.49835 5.69128 3.00413 5.24871C3.51233 4.80404 4.01913 4.39232 4.39804 4.09235C4.58773 3.94217 4.74595 3.81955 4.857 3.73429C4.91404 3.69049 4.97126 3.64693 5.02864 3.60357C5.113 3.53862 5.21868 3.5 5.33339 3.5C5.42696 3.5 5.51454 3.52571 5.58943 3.57045C5.63643 3.59841 5.67948 3.63453 5.71633 3.6785C5.75705 3.72694 5.78874 3.78323 5.80882 3.84476C5.82808 3.90374 5.8359 3.96516 5.83273 4.02583C5.82566 4.16118 5.76389 4.29274 5.65251 4.38493C5.6244 4.40826 5.59681 4.42889 5.55978 4.45658C5.53415 4.47574 5.504 4.49828 5.46602 4.52743C5.35832 4.61014 5.20404 4.7297 5.01874 4.8764C4.64764 5.17019 4.15444 5.57096 3.66264 6.00129C3.16843 6.43373 2.68657 6.88652 2.33209 7.28531C2.15426 7.48537 2.01905 7.66013 1.93109 7.80306C1.85795 7.92191 1.83956 7.98439 1.83494 8.0001C1.83945 8.01544 1.85761 8.07752 1.93109 8.19694C2.01905 8.33987 2.15426 8.51463 2.33209 8.71469C2.68657 9.11348 3.16842 9.56627 3.66264 9.99871C4.15444 10.429 4.64764 10.8298 5.01874 11.1236C5.20404 11.2703 5.35832 11.3899 5.46602 11.4726C5.5203 11.5142 5.57466 11.5558 5.62933 11.5969Z" fill="#3574F0"/>
</svg>
