<svg width="16" height="16" viewBox="0 0 16 16" fill="none" xmlns="http://www.w3.org/2000/svg">
<path d="M9.98507 2.12126C10.052 1.85337 9.88916 1.5819 9.62126 1.51492C9.35337 1.44795 9.0819 1.61083 9.01493 1.87873L6.01493 13.8787C5.94795 14.1466 6.11083 14.4181 6.37873 14.4851C6.64663 14.552 6.91809 14.3892 6.98507 14.1213L9.98507 2.12126Z" fill="#C77D55"/>
<path d="M11.0582 4.61918C11.2685 4.37516 11.6368 4.34784 11.8808 4.55817L13.7501 6.16935C14.1116 6.48085 14.4269 6.75265 14.6467 7.00097C14.8802 7.26473 15.0833 7.58566 15.0833 8.00001C15.0833 8.41436 14.8802 8.73529 14.6467 8.99904C14.4269 9.24738 14.1115 9.51918 13.7501 9.83068L11.8808 11.4418C11.6368 11.6522 11.2685 11.6249 11.0582 11.3808C10.8478 11.1368 10.8752 10.7685 11.1192 10.5582L12.959 8.97238C13.3587 8.62784 13.6122 8.40762 13.7732 8.22579C13.8493 8.13977 13.8854 8.08314 13.9024 8.04791C13.9166 8.01867 13.9167 8.00655 13.9167 8.00001C13.9167 7.99347 13.9166 7.98135 13.9024 7.95211C13.8854 7.91688 13.8493 7.86025 13.7732 7.77423C13.6122 7.59239 13.3587 7.37218 12.959 7.02763L11.1192 5.44185C10.8752 5.23152 10.8478 4.8632 11.0582 4.61918Z" fill="#C77D55"/>
<path d="M4.88551 4.66776C5.06901 4.88066 5.04518 5.20201 4.83228 5.38552L2.99248 6.97129C2.59442 7.31441 2.33624 7.53843 2.17114 7.72494C2.01276 7.90386 2.00894 7.97378 2.00894 8.00002C2.00894 8.02627 2.01276 8.09618 2.17114 8.27511C2.33623 8.46161 2.59441 8.68562 2.99247 9.02873L4.83228 10.6145C5.04519 10.798 5.06901 11.1194 4.88551 11.3323C4.702 11.5452 4.38065 11.569 4.16775 11.3855L2.30135 9.7768C1.93735 9.46308 1.62537 9.1942 1.40899 8.94976C1.18064 8.69179 0.991089 8.38795 0.991089 8.00002C0.991089 7.61209 1.18064 7.30826 1.40899 7.05029C1.62536 6.80585 1.93731 6.53699 2.3013 6.22328L4.16775 4.61453C4.38065 4.43103 4.702 4.45485 4.88551 4.66776Z" fill="#C77D55"/>
</svg>
