<svg width="16" height="16" viewBox="0 0 16 16" fill="none" xmlns="http://www.w3.org/2000/svg">
<path d="M14 4C14 2.89543 13.1046 2 12 2H4C2.89543 2 2 2.89543 2 4V12C2 13.1046 2.89543 14 4 14H12C13.1046 14 14 13.1046 14 12V4Z" fill="#4682FA"/>
<path fill-rule="evenodd" clip-rule="evenodd" d="M9.70546 6.12759C9.99739 5.98195 10.3267 5.90002 10.6751 5.90002C11.8763 5.90002 12.8501 6.8738 12.8501 8.07502V9.92502C12.8501 10.7779 12.3592 11.5161 11.6446 11.8725C11.3527 12.0181 11.0234 12.1001 10.675 12.1001C9.47378 12.1001 8.5 11.1263 8.5 9.92507V8.07507C8.5 7.22224 8.99085 6.48404 9.70546 6.12759ZM9.50201 8.0057C9.50068 8.02865 9.5 8.05178 9.5 8.07507V9.92507C9.5 10.1339 9.5545 10.3301 9.65005 10.5C9.85138 10.8581 10.2351 11.1 10.6751 11.1C10.8639 11.1 11.0423 11.0555 11.2004 10.9764C11.5645 10.7941 11.8207 10.4282 11.8476 10L11.8481 9.9944C11.8494 9.97144 11.8501 9.94831 11.8501 9.92502V8.07502C11.8501 7.86616 11.7956 7.67002 11.7 7.50005C11.4987 7.14197 11.115 6.90007 10.675 6.90007C10.4862 6.90007 10.3078 6.9446 10.1497 7.02373C9.78563 7.20603 9.52941 7.57193 9.50245 8.00005L9.50201 8.0057Z" fill="white"/>
<path d="M5.675 11.1C6.29875 11.1 6.80898 10.614 6.84765 10H6V9H7.85V9.92502C7.85 11.1262 6.87622 12.1 5.675 12.1C4.47378 12.1 3.5 11.1262 3.5 9.92502V8.07503C3.5 6.87381 4.47378 5.90002 5.675 5.90002C6.67717 5.90002 7.52103 6.57782 7.77318 7.5H6.69992C6.49859 7.14192 6.11505 6.90002 5.675 6.90002C5.02607 6.90002 4.5 7.42609 4.5 8.07503V9.92502C4.5 10.574 5.02607 11.1 5.675 11.1Z" fill="white"/>
</svg>
