<svg width="16" height="16" viewBox="0 0 16 16" fill="none" xmlns="http://www.w3.org/2000/svg">
<path fill-rule="evenodd" clip-rule="evenodd" d="M11.379 1.44665C11.554 1.44798 11.7161 1.49396 11.8664 1.57121C12.2228 1.75442 12.38 2.06125 12.445 2.38958C12.4709 2.52064 12.4846 2.66797 12.4918 2.82623C12.6771 2.75047 12.8675 2.6898 13.0555 2.6486C13.5034 2.55043 14.0788 2.53441 14.5003 2.87555C14.8659 3.17136 15.027 3.556 15.0996 3.99677C15.1664 4.40191 15.1664 4.91016 15.1663 5.50674L15.1663 10.1167C15.1664 10.6684 15.1664 11.1255 15.1245 11.488C15.081 11.8649 14.9855 12.2147 14.7379 12.5041C14.4836 12.8014 14.1152 12.9549 13.714 13.0676C13.3128 13.1802 12.7843 13.2752 12.1281 13.3932L12.1011 13.398C10.9367 13.6074 10.0389 13.9392 9.40058 14.2645L9.38759 14.2711C9.06189 14.4371 8.80173 14.5697 8.60279 14.66C8.50141 14.706 8.40417 14.7466 8.31407 14.7762C8.22928 14.8041 8.11872 14.8333 7.99968 14.8333C7.88064 14.8333 7.77007 14.8041 7.68528 14.7762C7.59518 14.7466 7.49794 14.706 7.39656 14.66C7.19762 14.5697 6.93746 14.4371 6.61175 14.2711L6.59878 14.2645C5.9605 13.9392 5.06267 13.6074 3.89822 13.398L3.87112 13.3932C3.21502 13.2752 2.68652 13.1802 2.28537 13.0676C1.88419 12.9549 1.51571 12.8014 1.26146 12.5041C1.01382 12.2147 0.918395 11.8649 0.874863 11.488C0.832985 11.1255 0.832997 10.6683 0.83301 10.1167L0.833009 5.50674C0.832975 4.91016 0.832946 4.40191 0.899735 3.99677C0.972397 3.556 1.13347 3.17136 1.49899 2.87555C1.85075 2.59088 2.23385 2.49741 2.66025 2.50005C3.04593 2.50244 3.50527 2.58508 4.03535 2.68044L4.07521 2.68761C5.95023 3.02478 7.23076 3.85951 7.93328 4.45678C8.36242 3.77205 9.08778 2.78123 10.1299 2.03534L10.1656 2.00974C10.4192 1.82808 10.6733 1.64604 10.914 1.54508C11.0518 1.48731 11.2072 1.44534 11.379 1.44665ZM7.49976 5.41099C6.9895 4.92497 5.79585 4.01306 3.89823 3.67182C3.31673 3.56726 2.9431 3.50182 2.65406 3.50003C2.39611 3.49844 2.25684 3.54868 2.12807 3.65289C2.01307 3.74596 1.93388 3.8715 1.88642 4.15943C1.83459 4.47379 1.83301 4.89882 1.83301 5.54755V10.0865C1.83301 10.676 1.8338 11.075 1.86826 11.3733C1.90183 11.6639 1.9606 11.7831 2.02134 11.8541C2.07548 11.9174 2.20071 12.0051 2.55561 12.1048C2.90501 12.2028 3.38593 12.2899 4.07521 12.4138C5.33179 12.6398 6.32346 13.0018 7.05286 13.3735C7.2263 13.4619 7.37366 13.537 7.49976 13.5999V5.41099ZM9.22082 13.2401C9.91807 12.9167 10.8186 12.6126 11.9241 12.4138C12.6134 12.2899 13.0944 12.2028 13.4438 12.1048C13.7986 12.0051 13.9238 11.9174 13.978 11.8541C14.0387 11.7831 14.0975 11.6639 14.1311 11.3733C14.1656 11.0749 14.1663 10.676 14.1663 10.0865V5.54755C14.1663 4.89882 14.1648 4.47379 14.1129 4.15943C14.0655 3.8715 13.9863 3.74596 13.8713 3.65289C13.8123 3.60514 13.6279 3.54687 13.2696 3.62541C13.0144 3.68135 12.7404 3.79351 12.4998 3.93574L12.4998 9.3466C12.4998 9.55161 12.4998 9.7367 12.4865 9.88909C12.4724 10.0507 12.44 10.2301 12.3404 10.4006C12.2332 10.5839 12.0643 10.7105 11.9187 10.8066C11.7686 10.9057 11.5699 11.0176 11.3357 11.1495L11.3203 11.1582C10.4095 11.6712 9.71431 12.5035 9.22082 13.2401ZM11.4998 3.65639C11.4996 3.66351 11.4996 3.67063 11.4998 3.67775V9.32707C11.4998 9.55786 11.4993 9.69856 11.4903 9.80211C11.482 9.89676 11.4525 9.91618 11.3743 9.96777C11.3722 9.96915 11.37 9.97056 11.3679 9.972C11.251 10.0492 11.0837 10.1437 10.8295 10.2869C9.82172 10.8545 9.04834 11.7377 8.49976 12.5222V5.46292C8.8164 4.89994 9.54387 3.68454 10.7119 2.84851C11.0165 2.63047 11.1774 2.51904 11.3008 2.46724C11.4031 2.43734 11.4422 2.47338 11.464 2.58372C11.4974 2.75256 11.4998 3.00148 11.4998 3.43377V3.65639Z" fill="#548AF7"/>
<path fill-rule="evenodd" clip-rule="evenodd" d="M7.49975 5.41099C6.9895 4.92497 5.79585 4.01306 3.89822 3.67182C3.31672 3.56726 2.9431 3.50182 2.65406 3.50003C2.39611 3.49843 2.25683 3.54868 2.12807 3.65289C2.01307 3.74595 1.93388 3.8715 1.88641 4.15943C1.83459 4.47379 1.83301 4.89882 1.83301 5.54755V10.0865C1.83301 10.676 1.83379 11.0749 1.86826 11.3733C1.90182 11.6639 1.96059 11.7831 2.02133 11.8541C2.07548 11.9174 2.20071 12.0051 2.5556 12.1048C2.90501 12.2028 3.38593 12.2899 4.07521 12.4138C5.33179 12.6398 6.32346 13.0018 7.05285 13.3735C7.2263 13.4619 7.37366 13.537 7.49975 13.5999V5.41099ZM9.22082 13.2401C9.91807 12.9167 10.8186 12.6126 11.9241 12.4138C12.6134 12.2899 13.0944 12.2028 13.4438 12.1048C13.7986 12.0051 13.9238 11.9174 13.978 11.8541C14.0387 11.7831 14.0975 11.6639 14.1311 11.3733C14.1656 11.0749 14.1663 10.676 14.1663 10.0865V5.54755C14.1663 4.89882 14.1648 4.47379 14.1129 4.15943C14.0655 3.8715 13.9863 3.74596 13.8713 3.65289C13.8123 3.60514 13.6279 3.54687 13.2696 3.62541C13.0144 3.68135 12.7404 3.79351 12.4998 3.93574L12.4998 9.3466C12.4998 9.55161 12.4998 9.7367 12.4865 9.88909C12.4724 10.0507 12.44 10.2301 12.3404 10.4006C12.2332 10.5839 12.0643 10.7105 11.9187 10.8066C11.7686 10.9057 11.5699 11.0176 11.3357 11.1495L11.3203 11.1582C10.4095 11.6712 9.71431 12.5035 9.22082 13.2401ZM11.4998 3.65639C11.4996 3.6635 11.4996 3.67063 11.4998 3.67775V9.32706C11.4998 9.55786 11.4993 9.69856 11.4903 9.80211C11.482 9.89676 11.4525 9.91618 11.3743 9.96777C11.3722 9.96915 11.37 9.97056 11.3679 9.972C11.2509 10.0492 11.0837 10.1437 10.8295 10.2869C9.82172 10.8545 9.04833 11.7377 8.49975 12.5222V5.46292C8.81639 4.89994 9.54387 3.68454 10.7119 2.84851C11.0165 2.63047 11.1774 2.51904 11.3008 2.46724C11.4031 2.43734 11.4422 2.47338 11.464 2.58372C11.4974 2.75255 11.4998 3.00148 11.4998 3.43377V3.65639Z" fill="#25324D"/>
</svg>
