<svg width="16" height="16" viewBox="0 0 16 16" fill="none" xmlns="http://www.w3.org/2000/svg">
<path d="M14 4C14 2.89543 13.1046 2 12 2H4C2.89543 2 2 2.89543 2 4V12C2 13.1046 2.89543 14 4 14H12C13.1046 14 14 13.1046 14 12V4Z" fill="#E66D17"/>
<path d="M12.2937 5.17464C12.1214 4.88312 12.0353 4.73736 11.8887 4.67923C11.7421 4.62111 11.5763 4.66697 11.2448 4.7587L10.6816 4.91337C10.47 4.96096 10.2479 4.93396 10.0546 4.83714L9.89916 4.74968C9.73342 4.64618 9.60594 4.49358 9.53537 4.31422L9.38126 3.8654C9.27991 3.56839 9.22923 3.41988 9.10859 3.33494C8.98799 3.25 8.82774 3.25 8.50725 3.25H7.99273C7.67228 3.25 7.51204 3.25 7.39139 3.33494C7.27077 3.41988 7.2201 3.56839 7.11876 3.8654L6.96462 4.31422C6.89406 4.49358 6.76658 4.64618 6.60086 4.74968L6.44537 4.83714C6.2521 4.93396 6.03004 4.96096 5.81837 4.91337L5.25519 4.7587C4.92365 4.66697 4.75788 4.62111 4.61131 4.67923C4.46473 4.73736 4.37859 4.88312 4.2063 5.17464L3.97849 5.56011C3.817 5.83337 3.73625 5.97001 3.75192 6.11546C3.76759 6.26091 3.87569 6.37812 4.09189 6.61254L4.56775 7.13125C4.68406 7.2748 4.76663 7.525 4.76663 7.74995C4.76663 7.975 4.68409 8.22511 4.56777 8.3687L4.09189 8.88742C3.87569 9.12187 3.76759 9.23905 3.75192 9.38453C3.73625 9.52997 3.817 9.66659 3.97849 9.93983L4.20629 10.3253C4.37858 10.6168 4.46473 10.7626 4.61131 10.8207C4.75788 10.8788 4.92365 10.833 5.2552 10.7412" stroke="#FFF4EB" stroke-width="0.5" stroke-linecap="round"/>
<path fill-rule="evenodd" clip-rule="evenodd" d="M6.5 6H10C11.1046 6 12 6.89543 12 8C12 8.94623 11.3429 9.73898 10.4601 9.94682L11.1 10.8C11.1944 10.9259 11.3426 11 11.5 11H12V12H11.5C11.0279 12 10.5833 11.7777 10.3 11.4L9.25 10H8V11H8.5V12H6.5V11H7V7H6.5V6ZM8 9V7H10C10.5523 7 11 7.44772 11 8C11 8.55228 10.5523 9 10 9H8Z" fill="#FFF4EB"/>
</svg>
