<svg width="16" height="16" viewBox="0 0 16 16" fill="none" xmlns="http://www.w3.org/2000/svg">
<g clip-path="url(#clip0_3946_2264)">
<path d="M9.01088 0.683251C9.129 0.696285 9.29501 0.728418 9.44643 0.84533C9.51121 0.895352 9.56183 0.953397 9.60179 1.01198C9.66335 1.10225 9.6996 1.1938 9.72334 1.25924C9.77481 1.40117 9.81182 1.54823 9.85102 1.69387C9.88744 1.82914 9.93744 1.95768 9.99916 2.07842C10.4214 2.90447 11.3923 3.36536 12.3183 3.11841C12.464 3.07956 12.6099 3.03809 12.7586 3.0117C12.8453 2.9963 12.9784 2.97734 13.1226 3.00513C13.1662 3.01353 13.2108 3.02621 13.2555 3.04456C13.4324 3.11724 13.5433 3.24497 13.6136 3.34073C13.6893 3.44381 13.7527 3.55561 13.8173 3.66577C13.9571 3.90392 13.8774 4.2103 13.6392 4.35008C13.4011 4.48987 13.0947 4.41013 12.9549 4.17198L12.8595 4.01168C12.7924 4.02717 12.7031 4.05074 12.5759 4.08466C10.9818 4.50974 9.31431 3.54691 8.88541 1.95384C8.85118 1.82671 8.82697 1.73762 8.80684 1.67179L7.1054 1.65959C7.08364 1.72874 7.05748 1.8226 7.02038 1.95687C6.95112 2.20757 6.85 2.44162 6.72258 2.65616C6.15184 3.61716 5.05352 4.18687 3.92751 4.10967C3.74093 4.09687 3.55359 4.06632 3.36777 4.01684C3.23765 3.98219 3.14637 3.95811 3.07782 3.94235L2.24341 5.38758C2.29132 5.43906 2.3578 5.50606 2.45288 5.60143C3.59083 6.74308 3.62965 8.64136 2.49433 9.79415C2.3966 9.8934 2.32839 9.96297 2.27938 10.0164L3.14067 11.4838C3.20775 11.4683 3.29699 11.4447 3.42418 11.4107C3.69099 11.3396 3.96498 11.4982 4.03616 11.765C4.10734 12.0318 3.94874 12.3058 3.68193 12.3769L3.66318 12.382C3.5078 12.4234 3.36166 12.4624 3.24177 12.4837C3.12878 12.5038 2.93721 12.53 2.74476 12.4509C2.56778 12.3782 2.45695 12.2505 2.38661 12.1547C2.3109 12.0517 2.24754 11.9399 2.18288 11.8297L1.51357 10.6894C1.44787 10.5776 1.38006 10.4661 1.32607 10.3479C1.27645 10.2394 1.21779 10.0783 1.24163 9.88625C1.26767 9.67661 1.38871 9.52006 1.46238 9.43159C1.56174 9.31227 1.67299 9.20299 1.78184 9.09248C2.51948 8.34349 2.50816 7.0734 1.74466 6.30743C1.63676 6.1992 1.5265 6.09219 1.42805 5.97511C1.35387 5.88689 1.234 5.7325 1.20677 5.52452C1.18177 5.33336 1.23871 5.17236 1.28745 5.06349C1.33243 4.963 1.39796 4.84957 1.4617 4.73922L2.11587 3.60618L2.31916 3.2765C2.38912 3.1798 2.50009 3.05 2.67814 2.97606C2.87187 2.89569 3.06552 2.92233 3.17899 2.94247C3.32961 2.9692 3.47742 3.01118 3.62509 3.05051C4.67055 3.32888 5.77658 2.70372 6.05649 1.69058C6.1029 1.52259 6.14582 1.36565 6.1905 1.24435C6.23028 1.13634 6.30535 0.953222 6.47392 0.825871C6.62832 0.709221 6.79715 0.679519 6.91591 0.668209C7.02591 0.657734 7.15758 0.658713 7.28609 0.659668L7.2861 0.659668L8.64658 0.669477C8.7725 0.670359 8.90229 0.671267 9.01088 0.683251Z" fill="#CED0D6"/>
<path d="M12.0346 13.5296C11.7243 13.4147 11.3689 13.1408 10.9687 12.7079L10.0866 11.7537C9.72719 11.3561 9.6284 10.9339 9.1955 10.7484C8.77076 10.5628 8.70415 10.6006 8.05888 10.6006H7.67907V12.55H8.14555V13.5561H7.67907H6.06181H5.6001V12.55H6.06181V6.8235H5.6001V5.75H6.06181H10.6012C11.1239 5.75 11.5323 5.8251 11.8264 5.9753C12.1286 6.12551 12.3491 6.3243 12.488 6.57169C12.635 6.81025 12.7289 7.06648 12.7698 7.34038C12.8106 7.61427 12.831 7.87492 12.831 8.12231V8.37412C12.831 8.5685 12.8065 8.78497 12.7575 9.02352C12.7085 9.26208 12.6146 9.49622 12.4757 9.72594C12.3369 9.95566 12.1367 10.15 11.8754 10.3091C11.6222 10.4681 11.2873 10.5609 10.8707 10.5874C10.9769 10.6492 11.1117 10.7464 11.275 10.879C11.4384 11.0027 11.6058 11.1396 11.7773 11.2898C11.957 11.44 12.1204 11.577 12.2674 11.7007C12.4144 11.8244 12.5288 11.9127 12.6105 11.9657C12.9847 12.3655 13.6001 12.3655 13.6001 12.3655V13.6886C13.1664 13.845 12.455 13.6695 12.0346 13.5296ZM10.2459 9.32835C10.6052 9.28417 10.8544 9.17814 10.9932 9.01027C11.1402 8.83356 11.2138 8.60826 11.2138 8.33436V8.02954C11.2138 7.7468 11.1443 7.50825 11.0055 7.31387C10.8666 7.11949 10.6175 7.0223 10.2581 7.0223H7.67907V9.32835C8.76725 9.4086 9.16274 9.42598 10.2459 9.32835Z" fill="#CED0D6"/>
</g>
<defs>
<clipPath id="clip0_3946_2264">
<rect width="16" height="16" fill="white"/>
</clipPath>
</defs>
</svg>
