<svg width="16" height="16" viewBox="0 0 16 16" fill="none" xmlns="http://www.w3.org/2000/svg">
<g clip-path="url(#clip0_3866_130310)">
<path d="M9.01088 0.683251C9.129 0.696285 9.29501 0.728418 9.44643 0.84533C9.51121 0.895352 9.56183 0.953397 9.60179 1.01198C9.66335 1.10225 9.6996 1.1938 9.72334 1.25924C9.77481 1.40117 9.81182 1.54823 9.85102 1.69387C9.88744 1.82914 9.93744 1.95768 9.99916 2.07842C10.4214 2.90447 11.3923 3.36536 12.3183 3.11841C12.464 3.07956 12.6099 3.03809 12.7586 3.0117C12.8453 2.9963 12.9784 2.97734 13.1226 3.00513C13.1662 3.01353 13.2108 3.02621 13.2555 3.04456C13.4324 3.11724 13.5433 3.24497 13.6136 3.34073C13.6893 3.44381 13.7527 3.55561 13.8173 3.66577C13.9571 3.90392 13.8774 4.2103 13.6392 4.35008C13.4011 4.48987 13.0947 4.41013 12.9549 4.17198L12.8595 4.01168C12.7924 4.02717 12.7031 4.05074 12.5759 4.08466C10.9818 4.50974 9.31431 3.54691 8.88541 1.95384C8.85118 1.82671 8.82697 1.73762 8.80684 1.67179L7.1054 1.65959C7.08364 1.72874 7.05748 1.8226 7.02038 1.95687C6.95112 2.20757 6.85 2.44162 6.72258 2.65616C6.15184 3.61716 5.05352 4.18687 3.92751 4.10967C3.74093 4.09687 3.55359 4.06632 3.36777 4.01684C3.23765 3.98219 3.14637 3.95811 3.07782 3.94235L2.24341 5.38758C2.29132 5.43906 2.3578 5.50606 2.45288 5.60143C3.59083 6.74308 3.62965 8.64136 2.49433 9.79415C2.3966 9.8934 2.32839 9.96297 2.27938 10.0164L3.14067 11.4838C3.20775 11.4683 3.29699 11.4447 3.42418 11.4107C3.69099 11.3396 3.96498 11.4982 4.03616 11.765C4.10734 12.0318 3.94874 12.3058 3.68193 12.3769L3.66318 12.382C3.5078 12.4234 3.36166 12.4624 3.24177 12.4837C3.12878 12.5038 2.93721 12.53 2.74476 12.4509C2.56778 12.3782 2.45695 12.2505 2.38661 12.1547C2.3109 12.0517 2.24754 11.9399 2.18288 11.8297L1.51357 10.6894C1.44787 10.5776 1.38006 10.4661 1.32607 10.3479C1.27645 10.2394 1.21779 10.0783 1.24163 9.88625C1.26767 9.67661 1.38871 9.52006 1.46238 9.43159C1.56174 9.31227 1.67299 9.20299 1.78184 9.09248C2.51948 8.34349 2.50816 7.0734 1.74466 6.30743C1.63676 6.1992 1.5265 6.09219 1.42805 5.97511C1.35387 5.88689 1.234 5.7325 1.20677 5.52452C1.18177 5.33336 1.23871 5.17236 1.28745 5.06349C1.33243 4.963 1.39796 4.84957 1.4617 4.73922L2.11587 3.60618L2.31916 3.2765C2.38912 3.1798 2.50009 3.05 2.67814 2.97606C2.87187 2.89569 3.06552 2.92233 3.17899 2.94247C3.32961 2.9692 3.47742 3.01118 3.62509 3.05051C4.67055 3.32888 5.77658 2.70372 6.05649 1.69058C6.1029 1.52259 6.14582 1.36565 6.1905 1.24435C6.23028 1.13634 6.30535 0.953222 6.47392 0.825871C6.62832 0.709221 6.79715 0.679519 6.91591 0.668209C7.02591 0.657734 7.15758 0.658713 7.28609 0.659668L7.2861 0.659668L8.64658 0.669477C8.7725 0.670359 8.90229 0.671267 9.01088 0.683251Z" fill="#6C707E"/>
<path d="M12.0345 13.5296C11.7241 13.4147 11.3688 13.1408 10.9686 12.7079L10.0865 11.7537C9.72706 11.3561 9.62828 10.9339 9.19538 10.7484C8.77064 10.5628 8.70403 10.6006 8.05876 10.6006H7.67895V12.55H8.14543V13.5561H7.67895H6.06169H5.59998V12.55H6.06169V6.8235H5.59998V5.75H6.06169H10.601C11.1238 5.75 11.5322 5.8251 11.8262 5.9753C12.1284 6.12551 12.349 6.3243 12.4878 6.57169C12.6349 6.81025 12.7288 7.06648 12.7696 7.34038C12.8105 7.61427 12.8309 7.87492 12.8309 8.12231V8.37412C12.8309 8.5685 12.8064 8.78497 12.7574 9.02352C12.7084 9.26208 12.6144 9.49622 12.4756 9.72594C12.3367 9.95566 12.1366 10.15 11.8752 10.3091C11.622 10.4681 11.2871 10.5609 10.8706 10.5874C10.9768 10.6492 11.1115 10.7464 11.2749 10.879C11.4383 11.0027 11.6057 11.1396 11.7772 11.2898C11.9569 11.44 12.1203 11.577 12.2673 11.7007C12.4143 11.8244 12.5287 11.9127 12.6104 11.9657C12.9846 12.3655 13.6 12.3655 13.6 12.3655V13.6886C13.1662 13.845 12.4549 13.6695 12.0345 13.5296ZM10.2457 9.32835C10.6051 9.28417 10.8542 9.17814 10.9931 9.01027C11.1401 8.83356 11.2136 8.60826 11.2136 8.33436V8.02954C11.2136 7.7468 11.1442 7.50825 11.0054 7.31387C10.8665 7.11949 10.6174 7.0223 10.258 7.0223H7.67895V9.32835C8.76712 9.4086 9.16262 9.42598 10.2457 9.32835Z" fill="#6C707E"/>
</g>
<defs>
<clipPath id="clip0_3866_130310">
<rect width="16" height="16" fill="white"/>
</clipPath>
</defs>
</svg>
