<svg width="16" height="16" viewBox="0 0 16 16" fill="none" xmlns="http://www.w3.org/2000/svg">
<path fill-rule="evenodd" clip-rule="evenodd" d="M8.03807 1.16663H7.96184C6.50137 1.16662 5.35425 1.16661 4.45864 1.28702C3.54087 1.41041 2.8127 1.66844 2.24056 2.24057C1.66843 2.8127 1.41041 3.54087 1.28702 4.45864C1.16661 5.35425 1.16662 6.50137 1.16663 7.96184V8.03808C1.16662 9.49853 1.16661 10.6456 1.28702 11.5413C1.41041 12.459 1.66845 13.1872 2.24057 13.7594C2.81271 14.3315 3.54088 14.5895 4.45865 14.7129C5.35426 14.8333 6.50137 14.8333 7.96185 14.8333H8.03807C9.49853 14.8333 10.6456 14.8333 11.5413 14.7129C12.459 14.5895 13.1872 14.3315 13.7594 13.7594C14.3315 13.1872 14.5895 12.459 14.7129 11.5413C14.8333 10.6456 14.8333 9.49853 14.8333 8.03807V7.96185C14.8333 6.50137 14.8333 5.35426 14.7129 4.45865C14.5895 3.54088 14.3315 2.81269 13.7594 2.24056C13.1872 1.66843 12.459 1.41041 11.5413 1.28702C10.6456 1.16661 9.49853 1.16662 8.03807 1.16663Z" fill="#548AF7"/>
<path d="M9.55434 11.8593C9.88209 12.0132 10.2583 12.0901 10.6829 12.0901C11.1047 12.0901 11.4795 12.0117 11.8073 11.855C12.135 11.6982 12.3901 11.4831 12.5725 11.2095C12.7549 10.933 12.8461 10.6238 12.8461 10.2818C12.8461 9.99963 12.7834 9.73315 12.658 9.48235C12.5326 9.23155 12.3545 9.02208 12.1236 8.85393C11.8956 8.68578 11.6348 8.57605 11.3413 8.52475L10.3452 8.3623C10.1429 8.3281 9.97899 8.24118 9.85359 8.10153C9.72819 7.95903 9.66549 7.79088 9.66549 7.59708C9.66549 7.43178 9.70824 7.28643 9.79374 7.16103C9.87924 7.03563 9.99893 6.93873 10.1528 6.87033C10.3067 6.80193 10.4849 6.76773 10.6872 6.76773C10.8896 6.76773 11.0677 6.80335 11.2216 6.8746C11.3755 6.94585 11.4952 7.04703 11.5807 7.17813C11.6662 7.30638 11.7089 7.45173 11.7089 7.61418H12.7221C12.7193 7.28073 12.6309 6.98433 12.4571 6.72498C12.2832 6.46563 12.041 6.26328 11.7303 6.11793C11.4225 5.97258 11.0705 5.8999 10.6744 5.8999C10.2868 5.8999 9.93909 5.97543 9.63129 6.12648C9.32349 6.27468 9.08265 6.4813 8.9088 6.74635C8.7378 7.00855 8.65231 7.30495 8.65231 7.63555C8.65231 7.912 8.70931 8.16708 8.82331 8.40078C8.94016 8.63163 9.10546 8.824 9.31921 8.9779C9.53296 9.1318 9.78519 9.2344 10.0759 9.2857L11.0891 9.4567C11.3114 9.49375 11.4895 9.5935 11.6234 9.75595C11.7574 9.91555 11.8244 10.1065 11.8244 10.3288C11.8244 10.5055 11.7773 10.6623 11.6833 10.7991C11.5921 10.933 11.461 11.037 11.29 11.1111C11.119 11.1852 10.9209 11.2223 10.6958 11.2223C10.4649 11.2223 10.2597 11.1824 10.0802 11.1026C9.90346 11.0199 9.76524 10.9045 9.66549 10.7563C9.56574 10.6081 9.51585 10.44 9.51585 10.2519H8.50269C8.50554 10.611 8.59958 10.9302 8.78483 11.2095C8.97008 11.4859 9.22659 11.7025 9.55434 11.8593Z" fill="#1E1F22"/>
<path d="M8 6H4V7H5.5V12H6.5V7H8V6Z" fill="#1E1F22"/>
</svg>
