<svg width="16" height="16" viewBox="0 0 16 16" fill="none" xmlns="http://www.w3.org/2000/svg">
<path d="M14 4C14 2.89543 13.1046 2 12 2H4C2.89543 2 2 2.89543 2 4V12C2 13.1046 2.89543 14 4 14H12C13.1046 14 14 13.1046 14 12V4Z" fill="#FFAF0F"/>
<path fill-rule="evenodd" clip-rule="evenodd" d="M6.61694 7H4.00004V6H8.38313L5.38313 11H8.00004V12H3.61694L6.61694 7Z" fill="black"/>
<path d="M10.675 11.1C11.2987 11.1 11.809 10.614 11.8476 10H11V9H12.85V9.92502C12.85 11.1262 11.8762 12.1 10.675 12.1C9.47378 12.1 8.5 11.1262 8.5 9.92502V8.07503C8.5 6.87381 9.47378 5.90002 10.675 5.90002C11.6772 5.90002 12.521 6.57782 12.7732 7.5H11.6999C11.4986 7.14192 11.115 6.90002 10.675 6.90002C10.0261 6.90002 9.5 7.42609 9.5 8.07503V9.92502C9.5 10.574 10.0261 11.1 10.675 11.1Z" fill="black"/>
</svg>
