<svg width="16" height="16" viewBox="0 0 16 16" fill="none" xmlns="http://www.w3.org/2000/svg">
<path d="M12.9497 3.05025C15.6834 5.78392 15.6834 10.2161 12.9497 12.9497C10.2161 15.6834 5.78392 15.6834 3.05025 12.9497C0.316583 10.2161 0.316583 5.78392 3.05025 3.05025C5.78392 0.316582 10.2161 0.316584 12.9497 3.05025Z" fill="#FFFAEB"/>
<path fill-rule="evenodd" clip-rule="evenodd" d="M14.9145 6.90481L13.9267 7.06045C13.7361 5.85124 13.1757 4.69027 12.2428 3.75736C11.3099 2.82445 10.1489 2.26404 8.93978 2.07352L9.09542 1.0857C10.5064 1.30802 11.8625 1.96287 12.9499 3.05025C14.0373 4.13763 14.6922 5.49375 14.9145 6.90481ZM6.90504 1.0857L7.06068 2.07352C5.85147 2.26404 4.6905 2.82445 3.75759 3.75736C2.82468 4.69027 2.26427 5.85124 2.07375 7.06045L1.08594 6.90481C1.30826 5.49375 1.9631 4.13763 3.05048 3.05025C4.13786 1.96287 5.49398 1.30802 6.90504 1.0857ZM1.08594 9.09519C1.30826 10.5063 1.9631 11.8624 3.05048 12.9497C4.13786 14.0371 5.49398 14.692 6.90504 14.9143L7.06068 13.9265C5.85147 13.736 4.6905 13.1755 3.75759 12.2426C2.82468 11.3097 2.26427 10.1488 2.07375 8.93955L1.08594 9.09519ZM9.09542 14.9143L8.93978 13.9265C10.1489 13.736 11.3099 13.1755 12.2428 12.2426C13.1757 11.3097 13.7361 10.1488 13.9267 8.93955L14.9145 9.09519C14.6922 10.5063 14.0373 11.8624 12.9499 12.9497C11.8625 14.0371 10.5064 14.692 9.09542 14.9143Z" fill="#C27D04"/>
<path d="M9 4.5L6 8H10L7 11.5" stroke="#C27D04" stroke-linecap="round"/>
</svg>
