<svg width="16" height="16" viewBox="0 0 16 16" fill="none" xmlns="http://www.w3.org/2000/svg">
<path d="M10 6C10 5.44772 10.4477 5 11 5C11.5523 5 12 5.44772 12 6V7.5C12 7.77614 12.2239 8 12.5 8C12.7761 8 13 7.77614 13 7.5V6C13 4.89542 12.1045 4 11 4C9.89546 4 9 4.89542 9 6V6.51812C8.36764 6.5089 7.49738 6.50905 6.82408 6.52235C6.38839 6.52724 6.15265 6.54212 5.82516 6.59186C5.53425 6.66123 5.29914 6.79418 5.11462 6.98268C4.86304 7.23969 4.75532 7.55667 4.69213 7.74263L4.68221 7.77179L4.67845 7.78521C4.53581 8.2956 4.40888 9.41286 4.6108 10.625L4.61195 10.6319L4.6133 10.6388C4.8062 11.6248 5.58034 12.0741 6.23972 12.13C6.6431 12.1642 8.07121 12.1594 8.85029 12.1568C9.00977 12.1562 9.14206 12.1558 9.23279 12.1558C9.68774 12.1558 10.149 12.1092 10.5416 11.8858C10.9595 11.6479 11.2232 11.256 11.3761 10.7311L11.3834 10.7058L11.3881 10.6798C11.5185 9.95444 11.5592 8.66153 11.3317 7.79305L11.3267 7.77423L11.3203 7.75585C11.1511 7.26813 10.8759 6.94406 10.5426 6.753C10.4168 6.68087 10.2901 6.63202 10.1688 6.59928C10.1094 6.5894 10.0536 6.58067 10 6.57296V6Z" fill="#57965C"/>
<path d="M6.35317 7.53594C7.25773 7.50005 9.13264 7.50754 9.63623 7.53556L9.65011 7.53634H9.66401C9.80552 7.53634 9.93543 7.55758 10.0453 7.62059C10.1418 7.67589 10.2698 7.78983 10.3693 8.06578C10.5409 8.74297 10.5174 9.84376 10.4086 10.4764C10.3079 10.8072 10.177 10.9427 10.0469 11.0167C9.88822 11.107 9.64512 11.1558 9.23281 11.1558C9.1273 11.1558 8.9793 11.1563 8.80503 11.1568C8.01243 11.1593 6.67656 11.1634 6.32421 11.1336C6.02738 11.1084 5.6898 10.9188 5.596 10.4532C5.42093 9.39456 5.53751 8.43905 5.63808 8.06709C5.70534 7.87085 5.75261 7.76051 5.82926 7.6822C5.8847 7.62557 6.00519 7.53634 6.33334 7.53634H6.34326L6.35317 7.53594Z" fill="#253627"/>
</svg>
