<svg width="16" height="16" viewBox="0 0 16 16" fill="none" xmlns="http://www.w3.org/2000/svg">
<path fill-rule="evenodd" clip-rule="evenodd" d="M9.03533 5.45397C8.64817 4.70108 7.53387 4.58523 6.99924 5.38231L6.99924 5.38232C6.90706 5.51974 6.84981 5.7501 6.83077 6.07805C6.82184 6.23181 6.82167 6.37774 6.82408 6.52235C7.56014 6.50781 8.5316 6.50899 9.1703 6.52095C9.17299 6.39365 9.17436 6.27012 9.17053 6.14847C9.1612 5.85161 9.12132 5.62117 9.03534 5.45398L9.03533 5.45397ZM10.1688 6.59928C10.1723 6.45114 10.1753 6.28549 10.17 6.11706C10.1593 5.77436 10.1135 5.36394 9.92463 4.99665C9.19179 3.57156 7.13076 3.39101 6.16876 4.82528C5.92213 5.19297 5.85404 5.64831 5.83245 6.02007C5.82155 6.20776 5.82207 6.40888 5.82516 6.59186C5.53425 6.66123 5.29914 6.79418 5.11462 6.98268C4.86304 7.23969 4.75532 7.55667 4.69213 7.74264C4.69028 7.74807 4.68847 7.75339 4.6867 7.75859L4.68221 7.77179L4.67845 7.78522C4.53581 8.2956 4.40888 9.41286 4.6108 10.625L4.61195 10.6319L4.6133 10.6388C4.8062 11.6248 5.58034 12.0741 6.23972 12.13L6.23975 12.13C6.64313 12.1642 8.07121 12.1594 8.85029 12.1568C9.00977 12.1562 9.14206 12.1558 9.23279 12.1558C9.68774 12.1558 10.149 12.1092 10.5416 11.8858C10.9595 11.6479 11.2232 11.256 11.3761 10.7311L11.3834 10.7058L11.3881 10.6798C11.5185 9.95444 11.5592 8.66153 11.3317 7.79305L11.3267 7.77423L11.3203 7.75585C11.1511 7.26813 10.8759 6.94407 10.5426 6.753C10.4168 6.68087 10.2901 6.63202 10.1688 6.59928ZM9.63621 7.53556C9.13261 7.50754 7.25771 7.50005 6.35314 7.53594L6.34324 7.53634H6.33332C6.00517 7.53634 5.88467 7.62557 5.82924 7.6822C5.75259 7.76051 5.70532 7.87085 5.63805 8.06709C5.53748 8.43905 5.42091 9.39456 5.59597 10.4532C5.68978 10.9188 6.02735 11.1084 6.32418 11.1336C6.67653 11.1634 8.01241 11.1593 8.805 11.1568C8.97927 11.1563 9.12728 11.1558 9.23279 11.1558C9.6451 11.1558 9.8882 11.107 10.0468 11.0167C10.1769 10.9427 10.3079 10.8072 10.4085 10.4764C10.5174 9.84376 10.5409 8.74297 10.3693 8.06578C10.2698 7.78983 10.1418 7.67589 10.0453 7.62059C9.9354 7.55758 9.8055 7.53634 9.66399 7.53634H9.65009L9.63621 7.53556Z" fill="#DB3B4B"/>
<path d="M6.35317 7.53594C7.25773 7.50005 9.13264 7.50754 9.63623 7.53556L9.65011 7.53634H9.66401C9.80552 7.53634 9.93543 7.55758 10.0453 7.62059C10.1418 7.67589 10.2698 7.78983 10.3693 8.06578C10.5409 8.74297 10.5174 9.84376 10.4086 10.4764C10.3079 10.8072 10.177 10.9427 10.0469 11.0167C9.88822 11.107 9.64512 11.1558 9.23281 11.1558C9.1273 11.1558 8.9793 11.1563 8.80503 11.1568C8.01243 11.1593 6.67656 11.1634 6.32421 11.1336C6.02738 11.1084 5.6898 10.9188 5.596 10.4532C5.42093 9.39456 5.53751 8.43905 5.63808 8.06709C5.70534 7.87085 5.75261 7.76051 5.82926 7.6822C5.8847 7.62557 6.00519 7.53634 6.33334 7.53634H6.34326L6.35317 7.53594Z" fill="#FFF7F7"/>
</svg>
