<svg width="16" height="16" viewBox="0 0 16 16" fill="none" xmlns="http://www.w3.org/2000/svg">
<path d="M8 14.5C11.5899 14.5 14.5 11.5899 14.5 8C14.5 4.41015 11.5899 1.5 8 1.5C4.41015 1.5 1.5 4.41015 1.5 8C1.5 11.5899 4.41015 14.5 8 14.5Z" fill="#FFF4EB" stroke="#E66D17"/>
<path fill-rule="evenodd" clip-rule="evenodd" d="M5 6C4.72386 6 4.5 6.22386 4.5 6.5C4.5 6.77614 4.72386 7 5 7H11C11.2761 7 11.5 6.77614 11.5 6.5C11.5 6.22386 11.2761 6 11 6H5ZM5.00002 8.99999C4.72388 8.99999 4.50002 9.22385 4.50002 9.49999C4.50002 9.77614 4.72388 9.99999 5.00002 9.99999H11C11.2762 9.99999 11.5 9.77614 11.5 9.49999C11.5 9.22385 11.2762 8.99999 11 8.99999H5.00002Z" fill="#E66D17"/>
</svg>
