<svg width="16" height="16" viewBox="0 0 16 16" fill="none" xmlns="http://www.w3.org/2000/svg">
<path d="M12.9497 3.05025C15.6834 5.78392 15.6834 10.2161 12.9497 12.9497C10.216 15.6834 5.78392 15.6834 3.05025 12.9497C0.316583 10.2161 0.316583 5.78392 3.05025 3.05025C5.78392 0.316583 10.216 0.316583 12.9497 3.05025Z" fill="#E7EFFD"/>
<path fill-rule="evenodd" clip-rule="evenodd" d="M14.9141 6.90481L13.9262 7.06045C13.7357 5.85124 13.1753 4.69027 12.2424 3.75736C11.3095 2.82445 10.1485 2.26404 8.9393 2.07352L9.09494 1.0857C10.506 1.30802 11.8621 1.96287 12.9495 3.05025C14.0369 4.13763 14.6917 5.49375 14.9141 6.90481ZM6.90456 1.0857L7.0602 2.07352C5.85099 2.26404 4.69002 2.82445 3.75711 3.75736C2.8242 4.69027 2.26378 5.85124 2.07327 7.06045L1.08545 6.90481C1.30777 5.49375 1.96262 4.13763 3.05 3.05025C4.13738 1.96287 5.4935 1.30802 6.90456 1.0857ZM1.08545 9.09519C1.30777 10.5063 1.96262 11.8624 3.05 12.9497C4.13738 14.0371 5.4935 14.692 6.90456 14.9143L7.06019 13.9265C5.85099 13.736 4.69002 13.1755 3.75711 12.2426C2.8242 11.3097 2.26378 10.1488 2.07327 8.93955L1.08545 9.09519ZM9.09494 14.9143L8.9393 13.9265C10.1485 13.736 11.3095 13.1755 12.2424 12.2426C13.1753 11.3097 13.7357 10.1488 13.9262 8.93955L14.9141 9.09519C14.6917 10.5063 14.0369 11.8624 12.9495 12.9497C11.8621 14.0371 10.506 14.692 9.09494 14.9143Z" fill="#3574F0"/>
<path d="M8.13295 11.5C9.61223 11.5 10.8836 10.6105 11.2075 9.33909H10.2213C9.90229 10.0739 9.11914 10.6057 8.13295 10.6057C6.77936 10.6057 5.80284 9.51796 5.80284 8C5.80284 6.48204 6.77936 5.39434 8.13295 5.39434C9.11914 5.39434 9.90229 5.92611 10.2213 6.66091H11.2075C10.8836 5.3895 9.61223 4.5 8.13295 4.5C6.21859 4.5 4.79248 5.99378 4.79248 8C4.79248 10.0062 6.21859 11.5 8.13295 11.5Z" fill="#3574F0"/>
</svg>
