<svg width="16" height="16" viewBox="0 0 16 16" fill="none" xmlns="http://www.w3.org/2000/svg">
<g clip-path="url(#clip0_3871_131746)">
<path fill-rule="evenodd" clip-rule="evenodd" d="M7.99953 0.854948C8.50209 0.854951 8.98836 1.05029 9.63562 1.54413C10.2944 2.04678 11.0588 2.80962 12.1243 3.87517C13.1899 4.94071 13.9527 5.70506 14.4553 6.36386C14.9492 7.01112 15.1445 7.4974 15.1446 7.99997C15.1445 8.50252 14.9492 8.9888 14.4554 9.63606C13.9527 10.2949 13.1899 11.0592 12.1243 12.1247C11.0588 13.1903 10.2944 13.9531 9.63562 14.4558C8.98837 14.9496 8.50206 15.145 7.99951 15.145C7.49695 15.145 7.01067 14.9496 6.36342 14.4558C5.70462 13.9531 4.94027 13.1903 3.87473 12.1247C2.80918 11.0592 2.04634 10.2949 1.54369 9.63606C1.04985 8.9888 0.854507 8.50254 0.854493 7.99999C0.854508 7.49742 1.04986 7.01112 1.5437 6.36386C2.04635 5.70506 2.80919 4.94071 3.87473 3.87517C4.94028 2.80962 5.70463 2.04678 6.36343 1.54413C7.01069 1.05029 7.49697 0.854951 7.99953 0.854948ZM12.8584 3.19502L12.8045 3.14111C11.7718 2.1084 10.9606 1.29726 10.2422 0.749108C9.50599 0.187396 8.80864 -0.145049 7.99952 -0.145052C7.19041 -0.145049 6.49306 0.187396 5.75685 0.749108C5.03841 1.29726 4.22728 2.1084 3.19458 3.14111L3.14068 3.19502C2.10797 4.22771 1.29683 5.03884 0.748678 5.75728C0.186962 6.49349 -0.14549 7.19086 -0.145508 7.99999C-0.145493 8.80909 0.186957 9.50643 0.74867 10.2426C1.29682 10.9611 2.10796 11.7722 3.14068 12.8049L3.19458 12.8588C4.22727 13.8915 5.0384 14.7027 5.75684 15.2508C6.49305 15.8125 7.19043 16.145 7.99954 16.145C8.80866 16.145 9.506 15.8125 10.2422 15.2508C10.9606 14.7027 11.7718 13.8915 12.8045 12.8588L12.8584 12.8049C13.8911 11.7722 14.7022 10.9611 15.2504 10.2426C15.8121 9.50643 16.1445 8.80907 16.1446 7.99997C16.1445 7.19084 15.8121 6.49349 15.2504 5.75728C14.7022 5.03884 13.8911 4.22771 12.8584 3.19502Z" fill="#E66D17"/>
<path d="M7.99953 0.854946C8.50209 0.854949 8.98836 1.05028 9.63562 1.54413C10.2944 2.04677 11.0588 2.80962 12.1243 3.87517C13.1899 4.94071 13.9527 5.70505 14.4553 6.36386C14.9492 7.01112 15.1445 7.4974 15.1446 7.99997C15.1445 8.50252 14.9492 8.9888 14.4554 9.63605C13.9527 10.2949 13.1899 11.0592 12.1243 12.1247C11.0588 13.1903 10.2944 13.9531 9.63562 14.4558C8.98837 14.9496 8.50206 15.145 7.99951 15.145C7.49695 15.145 7.01067 14.9496 6.36342 14.4558C5.70462 13.9531 4.94027 13.1903 3.87473 12.1247C2.80918 11.0592 2.04634 10.2949 1.54369 9.63605C1.04985 8.9888 0.854506 8.50253 0.854492 7.99999C0.854508 7.49742 1.04986 7.01112 1.5437 6.36386C2.04635 5.70505 2.80919 4.94071 3.87473 3.87517C4.94028 2.80962 5.70463 2.04677 6.36343 1.54413C7.01069 1.05028 7.49697 0.854949 7.99953 0.854946Z" fill="#FFF4EB"/>
<path d="M8.1329 11.5C9.62185 11.5 10.8981 10.6008 11.2123 9.32459H10.1971C9.8829 10.0546 9.10459 10.5767 8.1329 10.5767C6.79381 10.5767 5.82696 9.50345 5.82696 8C5.82696 6.49655 6.79381 5.42334 8.1329 5.42334C9.10459 5.42334 9.8829 5.94544 10.1971 6.67541H11.2123C10.8981 5.39917 9.62185 4.5 8.1329 4.5C6.2137 4.5 4.7876 5.99378 4.7876 8C4.7876 10.0062 6.2137 11.5 8.1329 11.5Z" fill="#E66D17"/>
</g>
<defs>
<clipPath id="clip0_3871_131746">
<rect width="16" height="16" fill="white"/>
</clipPath>
</defs>
</svg>
