<svg width="16" height="16" viewBox="0 0 16 16" fill="none" xmlns="http://www.w3.org/2000/svg">
<path fill-rule="evenodd" clip-rule="evenodd" d="M6.63403 1.5H9.36531C10.431 1.49999 11.2753 1.49999 11.9481 1.57977C12.6403 1.66186 13.2091 1.83367 13.6965 2.21758C14.0305 2.48072 14.3182 2.80531 14.5483 3.17497C14.8783 3.70519 15.0253 4.31892 15.0963 5.07755C15.1663 5.8247 15.1663 6.76623 15.1663 7.97365V8.02635C15.1663 8.60179 15.1663 9.11685 15.1588 9.57925C14.9275 9.03894 14.5875 8.55624 14.1663 8.15869L14.1663 8C14.1663 7.20398 14.1661 6.55011 14.1487 6H10.9998V7.00723C10.6537 7.02731 10.3187 7.08879 9.99976 7.1868V6H5.99976V13.4992C6.20823 13.5 6.42996 13.5 6.66634 13.5H7.64353C7.87929 13.8771 8.17253 14.2145 8.511 14.5H6.63403C5.56835 14.5 4.72404 14.5 4.05119 14.4202C3.35899 14.3382 2.79026 14.1664 2.30289 13.7824C1.96891 13.5193 1.68116 13.1947 1.45106 12.825C1.12104 12.2948 0.974087 11.6811 0.903007 10.9224C0.833001 10.1753 0.833004 9.23374 0.833008 8.02631V7.97369C0.833004 6.76625 0.833001 5.8247 0.903007 5.07755C0.974087 4.31891 1.12104 3.7052 1.45106 3.17497C1.68114 2.8053 1.96884 2.48072 2.30288 2.21759C2.79025 1.83367 3.35899 1.66186 4.05119 1.57977C4.72404 1.49999 5.56836 1.49999 6.63403 1.5ZM5.99976 5H9.99976V2.5008C9.79123 2.50004 9.56945 2.5 9.33301 2.5H6.66634C6.42996 2.5 6.20823 2.50004 5.99976 2.5008V5ZM10.9998 5H14.0829C14.0143 4.40801 13.8937 4.01573 13.6993 3.70338C13.5279 3.42805 13.317 3.19163 13.0777 3.00313C12.7902 2.77669 12.425 2.64332 11.8304 2.57282C11.5855 2.54378 11.3118 2.52632 10.9998 2.51583V5ZM4.99976 5H1.91648C1.98504 4.40801 2.10564 4.01573 2.30005 3.70338C2.47141 3.42805 2.68238 3.19164 2.92168 3.00313C3.20914 2.7767 3.57436 2.64332 4.16894 2.57282C4.41383 2.54378 4.68765 2.52632 4.99976 2.51582V5ZM1.85063 6H4.99976V13.4842C4.68765 13.4737 4.41383 13.4562 4.16894 13.4272C3.57439 13.3567 3.20917 13.2233 2.92172 12.9969C2.68238 12.8083 2.47139 12.5719 2.30004 12.2966C2.08752 11.9551 1.9632 11.5182 1.89865 10.8292C1.83352 10.1341 1.83301 9.23933 1.83301 8C1.83301 7.20398 1.83322 6.55011 1.85063 6Z" fill="#CED0D6"/>
<path fill-rule="evenodd" clip-rule="evenodd" d="M12.7383 13.4454C12.2479 13.7946 11.6479 14 11 14C9.34315 14 8 12.6569 8 11C8 9.34315 9.34315 8 11 8C12.6569 8 14 9.34315 14 11C14 11.6479 13.7946 12.2479 13.4454 12.7383L14.8536 14.1464C15.0488 14.3417 15.0488 14.6583 14.8536 14.8536C14.6583 15.0488 14.3417 15.0488 14.1464 14.8536L12.7383 13.4454ZM13 11C13 12.1046 12.1046 13 11 13C9.89543 13 9 12.1046 9 11C9 9.89543 9.89543 9 11 9C12.1046 9 13 9.89543 13 11Z" fill="#548AF7"/>
</svg>
