<svg width="16" height="16" viewBox="0 0 16 16" fill="none" xmlns="http://www.w3.org/2000/svg">
<path fill-rule="evenodd" clip-rule="evenodd" d="M9.36531 1.5H6.63403C5.56836 1.49999 4.72404 1.49999 4.05119 1.57977C3.35899 1.66186 2.79025 1.83367 2.30288 2.21759C1.96884 2.48072 1.68114 2.8053 1.45106 3.17497C1.12104 3.7052 0.974087 4.31891 0.903007 5.07755C0.833001 5.8247 0.833004 6.76625 0.833008 7.97369V8.02631C0.833004 9.23374 0.833001 10.1753 0.903007 10.9224C0.974087 11.6811 1.12104 12.2948 1.45106 12.825C1.68116 13.1947 1.96891 13.5193 2.30289 13.7824C2.79026 14.1664 3.35899 14.3382 4.05119 14.4202C4.72404 14.5 5.56835 14.5 6.63403 14.5H9.36531C10.431 14.5 11.2753 14.5 11.9481 14.4202C12.6403 14.3382 13.2091 14.1663 13.6965 13.7824C14.0305 13.5193 14.3182 13.1947 14.5483 12.825C14.8783 12.2948 15.0253 11.6811 15.0963 10.9224C15.1663 10.1753 15.1663 9.23376 15.1663 8.02635V7.97365C15.1663 6.76623 15.1663 5.8247 15.0963 5.07755C15.0253 4.31892 14.8783 3.70519 14.5483 3.17497C14.3182 2.80531 14.0305 2.48072 13.6965 2.21758C13.2091 1.83367 12.6403 1.66186 11.9481 1.57977C11.2753 1.49999 10.431 1.49999 9.36531 1.5ZM4.16894 2.57282C3.57436 2.64332 3.20914 2.7767 2.92168 3.00313C2.68238 3.19164 2.47141 3.42805 2.30005 3.70338C2.08752 4.04484 1.9632 4.48183 1.89865 5.17083C1.83352 5.86589 1.83301 6.76066 1.83301 8C1.83301 9.23933 1.83352 10.1341 1.89865 10.8292C1.9632 11.5182 2.08752 11.9551 2.30004 12.2966C2.47139 12.5719 2.68238 12.8083 2.92172 12.9969C3.20917 13.2233 3.57439 13.3567 4.16894 13.4272C4.53673 13.4708 4.96979 13.4883 5.49976 13.4953V2.50469C4.96979 2.51171 4.53673 2.5292 4.16894 2.57282ZM6.49976 2.50053V13.4995L6.83301 13.5H9.33301C10.4382 13.5 11.2232 13.4992 11.8304 13.4272C12.425 13.3567 12.7902 13.2233 13.0777 12.9969C13.317 12.8083 13.528 12.5719 13.6993 12.2966C13.9118 11.9552 14.0361 11.5182 14.1007 10.8292C14.1658 10.1341 14.1663 9.23933 14.1663 8C14.1663 6.76066 14.1658 5.86589 14.1007 5.17083C14.0361 4.48183 13.9118 4.04485 13.6993 3.70338C13.5279 3.42805 13.317 3.19163 13.0777 3.00313C12.7902 2.77669 12.425 2.64332 11.8304 2.57282C11.2232 2.50082 10.4382 2.5 9.33301 2.5H6.83301L6.49976 2.50053Z" fill="#6C707E"/>
<path d="M2.92168 3.00313C3.20914 2.77669 3.57436 2.64331 4.16894 2.57281C4.53673 2.52919 4.96979 2.5117 5.49976 2.50468V13.4953C4.96979 13.4883 4.53673 13.4708 4.16894 13.4272C3.57439 13.3567 3.20917 13.2233 2.92172 12.9969C2.68238 12.8083 2.47139 12.5719 2.30004 12.2966C2.08752 11.9551 1.9632 11.5182 1.89865 10.8291C1.83352 10.1341 1.83301 9.23932 1.83301 7.99999C1.83301 6.76065 1.83352 5.86588 1.89865 5.17083C1.9632 4.48182 2.08752 4.04483 2.30005 3.70337C2.47141 3.42804 2.68238 3.19163 2.92168 3.00313Z" fill="#EBECF0"/>
</svg>
