<svg width="16" height="16" viewBox="0 0 16 16" fill="none" xmlns="http://www.w3.org/2000/svg">
<path fill-rule="evenodd" clip-rule="evenodd" d="M9.36531 1.5H6.63403C5.56836 1.49999 4.72404 1.49999 4.05119 1.57977C3.35899 1.66186 2.79025 1.83367 2.30288 2.21759C1.96884 2.48072 1.68114 2.8053 1.45106 3.17497C1.12104 3.7052 0.974087 4.31891 0.903007 5.07755C0.833001 5.8247 0.833004 6.76625 0.833008 7.97369V8.02631C0.833004 9.23374 0.833001 10.1753 0.903007 10.9224C0.974087 11.6811 1.12104 12.2948 1.45106 12.825C1.68116 13.1947 1.96891 13.5193 2.30289 13.7824C2.79026 14.1664 3.35899 14.3382 4.05119 14.4202C4.72404 14.5 5.56835 14.5 6.63403 14.5H9.36531C10.431 14.5 11.2753 14.5 11.9481 14.4202C12.6403 14.3382 13.2091 14.1663 13.6965 13.7824C14.0305 13.5193 14.3182 13.1947 14.5483 12.825C14.8783 12.2948 15.0253 11.6811 15.0963 10.9224C15.1663 10.1753 15.1663 9.23376 15.1663 8.02635V7.97365C15.1663 6.76623 15.1663 5.8247 15.0963 5.07755C15.0253 4.31892 14.8783 3.70519 14.5483 3.17497C14.3182 2.80531 14.0305 2.48072 13.6965 2.21758C13.2091 1.83367 12.6403 1.66186 11.9481 1.57977C11.2753 1.49999 10.431 1.49999 9.36531 1.5ZM2.92168 3.00313C3.20914 2.7767 3.57436 2.64332 4.16894 2.57282C4.41383 2.54378 4.68765 2.52632 4.99976 2.51582V5H1.91648C1.98504 4.40801 2.10564 4.01573 2.30005 3.70338C2.47141 3.42805 2.68238 3.19164 2.92168 3.00313ZM1.85063 6C1.83322 6.55011 1.83301 7.20398 1.83301 8C1.83301 9.23933 1.83352 10.1341 1.89865 10.8292C1.9632 11.5182 2.08752 11.9551 2.30004 12.2966C2.47139 12.5719 2.68238 12.8083 2.92172 12.9969C3.20917 13.2233 3.57439 13.3567 4.16894 13.4272C4.41383 13.4562 4.68765 13.4737 4.99976 13.4842V6H1.85063ZM5.99976 6V13.4992C6.20823 13.5 6.42996 13.5 6.66634 13.5H9.33301C9.56945 13.5 9.79123 13.5 9.99976 13.4992V6H5.99976ZM10.9998 6V13.4842C11.3118 13.4737 11.5855 13.4562 11.8304 13.4272C12.425 13.3567 12.7902 13.2233 13.0777 12.9969C13.317 12.8083 13.528 12.5719 13.6993 12.2966C13.9118 11.9552 14.0361 11.5182 14.1007 10.8292C14.1658 10.1341 14.1663 9.23933 14.1663 8C14.1663 7.20398 14.1661 6.55011 14.1487 6H10.9998ZM14.0829 5H10.9998V2.51583C11.3118 2.52632 11.5855 2.54378 11.8304 2.57282C12.425 2.64332 12.7902 2.77669 13.0777 3.00313C13.317 3.19163 13.5279 3.42805 13.6993 3.70338C13.8937 4.01573 14.0143 4.40801 14.0829 5ZM9.99976 5H5.99976V2.5008C6.20823 2.50004 6.42996 2.5 6.66634 2.5H9.33301C9.56945 2.5 9.79123 2.50004 9.99976 2.5008V5Z" fill="#6C707E"/>
<path d="M1.85063 5.99999C1.83322 6.5501 1.83301 7.20397 1.83301 7.99999C1.83301 9.23932 1.83352 10.1341 1.89865 10.8291C1.9632 11.5182 2.08752 11.9551 2.30004 12.2966C2.47139 12.5719 2.68238 12.8083 2.92172 12.9969C3.20917 13.2233 3.57439 13.3567 4.16894 13.4272C4.41383 13.4562 4.68765 13.4737 4.99976 13.4842V5.99999H1.85063Z" fill="#EBECF0"/>
<path d="M4.16894 2.57281C3.57436 2.64332 3.20914 2.77669 2.92168 3.00313C2.68238 3.19163 2.47141 3.42805 2.30005 3.70337C2.10564 4.01572 1.98504 4.408 1.91648 4.99999H4.99976V2.51581C4.68765 2.52631 4.41383 2.54377 4.16894 2.57281Z" fill="#EBECF0"/>
<path d="M5.99976 4.99999H9.99976V2.50079C9.79123 2.50003 9.56945 2.49999 9.33301 2.49999H6.66634C6.42996 2.49999 6.20823 2.50003 5.99976 2.50079V4.99999Z" fill="#EBECF0"/>
<path d="M5.99976 13.4992V5.99999H9.99976V13.4992C9.79123 13.5 9.56945 13.5 9.33301 13.5H6.66634C6.42996 13.5 6.20823 13.5 5.99976 13.4992Z" fill="#EBECF0"/>
<path d="M10.9998 4.99999H14.0829C14.0143 4.408 13.8937 4.01573 13.6993 3.70338C13.5279 3.42804 13.317 3.19162 13.0777 3.00312C12.7902 2.77668 12.425 2.64331 11.8304 2.57281C11.5855 2.54377 11.3118 2.52632 10.9998 2.51582V4.99999Z" fill="#EBECF0"/>
<path d="M10.9998 5.99999V13.4842C11.3118 13.4737 11.5855 13.4562 11.8304 13.4272C12.425 13.3567 12.7902 13.2233 13.0777 12.9969C13.317 12.8083 13.528 12.5719 13.6993 12.2966C13.9118 11.9552 14.0361 11.5182 14.1007 10.8291C14.1658 10.1341 14.1663 9.23932 14.1663 7.99999C14.1663 7.20397 14.1661 6.5501 14.1487 5.99999H10.9998Z" fill="#EBECF0"/>
</svg>
