<svg width="16" height="16" viewBox="0 0 16 16" fill="none" xmlns="http://www.w3.org/2000/svg">
<g clip-path="url(#clip0_3871_131774)">
<path fill-rule="evenodd" clip-rule="evenodd" d="M14.4122 8.29497C14.0217 7.90444 13.3885 7.90444 12.998 8.29497L11.6466 9.64633L8 13.2929V16H10.7071L15.7051 11.0021C16.0956 10.6116 16.0956 9.97839 15.7051 9.58786L14.4122 8.29497ZM14 11.2929L14.998 10.295L13.7051 9.00208L12.7071 10L14 11.2929ZM12 10.7072L13.2929 12L10.2929 15H9V13.7072L12 10.7072Z" fill="#CED0D6"/>
<path d="M8.02437 3.59849L8.30184 4.16667L11.1194 4.16667C11.7829 4.16666 12.318 4.16666 12.7473 4.21137C13.1905 4.25752 13.5748 4.35542 13.9148 4.58799C14.1814 4.77041 14.4103 5.00479 14.5885 5.27772C14.8156 5.6258 14.9113 6.01928 14.9563 6.47299C14.9848 6.7593 14.9947 7.09155 14.9982 7.47616C14.7091 7.23066 14.3667 7.08052 14.0125 7.02572C14.0068 6.85812 13.998 6.70909 13.9846 6.5742C13.9474 6.19958 13.8784 5.98971 13.7763 5.83334C13.6694 5.66951 13.5321 5.52889 13.3721 5.41947C13.2194 5.31498 13.0144 5.24435 12.6485 5.20624C12.2744 5.16727 11.7891 5.16667 11.093 5.16667H8.01058C8.00377 5.16682 7.99697 5.16682 7.99017 5.16667H5.39535C5.12563 5.16667 4.90698 4.94281 4.90698 4.66667C4.90698 4.39053 5.12563 4.16667 5.39535 4.16667H7.20982L7.14056 4.02486C6.77999 3.2865 6.54357 2.80237 6.00478 2.59551C5.77582 2.5076 5.50412 2.5 4.7079 2.5C4.44542 2.5 4.21772 2.50009 4.01741 2.50264C3.75972 2.50592 3.54736 2.51327 3.36464 2.52977C3.0463 2.5585 2.86476 2.61196 2.72789 2.69016C2.58933 2.76933 2.46492 2.87062 2.35902 2.98958C2.28359 3.07431 2.21756 3.168 2.16248 3.26903C2.0861 3.40916 2.03388 3.59503 2.00581 3.92094C1.97719 4.25343 1.97674 4.68176 1.97674 5.29618V7.33334C1.97674 8.91881 1.97778 10.0576 2.09159 10.9243C2.20351 11.7766 2.41637 12.2904 2.7873 12.6701C3.15824 13.0499 3.66012 13.2678 4.49256 13.3824C5.14465 13.4722 5.95449 13.4934 7 13.4985V14.4986C5.94435 14.4937 5.07547 14.4717 4.36241 14.3735C3.42165 14.244 2.67931 13.9738 2.09664 13.3772C1.51398 12.7807 1.25004 12.0207 1.12356 11.0575C0.999986 10.1165 0.999992 8.91051 1 7.3716V5.27301C0.999995 4.68719 0.99999 4.2147 1.03284 3.83313C1.06669 3.43997 1.1383 3.09592 1.30956 2.78172C1.53023 2.3769 1.8565 2.04285 2.25191 1.81694C2.5588 1.64159 2.89486 1.56829 3.27887 1.53363C3.65157 1.49999 4.11306 1.5 4.68526 1.5L4.798 1.49998C5.46831 1.49967 5.93174 1.49946 6.34774 1.65918C7.2564 2.00804 7.65517 2.83415 7.96255 3.47092C7.98354 3.51439 8.00411 3.557 8.02437 3.59849Z" fill="#CED0D6"/>
<path d="M6.0046 2.59551C5.77564 2.5076 5.50394 2.5 4.70772 2.5C4.44524 2.5 4.21754 2.50009 4.01723 2.50264C3.75953 2.50592 3.54718 2.51328 3.36446 2.52977C3.04612 2.5585 2.86458 2.61196 2.72771 2.69016C2.58915 2.76933 2.46474 2.87062 2.35884 2.98958C2.28341 3.07431 2.21737 3.168 2.1623 3.26903C2.08592 3.40917 2.03369 3.59503 2.00563 3.92094C1.977 4.25343 1.97656 4.68176 1.97656 5.29618V7.33334C1.97656 8.91881 1.9776 10.0576 2.09141 10.9243C2.20333 11.7766 2.41619 12.2904 2.78712 12.6701C3.15806 13.0499 3.65993 13.2678 4.49238 13.3824C5.14446 13.4722 5.95428 13.4934 6.99976 13.4985V12.8787L12.2906 7.58789C12.7596 7.11893 13.4035 6.93154 14.0123 7.02573C14.0066 6.85812 13.9978 6.7091 13.9844 6.5742C13.9472 6.19958 13.8782 5.98971 13.7762 5.83334C13.6692 5.66951 13.5319 5.52889 13.3719 5.41947C13.2192 5.31498 13.0142 5.24435 12.6483 5.20624C12.2742 5.16727 11.7889 5.16667 11.0928 5.16667H8.0104C8.00359 5.16682 7.99678 5.16682 7.98999 5.16667H5.39517C5.12545 5.16667 4.9068 4.94281 4.9068 4.66667C4.9068 4.39053 5.12545 4.16667 5.39517 4.16667H7.20963L7.14038 4.02486C6.77981 3.2865 6.54339 2.80237 6.0046 2.59551Z" fill="#43454A"/>
</g>
<defs>
<clipPath id="clip0_3871_131774">
<rect width="16" height="16" fill="white"/>
</clipPath>
</defs>
</svg>
