<svg width="16" height="16" viewBox="0 0 16 16" fill="none" xmlns="http://www.w3.org/2000/svg">
<path d="M8.02437 3.5985L8.30184 4.16667L11.1194 4.16667C11.7829 4.16667 12.318 4.16666 12.7473 4.21137C13.1905 4.25753 13.5748 4.35543 13.9148 4.58799C14.1814 4.77041 14.4103 5.00479 14.5885 5.27773C14.8156 5.6258 14.9113 6.01929 14.9563 6.47299C15 6.91254 15 7.46036 15 8.1397V8.19491C15 8.38948 15 8.57692 14.9997 8.75754C14.698 8.55564 14.3705 8.38925 14.0233 8.26435C14.0233 8.23205 14.0233 8.19949 14.0233 8.16667C14.0233 7.45403 14.0227 6.95719 13.9846 6.5742C13.9474 6.19958 13.8784 5.98971 13.7763 5.83334C13.6694 5.66951 13.5321 5.5289 13.3721 5.41948C13.2194 5.31499 13.0144 5.24435 12.6485 5.20624C12.2744 5.16728 11.7891 5.16667 11.093 5.16667H8.01058C8.00377 5.16682 7.99697 5.16682 7.99017 5.16667H5.39535C5.12563 5.16667 4.90698 4.94282 4.90698 4.66667C4.90698 4.39053 5.12563 4.16667 5.39535 4.16667H7.20982L7.14056 4.02486C6.77999 3.2865 6.54357 2.80237 6.00478 2.59551C5.77582 2.50761 5.50412 2.50001 4.7079 2.50001C4.44542 2.50001 4.21772 2.50009 4.01741 2.50264C3.75972 2.50592 3.54736 2.51328 3.36464 2.52977C3.0463 2.5585 2.86476 2.61196 2.72789 2.69017C2.58933 2.76933 2.46492 2.87063 2.35902 2.98959C2.28359 3.07431 2.21756 3.168 2.16248 3.26904C2.0861 3.40917 2.03388 3.59503 2.00581 3.92095C1.97719 4.25344 1.97674 4.68176 1.97674 5.29619V7.33334C1.97674 8.91881 1.97778 10.0576 2.09159 10.9243C2.20351 11.7766 2.41637 12.2904 2.7873 12.6701C3.15824 13.0499 3.66012 13.2678 4.49256 13.3824C5.33906 13.4989 6.45139 13.5 8 13.5H8.11151C8.19108 13.8507 8.31159 14.1858 8.46776 14.5H7.96264C6.4595 14.5 5.28152 14.5 4.36241 14.3735C3.42165 14.244 2.67931 13.9738 2.09664 13.3772C1.51398 12.7807 1.25004 12.0207 1.12356 11.0575C0.999986 10.1165 0.999992 8.91051 1 7.3716V5.27301C0.999995 4.68719 0.99999 4.2147 1.03284 3.83314C1.06669 3.43998 1.1383 3.09593 1.30956 2.78172C1.53023 2.3769 1.8565 2.04286 2.25191 1.81694C2.5588 1.6416 2.89486 1.56829 3.27887 1.53363C3.65157 1.5 4.11306 1.5 4.68526 1.50001L4.798 1.49998C5.46831 1.49968 5.93174 1.49947 6.34774 1.65918C7.2564 2.00805 7.65517 2.83416 7.96255 3.47092C7.98354 3.51439 8.00411 3.557 8.02437 3.5985Z" fill="#F28C35"/>
<path d="M6.0046 2.5955C5.77564 2.5076 5.50394 2.5 4.70772 2.5C4.44524 2.5 4.21754 2.50009 4.01723 2.50264C3.75953 2.50592 3.54718 2.51327 3.36446 2.52976C3.04612 2.55849 2.86458 2.61196 2.72771 2.69016C2.58915 2.76933 2.46474 2.87062 2.35884 2.98958C2.28341 3.07431 2.21737 3.16799 2.1623 3.26903C2.08592 3.40916 2.03369 3.59502 2.00563 3.92094C1.977 4.25343 1.97656 4.68175 1.97656 5.29618V7.33333C1.97656 8.9188 1.9776 10.0576 2.09141 10.9243C2.20333 11.7766 2.41619 12.2904 2.78712 12.6701C3.15806 13.0499 3.65993 13.2678 4.49238 13.3824C5.33888 13.4989 6.4512 13.5 7.99982 13.5H8.11126C8.03829 13.1784 7.99976 12.8437 7.99976 12.5C7.99976 10.0147 10.0145 8 12.4998 8C13.0344 8 13.5473 8.09325 14.0231 8.26437C14.0231 8.23206 14.0231 8.19949 14.0231 8.16667C14.0231 7.45403 14.0225 6.95718 13.9844 6.57419C13.9472 6.19957 13.8782 5.98971 13.7762 5.83333C13.6692 5.66951 13.5319 5.52889 13.3719 5.41947C13.2192 5.31498 13.0142 5.24434 12.6483 5.20623C12.2742 5.16727 11.7889 5.16667 11.0928 5.16667H8.0104C8.00359 5.16681 7.99678 5.16681 7.98999 5.16667H5.39517C5.12545 5.16667 4.9068 4.94281 4.9068 4.66667C4.9068 4.39052 5.12545 4.16667 5.39517 4.16667H7.20963L7.14038 4.02486C6.77981 3.2865 6.54339 2.80236 6.0046 2.5955Z" fill="#FCE9D9"/>
<path d="M13.5 12.5C13.5 13.0523 13.0523 13.5 12.5 13.5C11.9477 13.5 11.5 13.0523 11.5 12.5C11.5 11.9477 11.9477 11.5 12.5 11.5C13.0523 11.5 13.5 11.9477 13.5 12.5Z" fill="#E66D17"/>
<path d="M13 9.5C13 9.22386 12.7761 9 12.5 9C12.2239 9 12 9.22386 12 9.5V10.5C12 10.7761 12.2239 11 12.5 11C12.7761 11 13 10.7761 13 10.5V9.5Z" fill="#E66D17"/>
<path d="M13 14.5C13 14.2239 12.7761 14 12.5 14C12.2239 14 12 14.2239 12 14.5V15.5C12 15.7761 12.2239 16 12.5 16C12.7761 16 13 15.7761 13 15.5V14.5Z" fill="#E66D17"/>
<path d="M10.1518 10.5671C9.91262 10.429 9.60682 10.5109 9.46875 10.7501C9.33068 10.9892 9.41262 11.295 9.65176 11.4331L10.5178 11.9331C10.7569 12.0712 11.0627 11.9892 11.2008 11.7501C11.3389 11.5109 11.2569 11.2051 11.0178 11.0671L10.1518 10.5671Z" fill="#E66D17"/>
<path d="M9.65176 13.5672C9.41262 13.7052 9.33068 14.011 9.46875 14.2502C9.60682 14.4893 9.91262 14.5713 10.1518 14.4332L11.0178 13.9332C11.2569 13.7951 11.3389 13.4893 11.2008 13.2502C11.0627 13.011 10.7569 12.9291 10.5178 13.0672L9.65176 13.5672Z" fill="#E66D17"/>
<path d="M14.4823 13.0671C14.2432 12.929 13.9374 13.0109 13.7993 13.2501C13.6612 13.4892 13.7432 13.795 13.9823 13.9331L14.8484 14.4331C15.0875 14.5712 15.3933 14.4892 15.5314 14.2501C15.6694 14.0109 15.5875 13.7051 15.3484 13.5671L14.4823 13.0671Z" fill="#E66D17"/>
<path d="M13.9823 11.0671C13.7432 11.2051 13.6612 11.5109 13.7993 11.7501C13.9374 11.9892 14.2432 12.0712 14.4823 11.9331L15.3484 11.4331C15.5875 11.295 15.6694 10.9892 15.5314 10.7501C15.3933 10.5109 15.0875 10.429 14.8484 10.5671L13.9823 11.0671Z" fill="#E66D17"/>
</svg>
