<svg width="16" height="16" viewBox="0 0 16 16" fill="none" xmlns="http://www.w3.org/2000/svg">
<path fill-rule="evenodd" clip-rule="evenodd" d="M8.30184 4.16667L8.02437 3.5985C8.00411 3.557 7.98354 3.51439 7.96255 3.47092C7.65517 2.83416 7.2564 2.00805 6.34774 1.65918C5.93174 1.49947 5.46831 1.49968 4.798 1.49998L4.7079 1.50001L4.68526 1.50001C4.11306 1.5 3.65157 1.5 3.27887 1.53363C2.89486 1.56829 2.5588 1.6416 2.25191 1.81694C1.8565 2.04286 1.53023 2.3769 1.30956 2.78172C1.1383 3.09593 1.06669 3.43998 1.03284 3.83314C0.99999 4.2147 0.999994 4.68719 1 5.27301V7.37159C0.999992 8.91051 0.999985 10.1165 1.12356 11.0575C1.25004 12.0207 1.51398 12.7807 2.09664 13.3772C2.67931 13.9738 3.42165 14.244 4.36241 14.3735C5.28152 14.5 6.4595 14.5 7.96264 14.5H8.84153C9.96137 14.5 10.8392 14.5 11.5382 14.4272C12.251 14.353 12.8318 14.1989 13.336 13.8539C13.7448 13.5743 14.0959 13.2149 14.369 12.7964C14.7059 12.2801 14.8564 11.6856 14.9289 10.9557C15 10.2401 15 9.34141 15 8.19491V8.13972C15 7.46038 15 6.91254 14.9563 6.47299C14.9113 6.01929 14.8156 5.6258 14.5885 5.27773C14.4103 5.00479 14.1814 4.77041 13.9148 4.58799C13.5748 4.35543 13.1905 4.25753 12.7473 4.21137C12.318 4.16666 11.7829 4.16667 11.1194 4.16667L8.30184 4.16667ZM6.00478 2.59551C5.77582 2.50761 5.50412 2.50001 4.7079 2.50001C4.44542 2.50001 4.21772 2.50009 4.01741 2.50264C3.75972 2.50592 3.54736 2.51328 3.36464 2.52977C3.0463 2.5585 2.86476 2.61196 2.72789 2.69017C2.58933 2.76933 2.46492 2.87063 2.35902 2.98959C2.28359 3.07431 2.21756 3.168 2.16248 3.26904C2.0861 3.40917 2.03388 3.59503 2.00581 3.92095C1.97719 4.25344 1.97674 4.68176 1.97674 5.29619V7.33334C1.97674 8.91881 1.97778 10.0576 2.09159 10.9243C2.20351 11.7766 2.41637 12.2904 2.7873 12.6701C3.15824 13.0499 3.66012 13.2678 4.49256 13.3824C5.33906 13.4989 6.45139 13.5 8 13.5H8.81395C9.9673 13.5 10.7955 13.4994 11.4393 13.4324C12.0749 13.3661 12.4763 13.2393 12.7934 13.0225C13.0955 12.8158 13.355 12.5502 13.5568 12.2409C13.7686 11.9163 13.8925 11.5053 13.9572 10.8545C14.0227 10.1954 14.0233 9.34748 14.0233 8.16667C14.0233 7.45403 14.0227 6.95719 13.9846 6.5742C13.9474 6.19958 13.8784 5.98971 13.7763 5.83334C13.6694 5.66951 13.5321 5.5289 13.3721 5.41948C13.2194 5.31499 13.0144 5.24435 12.6485 5.20624C12.2744 5.16728 11.7891 5.16667 11.093 5.16667H8.01058C8.00377 5.16682 7.99697 5.16682 7.99017 5.16667H5.39535C5.12563 5.16667 4.90698 4.94282 4.90698 4.66667C4.90698 4.39053 5.12563 4.16667 5.39535 4.16667H7.20982L7.14056 4.02486C6.77999 3.2865 6.54357 2.80237 6.00478 2.59551Z" fill="#CED0D6"/>
<path d="M4.70772 2.5C5.50394 2.5 5.77564 2.5076 6.0046 2.5955C6.54338 2.80236 6.77981 3.2865 7.14038 4.02486L7.20963 4.16667H5.39517C5.12545 4.16667 4.9068 4.39052 4.9068 4.66667C4.9068 4.94281 5.12545 5.16667 5.39517 5.16667H7.98999C7.99678 5.16681 8.00359 5.16681 8.0104 5.16667H11.0928C11.7889 5.16667 12.2742 5.16727 12.6483 5.20623C13.0142 5.24434 13.2192 5.31498 13.3719 5.41947C13.5319 5.52889 13.6692 5.66951 13.7762 5.83333C13.8782 5.98971 13.9472 6.19957 13.9844 6.57419C14.0225 6.95718 14.0231 7.45403 14.0231 8.16667C14.0231 9.34747 14.0225 10.1954 13.957 10.8545C13.8923 11.5053 13.7684 11.9163 13.5566 12.2408C13.3548 12.5502 13.0953 12.8158 12.7932 13.0225C12.4762 13.2393 12.0747 13.3661 11.4391 13.4323C10.7953 13.4994 9.96712 13.5 8.81377 13.5H7.99982C6.4512 13.5 5.33888 13.4989 4.49238 13.3824C3.65993 13.2678 3.15806 13.0499 2.78712 12.6701C2.41619 12.2904 2.20333 11.7766 2.09141 10.9243C1.9776 10.0576 1.97656 8.9188 1.97656 7.33333V5.29618C1.97656 4.68175 1.977 4.25343 2.00563 3.92094C2.03369 3.59502 2.08592 3.40916 2.1623 3.26903C2.21737 3.16799 2.28341 3.07431 2.35884 2.98958C2.46474 2.87062 2.58915 2.76933 2.72771 2.69016C2.86458 2.61196 3.04612 2.55849 3.36446 2.52976C3.54718 2.51327 3.75953 2.50592 4.01723 2.50264C4.21754 2.50009 4.44524 2.5 4.70772 2.5Z" fill="#43454A"/>
</svg>
