<svg width="16" height="16" viewBox="0 0 16 16" fill="none" xmlns="http://www.w3.org/2000/svg">
<path fill-rule="evenodd" clip-rule="evenodd" d="M13.6978 6.96474V6.64571C13.6978 6.1968 13.6978 5.82966 13.674 5.53128C13.6493 5.22244 13.5967 4.9435 13.4671 4.683C13.2642 4.27536 12.9405 3.94389 12.5423 3.73615C12.2878 3.60342 12.0154 3.5496 11.7137 3.52437C11.4223 3.49999 11.0637 3.49999 10.6252 3.5L7.20324 3.5L6.16663 2.183C5.82669 1.75111 5.31405 1.5 4.77229 1.5H4.43243C3.97542 1.5 3.60845 1.49999 3.31058 1.52152C3.00382 1.54368 2.73408 1.59044 2.47854 1.70277C1.90338 1.95558 1.44499 2.42487 1.19806 3.01372C1.08822 3.27564 1.04263 3.55321 1.02101 3.86742C0.999994 4.17293 0.999997 4.54861 1 5.01432V12.6667C1 12.6835 1.00081 12.7001 1.00239 12.7164C0.986671 13.0604 1.05037 13.3906 1.25241 13.6948C1.56042 14.1585 2.04234 14.3396 2.58216 14.4209C3.10404 14.4995 3.78994 14.4995 4.63075 14.4995L9.9473 14.4995C10.5674 14.4995 11.0723 14.4995 11.4829 14.4535C11.9114 14.4056 12.2829 14.3038 12.6213 14.0702C12.9598 13.8366 13.1909 13.5224 13.394 13.1341C13.5885 12.7624 13.7761 12.2843 14.0063 11.6976L14.226 11.1376C14.5382 10.3421 14.7931 9.69253 14.9155 9.16892C15.0422 8.62669 15.0561 8.1018 14.7477 7.63742C14.494 7.25559 14.1225 7.06538 13.6978 6.96474ZM3.37935 2.51904C3.1249 2.53742 2.97738 2.57177 2.86387 2.62166C2.51878 2.77335 2.24375 3.05493 2.09558 3.40824C2.04698 3.52415 2.01334 3.67615 1.99535 3.93768C1.97703 4.20392 1.97675 4.54432 1.97675 5.03268V9.67828L1.99371 9.63507C2.22398 9.04818 2.4116 8.57 2.60612 8.19816C2.80924 7.80988 3.04028 7.49573 3.37883 7.26208C3.71724 7.02853 4.08874 6.92672 4.51722 6.87875C4.9278 6.83279 5.43267 6.8328 6.0528 6.83281L11.3693 6.83281C11.877 6.83279 12.3283 6.83278 12.721 6.85008V6.66667C12.721 6.19171 12.7206 5.86556 12.7005 5.61272C12.6808 5.36572 12.6446 5.23304 12.5968 5.13702C12.4875 4.91747 12.3132 4.739 12.0988 4.62715C12.005 4.57823 11.8754 4.54123 11.6342 4.52105C11.3872 4.50039 11.0686 4.5 10.6047 4.5H4.74422C4.47449 4.5 4.25584 4.27614 4.25584 4C4.25584 3.72386 4.47449 3.5 4.74422 3.5H5.94882L5.40608 2.81046C5.25157 2.61415 5.01854 2.5 4.77229 2.5H4.45055C3.97117 2.5 3.63876 2.50029 3.37935 2.51904ZM11.3288 7.83281C12.2201 7.83281 12.8335 7.8341 13.2758 7.90071C13.7085 7.96587 13.8589 8.0777 13.94 8.19979C14.0207 8.32128 14.0666 8.50362 13.9655 8.93626C13.862 9.37913 13.6356 9.95971 13.3045 10.8035L13.1102 11.2986C12.8672 11.9178 12.6991 12.3444 12.533 12.662C12.3726 12.9686 12.235 13.1308 12.0753 13.241C11.9155 13.3513 11.7161 13.4215 11.3767 13.4595C11.0254 13.4988 10.574 13.4995 9.91996 13.4995H4.67136C3.78005 13.4995 3.16663 13.4982 2.72428 13.4316C2.29148 13.3664 2.1412 13.2546 2.06011 13.1325C1.97943 13.011 1.93349 12.8287 2.03459 12.396C2.13808 11.9532 2.36452 11.3726 2.69561 10.5288L2.88993 10.0337C3.13288 9.41449 3.30102 8.98787 3.46716 8.67029C3.62754 8.3637 3.7651 8.20148 3.9248 8.09127C4.08465 7.98095 4.28395 7.91083 4.62339 7.87283C4.97471 7.8335 5.42608 7.83281 6.08013 7.83281H11.3288Z" fill="#6C707E"/>
<path fill-rule="evenodd" clip-rule="evenodd" d="M11.3287 7.83281C12.22 7.83281 12.8334 7.83411 13.2757 7.90071C13.7085 7.96587 13.8588 8.07771 13.9399 8.19979C14.0206 8.32128 14.0665 8.50362 13.9654 8.93626C13.862 9.37913 13.6355 9.95971 13.3044 10.8035L13.1101 11.2986C12.8672 11.9178 12.699 12.3444 12.5329 12.662C12.3725 12.9686 12.2349 13.1308 12.0752 13.241C11.9154 13.3513 11.7161 13.4215 11.3766 13.4595C11.0253 13.4988 10.5739 13.4995 9.91987 13.4995H4.67128C3.77996 13.4995 3.16654 13.4982 2.7242 13.4316C2.2914 13.3664 2.14111 13.2546 2.06002 13.1325C1.97935 13.011 1.9334 12.8287 2.03451 12.396C2.138 11.9532 2.36443 11.3726 2.69553 10.5288L2.88985 10.0337C3.13279 9.4145 3.30094 8.98787 3.46707 8.67029C3.62746 8.36371 3.76502 8.20149 3.92471 8.09127C4.08456 7.98096 4.28387 7.91083 4.6233 7.87283C4.97462 7.8335 5.42599 7.83281 6.08005 7.83281H11.3287Z" fill="#EBECF0"/>
</svg>
