<svg width="16" height="16" viewBox="0 0 16 16" fill="none" xmlns="http://www.w3.org/2000/svg">
<path d="M8.33214 2.63202L13.3321 7.07538C13.4389 7.17027 13.5 7.30629 13.5 7.44913V13C13.5 13.2761 13.2761 13.5 13 13.5H10C9.72386 13.5 9.5 13.2761 9.5 13V11C9.5 10.1716 8.82843 9.49999 8 9.49999C7.17157 9.49999 6.5 10.1716 6.5 11V13C6.5 13.2761 6.27614 13.5 6 13.5H3C2.72386 13.5 2.5 13.2761 2.5 13V7.44913C2.5 7.30629 2.56109 7.17027 2.66786 7.07538L7.66786 2.63202C7.85729 2.46368 8.14271 2.46368 8.33214 2.63202Z" fill="#EBECF0" stroke="#6C707E" stroke-linecap="round" stroke-linejoin="round"/>
</svg>
