<svg width="16" height="16" viewBox="0 0 16 16" fill="none" xmlns="http://www.w3.org/2000/svg">
<path fill-rule="evenodd" clip-rule="evenodd" d="M13.5353 8.95397C13.1482 8.20108 12.0339 8.08523 11.4992 8.88231L11.4992 8.88232C11.4071 9.01974 11.3498 9.2501 11.3308 9.57805C11.3218 9.73181 11.3217 9.87774 11.3241 10.0223C12.0601 10.0078 13.0316 10.009 13.6703 10.0209C13.673 9.89365 13.6744 9.77012 13.6705 9.64847C13.6612 9.35161 13.6213 9.12117 13.5353 8.95398L13.5353 8.95397ZM14.6688 10.0993C14.6723 9.95114 14.6753 9.78549 14.67 9.61706C14.6593 9.27436 14.6135 8.86394 14.4246 8.49665C13.6918 7.07156 11.6308 6.89101 10.6688 8.32528C10.4221 8.69297 10.354 9.14831 10.3324 9.52007C10.3215 9.70776 10.3221 9.90888 10.3252 10.0919C10.0342 10.1612 9.79914 10.2942 9.61462 10.4827C9.36304 10.7397 9.25532 11.0567 9.19213 11.2426C9.19028 11.2481 9.18847 11.2534 9.1867 11.2586L9.18221 11.2718L9.17845 11.2852C9.03581 11.7956 8.90888 12.9129 9.1108 14.125L9.11195 14.1319L9.1133 14.1388C9.3062 15.1248 10.0803 15.5741 10.7397 15.63L10.7397 15.63C11.1431 15.6642 12.5712 15.6594 13.3503 15.6568C13.5098 15.6562 13.6421 15.6558 13.7328 15.6558C14.1877 15.6558 14.649 15.6092 15.0416 15.3858C15.4595 15.1479 15.7232 14.756 15.8761 14.2311L15.8834 14.2058L15.8881 14.1798C16.0185 13.4544 16.0592 12.1615 15.8317 11.2931L15.8267 11.2742L15.8203 11.2559C15.6511 10.7681 15.3759 10.4441 15.0426 10.253C14.9168 10.1809 14.7901 10.132 14.6688 10.0993ZM14.1362 11.0356C13.6326 11.0075 11.7577 11.0001 10.8531 11.0359L10.8432 11.0363H10.8333C10.5052 11.0363 10.3847 11.1256 10.3292 11.1822C10.2526 11.2605 10.2053 11.3708 10.1381 11.5671C10.0375 11.939 9.92091 12.8946 10.096 13.9532C10.1898 14.4188 10.5274 14.6084 10.8242 14.6336C11.1765 14.6634 12.5124 14.6593 13.305 14.6568C13.4793 14.6563 13.6273 14.6558 13.7328 14.6558C14.1451 14.6558 14.3882 14.607 14.5468 14.5167C14.6769 14.4427 14.8079 14.3072 14.9085 13.9764C15.0174 13.3438 15.0409 12.243 14.8693 11.5658C14.7698 11.2898 14.6418 11.1759 14.5453 11.1206C14.4354 11.0576 14.3055 11.0363 14.164 11.0363H14.1501L14.1362 11.0356Z" fill="#6C707E"/>
<path d="M10.8532 11.0359C11.7577 11 13.6326 11.0075 14.1362 11.0356L14.1501 11.0363H14.164C14.3055 11.0363 14.4354 11.0576 14.5453 11.1206C14.6418 11.1759 14.7698 11.2898 14.8693 11.5658C15.0409 12.243 15.0174 13.3437 14.9086 13.9764C14.8079 14.3072 14.677 14.4427 14.5469 14.5167C14.3882 14.607 14.1451 14.6558 13.7328 14.6558C13.6273 14.6558 13.4793 14.6563 13.305 14.6568C12.5124 14.6593 11.1766 14.6634 10.8242 14.6336C10.5274 14.6084 10.1898 14.4188 10.096 13.9532C9.92093 12.8945 10.0375 11.939 10.1381 11.5671C10.2053 11.3708 10.2526 11.2605 10.3293 11.1822C10.3847 11.1256 10.5052 11.0363 10.8333 11.0363H10.8433L10.8532 11.0359Z" fill="#EBECF0"/>
</svg>
