<svg width="16" height="16" viewBox="0 0 16 16" fill="none" xmlns="http://www.w3.org/2000/svg">
<path d="M12.9497 3.05025C15.6834 5.78392 15.6834 10.2161 12.9497 12.9497C10.2161 15.6834 5.78392 15.6834 3.05025 12.9497C0.316583 10.2161 0.316583 5.78392 3.05025 3.05025C5.78392 0.316582 10.2161 0.316584 12.9497 3.05025Z" fill="#FFF7F7"/>
<path fill-rule="evenodd" clip-rule="evenodd" d="M14.9145 6.9048L13.9267 7.06044C13.7361 5.85123 13.1757 4.69026 12.2428 3.75735C11.3099 2.82444 10.1489 2.26403 8.93978 2.07351L9.09542 1.08569C10.5064 1.30801 11.8625 1.96286 12.9499 3.05024C14.0373 4.13762 14.6922 5.49374 14.9145 6.9048ZM6.90504 1.08569L7.06068 2.07351C5.85147 2.26403 4.6905 2.82444 3.75759 3.75735C2.82468 4.69026 2.26427 5.85123 2.07375 7.06044L1.08594 6.9048C1.30826 5.49374 1.9631 4.13762 3.05048 3.05024C4.13786 1.96286 5.49398 1.30801 6.90504 1.08569ZM1.08594 9.09518C1.30826 10.5063 1.9631 11.8624 3.05048 12.9497C4.13786 14.0371 5.49398 14.692 6.90504 14.9143L7.06068 13.9265C5.85147 13.736 4.6905 13.1755 3.75759 12.2426C2.82468 11.3097 2.26427 10.1488 2.07375 8.93954L1.08594 9.09518ZM9.09542 14.9143L8.93978 13.9265C10.1489 13.736 11.3099 13.1755 12.2428 12.2426C13.1757 11.3097 13.7361 10.1488 13.9267 8.93954L14.9145 9.09518C14.6922 10.5063 14.0373 11.8624 12.9499 12.9497C11.8625 14.0371 10.5064 14.692 9.09542 14.9143Z" fill="#DB3B4B"/>
<path d="M10.0657 5.24573C9.25361 5.24573 8.636 5.6473 8.29593 6.31537C8.00368 5.64257 7.40552 5.24573 6.6071 5.24573C5.84915 5.24573 5.28147 5.60946 4.96189 6.24862V5.37188H4V10.7543H4.99869V7.59001C4.99869 6.68068 5.5138 6.10775 6.32852 6.10775C7.0749 6.10775 7.50591 6.61761 7.50591 7.43758V10.7543H8.49409V7.59001C8.49409 6.68068 9.01971 6.10775 9.82392 6.10775C10.5756 6.10775 11.0013 6.61761 11.0013 7.43758V10.7543H12V7.35874C12 6.07096 11.2168 5.24573 10.0657 5.24573Z" fill="#DB3B4B"/>
</svg>
