<svg width="16" height="16" viewBox="0 0 16 16" fill="none" xmlns="http://www.w3.org/2000/svg">
<path d="M8.02437 3.5985L8.30184 4.16667L11.1194 4.16667C11.7829 4.16667 12.318 4.16666 12.7473 4.21137C13.1905 4.25753 13.5748 4.35543 13.9148 4.58799C14.1814 4.77041 14.4103 5.00479 14.5885 5.27773C14.8156 5.6258 14.9113 6.01929 14.9563 6.47299C15 6.91254 15 7.46036 15 8.1397V8.17071C14.6941 8.0626 14.3655 8.00268 14.0232 8.00009C14.0229 7.37544 14.0196 6.92662 13.9846 6.5742C13.9474 6.19958 13.8784 5.98971 13.7763 5.83334C13.6694 5.66951 13.5321 5.5289 13.3721 5.41948C13.2194 5.31499 13.0144 5.24435 12.6485 5.20624C12.2744 5.16728 11.7891 5.16667 11.093 5.16667H8.01058C8.00377 5.16682 7.99697 5.16682 7.99017 5.16667H5.39535C5.12563 5.16667 4.90698 4.94282 4.90698 4.66667C4.90698 4.39053 5.12563 4.16667 5.39535 4.16667H7.20982L7.14056 4.02486C6.77999 3.2865 6.54357 2.80237 6.00478 2.59551C5.77582 2.50761 5.50412 2.50001 4.7079 2.50001C4.44542 2.50001 4.21772 2.50009 4.01741 2.50264C3.75972 2.50592 3.54736 2.51328 3.36464 2.52977C3.0463 2.5585 2.86476 2.61196 2.72789 2.69017C2.58933 2.76933 2.46492 2.87063 2.35902 2.98959C2.28359 3.07431 2.21756 3.168 2.16248 3.26904C2.0861 3.40917 2.03388 3.59503 2.00581 3.92095C1.97719 4.25344 1.97674 4.68176 1.97674 5.29619V7.33334C1.97674 8.91881 1.97778 10.0576 2.09159 10.9243C2.20351 11.7766 2.41637 12.2904 2.7873 12.6701C3.15824 13.0499 3.66012 13.2678 4.49256 13.3824C5.33906 13.4989 6.45139 13.5 8 13.5V14C8 14.1704 8.0142 14.3374 8.04148 14.5H7.96264C6.4595 14.5 5.28152 14.5 4.36241 14.3735C3.42165 14.244 2.67931 13.9738 2.09664 13.3772C1.51398 12.7807 1.25004 12.0207 1.12356 11.0575C0.999986 10.1165 0.999992 8.91051 1 7.3716V5.27301C0.999995 4.68719 0.99999 4.2147 1.03284 3.83314C1.06669 3.43998 1.1383 3.09593 1.30956 2.78172C1.53023 2.3769 1.8565 2.04286 2.25191 1.81694C2.5588 1.6416 2.89486 1.56829 3.27887 1.53363C3.65157 1.5 4.11306 1.5 4.68526 1.50001L4.798 1.49998C5.46831 1.49968 5.93174 1.49947 6.34774 1.65918C7.2564 2.00805 7.65517 2.83416 7.96255 3.47092C7.98354 3.51439 8.00411 3.557 8.02437 3.5985Z" fill="#6C707E"/>
<path d="M6.0046 2.5955C5.77564 2.5076 5.50394 2.5 4.70772 2.5C4.44524 2.5 4.21754 2.50009 4.01723 2.50264C3.75953 2.50592 3.54718 2.51327 3.36446 2.52976C3.04612 2.55849 2.86458 2.61196 2.72771 2.69016C2.58915 2.76933 2.46474 2.87062 2.35884 2.98958C2.28341 3.07431 2.21737 3.16799 2.1623 3.26903C2.08592 3.40916 2.03369 3.59502 2.00563 3.92094C1.977 4.25343 1.97656 4.68175 1.97656 5.29618V7.33333C1.97656 8.9188 1.9776 10.0576 2.09141 10.9243C2.20333 11.7766 2.41619 12.2904 2.78712 12.6701C3.15806 13.0499 3.65993 13.2678 4.49238 13.3824C5.33887 13.4989 6.45117 13.5 7.99976 13.5V11C7.99976 9.34315 9.3429 8 10.9998 8H13.9998C14.0075 8 14.0153 8.00003 14.023 8.00009C14.0227 7.37544 14.0194 6.92661 13.9844 6.57419C13.9472 6.19957 13.8782 5.98971 13.7762 5.83333C13.6692 5.66951 13.5319 5.52889 13.3719 5.41947C13.2192 5.31498 13.0142 5.24434 12.6483 5.20623C12.2742 5.16727 11.7889 5.16667 11.0928 5.16667H8.0104C8.00359 5.16681 7.99678 5.16681 7.98999 5.16667H5.39517C5.12545 5.16667 4.9068 4.94281 4.9068 4.66667C4.9068 4.39052 5.12545 4.16667 5.39517 4.16667H7.20963L7.14038 4.02486C6.77981 3.2865 6.54339 2.80236 6.0046 2.5955Z" fill="#EBECF0"/>
<path d="M14 9.5H11C10.1716 9.5 9.5 10.1716 9.5 11V14C9.5 14.8284 10.1716 15.5 11 15.5H14C14.8284 15.5 15.5 14.8284 15.5 14V11C15.5 10.1716 14.8284 9.5 14 9.5Z" fill="#E7EFFD" stroke="#3574F0"/>
</svg>
