<svg width="16" height="16" viewBox="0 0 16 16" fill="none" xmlns="http://www.w3.org/2000/svg">
<path fill-rule="evenodd" clip-rule="evenodd" d="M3.9998 5.59999C3.9998 3.83268 5.43248 2.39999 7.1998 2.39999H10.3998C11.2834 2.39999 11.9998 3.11634 11.9998 3.99999V4.79999H14.5998C14.9312 4.79999 15.1998 5.06863 15.1998 5.39999C15.1998 5.73135 14.9312 5.99999 14.5998 5.99999H11.9998V9.99999H14.5998C14.9312 9.99999 15.1998 10.2686 15.1998 10.6C15.1998 10.9314 14.9312 11.2 14.5998 11.2H11.9998V12C11.9998 12.8836 11.2834 13.6 10.3998 13.6H7.1998C5.43248 13.6 3.9998 12.1673 3.9998 10.4H2.3998C1.51615 10.4 0.799805 9.68363 0.799805 8.79999V7.19999C0.799805 6.31635 1.51615 5.59999 2.3998 5.59999H3.9998ZM7.1998 3.59999H10.3998C10.6207 3.59999 10.7998 3.77908 10.7998 3.99999V12C10.7998 12.2209 10.6207 12.4 10.3998 12.4H7.1998C6.09524 12.4 5.1998 11.5046 5.1998 10.4V5.59999C5.1998 4.49543 6.09524 3.59999 7.1998 3.59999ZM3.9998 6.79999H2.3998C2.17889 6.79999 1.9998 6.97907 1.9998 7.19999V8.79999C1.9998 9.02091 2.17889 9.19999 2.3998 9.19999H3.9998V6.79999Z" fill="#C4C4C4"/>
</svg>
