<svg width="16" height="16" viewBox="0 0 16 16" fill="none" xmlns="http://www.w3.org/2000/svg">
<path d="M8 14.5C11.5899 14.5 14.5 11.5899 14.5 8C14.5 4.41015 11.5899 1.5 8 1.5C4.41015 1.5 1.5 4.41015 1.5 8C1.5 11.5899 4.41015 14.5 8 14.5Z" fill="#2F2936" stroke="#B589EC"/>
<path d="M8.57081 5C7.72702 5 7.06335 5.37098 6.68265 5.99832V5.12281H5.7002V12H6.70312V9.52032C7.08689 10.1272 7.74186 10.4854 8.57081 10.4854C10.0291 10.4854 11.0474 9.36988 11.0474 7.74269C11.0474 6.1155 10.0291 5 8.57081 5ZM8.361 9.5848C7.38366 9.5848 6.70312 8.8326 6.70312 7.74269C6.70312 6.65278 7.38366 5.90058 8.361 5.90058C9.33323 5.90058 10.0036 6.65278 10.0036 7.74269C10.0036 8.8326 9.33323 9.5848 8.361 9.5848Z" fill="#B589EC"/>
</svg>
