<svg width="16" height="16" viewBox="0 0 16 16" fill="none" xmlns="http://www.w3.org/2000/svg">
<path d="M8 14.5C11.5899 14.5 14.5 11.5899 14.5 8C14.5 4.41015 11.5899 1.5 8 1.5C4.41015 1.5 1.5 4.41015 1.5 8C1.5 11.5899 4.41015 14.5 8 14.5Z" fill="#25324D" stroke="#548AF7"/>
<path d="M7.92971 8.405H9.02471L10.9248 11.5H9.77471L7.92971 8.405ZM5.69971 4.5H8.58471C9.04804 4.5 9.45304 4.58667 9.79971 4.76C10.1498 4.93 10.4198 5.17167 10.6098 5.485C10.7998 5.795 10.8948 6.15833 10.8948 6.575C10.8948 6.98833 10.7981 7.35333 10.6048 7.67C10.4114 7.98667 10.1381 8.23167 9.78471 8.405C9.43138 8.575 9.01804 8.66 8.54471 8.66H6.69971V11.5H5.69971V4.5ZM8.55971 7.77C8.81971 7.77 9.04638 7.72167 9.23971 7.625C9.43304 7.52833 9.58304 7.39 9.68971 7.21C9.79638 7.03 9.84971 6.81833 9.84971 6.575C9.84971 6.335 9.79638 6.12667 9.68971 5.95C9.58304 5.77 9.43304 5.63167 9.23971 5.535C9.04638 5.43833 8.81971 5.39 8.55971 5.39H6.69971V7.77H8.55971Z" fill="#548AF7"/>
</svg>
