<svg width="16" height="16" viewBox="0 0 16 16" fill="none" xmlns="http://www.w3.org/2000/svg">
<path d="M15.2115 7.50028C15.3899 7.80954 15.3899 8.19046 15.2115 8.49972L12.0384 13.9997C11.8598 14.3093 11.5296 14.5 11.1722 14.5H4.82737C4.46999 14.5 4.13978 14.3093 3.96119 13.9997L0.788111 8.49972C0.609692 8.19046 0.609692 7.80954 0.788111 7.50028L3.96119 2.00028C4.13978 1.69072 4.46999 1.5 4.82737 1.5H11.1722C11.5296 1.5 11.8598 1.69072 12.0384 2.00028L15.2115 7.50028Z" stroke="#CED0D6"/>
<path d="M10.5 8.43302L6.75 10.5981C6.41667 10.7905 6 10.55 6 10.1651V5.83494C6 5.45005 6.41667 5.20948 6.75 5.40193L10.5 7.567C10.8333 7.75945 10.8333 8.24057 10.5 8.43302Z" stroke="#CED0D6"/>
</svg>
