<svg width="16" height="16" viewBox="0 0 16 16" fill="none" xmlns="http://www.w3.org/2000/svg">
<path d="M10.371 11.5969C10.2473 11.688 10.167 11.8346 10.167 12C10.167 12.1219 10.2106 12.2335 10.283 12.3203C10.3284 12.3748 10.3832 12.4173 10.4433 12.4473C10.5029 12.4772 10.5693 12.4955 10.6396 12.4993C10.7032 12.5028 10.7676 12.4942 10.8293 12.4731C10.881 12.4553 10.9289 12.4294 10.9714 12.3967C11.0289 12.3532 11.0862 12.3096 11.1434 12.2657C11.2544 12.1805 11.4126 12.0578 11.6023 11.9076C11.9812 11.6077 12.488 11.196 12.9962 10.7513C13.502 10.3087 14.0202 9.82402 14.4157 9.37906C14.6129 9.15724 14.7902 8.93357 14.9209 8.72103C15.0419 8.52454 15.167 8.26902 15.167 8C15.167 7.73098 15.0419 7.47546 14.9209 7.27897C14.7902 7.06643 14.6129 6.84276 14.4157 6.62094C14.0202 6.17598 13.502 5.69128 12.9962 5.24871C12.488 4.80404 11.9812 4.39232 11.6023 4.09235C11.4126 3.94217 11.2544 3.81955 11.1434 3.73429C11.0863 3.69049 11.0291 3.64693 10.9717 3.60357C10.8874 3.53862 10.7817 3.5 10.667 3.5C10.5734 3.5 10.4858 3.52571 10.4109 3.57045C10.3639 3.59841 10.3209 3.63453 10.284 3.6785C10.2433 3.72695 10.2116 3.78323 10.1916 3.84476C10.1723 3.90374 10.1645 3.96516 10.1676 4.02583C10.1747 4.16118 10.2365 4.29274 10.3479 4.38493C10.376 4.40826 10.4036 4.42889 10.4406 4.45658C10.4662 4.47574 10.4964 4.49828 10.5344 4.52744C10.6421 4.61014 10.7963 4.7297 10.9816 4.8764C11.3527 5.17019 11.8459 5.57096 12.3377 6.00129C12.832 6.43373 13.3138 6.88652 13.6683 7.28531C13.8461 7.48537 13.9813 7.66013 14.0693 7.80307C14.1424 7.9219 14.1608 7.98438 14.1654 8.0001C14.1609 8.01543 14.1428 8.07752 14.0693 8.19694C13.9813 8.33987 13.8461 8.51464 13.6683 8.71469C13.3138 9.11348 12.832 9.56628 12.3377 9.99871C11.8459 10.429 11.3527 10.8298 10.9816 11.1236C10.7963 11.2703 10.6421 11.3899 10.5344 11.4726C10.4801 11.5142 10.4257 11.5558 10.371 11.5969Z" fill="#CED0D6"/>
<path d="M5.62957 11.5969C5.75332 11.688 5.83363 11.8346 5.83363 12C5.83363 12.1219 5.79004 12.2335 5.71761 12.3203C5.67222 12.3748 5.61738 12.4173 5.55729 12.4473C5.49769 12.4772 5.43131 12.4955 5.36106 12.4993C5.29745 12.5028 5.23298 12.4942 5.17133 12.4731C5.11962 12.4553 5.07173 12.4294 5.02923 12.3967C4.97174 12.3532 4.9144 12.3096 4.85724 12.2657C4.7462 12.1804 4.58798 12.0578 4.39828 11.9076C4.01938 11.6077 3.51257 11.196 3.00438 10.7513C2.49859 10.3087 1.98045 9.82402 1.58493 9.37906C1.38776 9.15724 1.21047 8.93357 1.07968 8.72103C0.958756 8.52454 0.83363 8.26902 0.83363 8C0.83363 7.73098 0.958756 7.47546 1.07968 7.27897C1.21047 7.06643 1.38776 6.84276 1.58493 6.62094C1.98045 6.17598 2.49859 5.69128 3.00438 5.24871C3.51257 4.80404 4.01938 4.39232 4.39828 4.09235C4.58798 3.94217 4.7462 3.81955 4.85724 3.73429C4.91428 3.69049 4.97151 3.64693 5.02888 3.60357C5.11325 3.53862 5.21893 3.5 5.33363 3.5C5.42721 3.5 5.51478 3.52571 5.58968 3.57045C5.63667 3.59841 5.67972 3.63453 5.71658 3.6785C5.75729 3.72694 5.78898 3.78323 5.80906 3.84476C5.82833 3.90374 5.83615 3.96516 5.83298 4.02583C5.8259 4.16118 5.76414 4.29274 5.65276 4.38493C5.62465 4.40826 5.59706 4.42889 5.56002 4.45658C5.53439 4.47574 5.50424 4.49828 5.46627 4.52743C5.35856 4.61014 5.20428 4.7297 5.01898 4.8764C4.64788 5.17019 4.15469 5.57096 3.66288 6.00129C3.16867 6.43373 2.68681 6.88652 2.33233 7.28531C2.1545 7.48537 2.01929 7.66013 1.93134 7.80306C1.8582 7.92191 1.83981 7.98439 1.83518 8.0001C1.8397 8.01544 1.85785 8.07752 1.93134 8.19694C2.01929 8.33987 2.1545 8.51463 2.33233 8.71469C2.68681 9.11348 3.16867 9.56627 3.66288 9.99871C4.15469 10.429 4.64788 10.8298 5.01898 11.1236C5.20428 11.2703 5.35856 11.3899 5.46627 11.4726C5.52054 11.5142 5.57491 11.5558 5.62957 11.5969Z" fill="#CED0D6"/>
</svg>
