<svg width="16" height="16" viewBox="0 0 16 16" fill="none" xmlns="http://www.w3.org/2000/svg">
<g clip-path="url(#clip0_3871_131759)">
<path d="M8.02437 3.59854L8.30184 4.16672L11.1194 4.16672C11.7829 4.16671 12.318 4.16671 12.7473 4.21142C13.1905 4.25757 13.5748 4.35547 13.9148 4.58804C14.1814 4.77046 14.4103 5.00484 14.5885 5.27777C14.8156 5.62584 14.9113 6.01933 14.9563 6.47304C15 6.91259 15 7.46041 15 8.13974V8.19495C15 8.88065 15 9.47772 14.9848 10H14.0077C14.023 9.49233 14.0233 8.89238 14.0233 8.16672C14.0233 7.45408 14.0227 6.95724 13.9846 6.57425C13.9474 6.19963 13.8784 5.98976 13.7763 5.83339C13.6694 5.66956 13.5321 5.52894 13.3721 5.41952C13.2194 5.31503 13.0144 5.2444 12.6485 5.20628C12.2744 5.16732 11.7891 5.16672 11.093 5.16672H8.01058C8.00377 5.16687 7.99697 5.16687 7.99017 5.16672H5.39535C5.12563 5.16672 4.90698 4.94286 4.90698 4.66672C4.90698 4.39058 5.12563 4.16672 5.39535 4.16672H7.20982L7.14056 4.02491C6.77999 3.28655 6.54357 2.80242 6.00478 2.59556C5.77582 2.50765 5.50412 2.50005 4.7079 2.50005C4.44542 2.50005 4.21772 2.50014 4.01741 2.50269C3.75972 2.50597 3.54736 2.51332 3.36464 2.52982C3.0463 2.55854 2.86476 2.61201 2.72789 2.69021C2.58933 2.76938 2.46492 2.87067 2.35902 2.98963C2.28359 3.07436 2.21756 3.16805 2.16248 3.26908C2.0861 3.40921 2.03388 3.59508 2.00581 3.92099C1.97719 4.25348 1.97674 4.68181 1.97674 5.29623V7.33339C1.97674 8.40392 1.97722 9.27082 2.01256 9.9878L1.10037 10.8651C0.999986 9.95367 0.999992 8.80757 1 7.37165V5.27306C0.999995 4.68724 0.99999 4.21475 1.03284 3.83318C1.06669 3.44002 1.1383 3.09597 1.30956 2.78177C1.53023 2.37694 1.8565 2.0429 2.25191 1.81699C2.5588 1.64164 2.89486 1.56833 3.27887 1.53368C3.65157 1.50004 4.11306 1.50005 4.68526 1.50005L4.798 1.50003C5.46831 1.49972 5.93174 1.49951 6.34774 1.65923C7.2564 2.00809 7.65517 2.8342 7.96255 3.47097C7.98354 3.51444 8.00411 3.55705 8.02437 3.59854Z" fill="#208A3C"/>
<path d="M6.0046 2.59557C5.77564 2.50766 5.50394 2.50006 4.70772 2.50006C4.44524 2.50006 4.21754 2.50015 4.01723 2.5027C3.75953 2.50598 3.54718 2.51333 3.36446 2.52982C3.04612 2.55855 2.86458 2.61202 2.72771 2.69022C2.58915 2.76939 2.46474 2.87068 2.35884 2.98964C2.28341 3.07437 2.21737 3.16806 2.1623 3.26909C2.08592 3.40922 2.03369 3.59508 2.00563 3.921C1.977 4.25349 1.97656 4.68182 1.97656 5.29624V7.33339C1.97656 8.4039 1.97704 9.27078 2.01237 9.98775L2.62816 9.39554C3.18966 8.85552 3.98717 8.90755 4.4988 9.33004C5.01019 8.90704 5.8079 8.85449 6.36977 9.39427L8.07428 11.0318C8.27096 10.4326 8.83483 10 9.49976 10H14.0075C14.0229 9.49233 14.0231 8.89239 14.0231 8.16673C14.0231 7.45409 14.0225 6.95725 13.9844 6.57425C13.9472 6.19963 13.8782 5.98977 13.7762 5.83339C13.6692 5.66957 13.5319 5.52895 13.3719 5.41953C13.2192 5.31504 13.0142 5.2444 12.6483 5.20629C12.2742 5.16733 11.7889 5.16673 11.0928 5.16673H8.0104C8.00359 5.16687 7.99678 5.16687 7.98999 5.16673H5.39517C5.12545 5.16673 4.9068 4.94287 4.9068 4.66673C4.9068 4.39059 5.12545 4.16673 5.39517 4.16673H7.20963L7.14038 4.02492C6.77981 3.28656 6.54339 2.80242 6.0046 2.59557Z" fill="#F2FCF3"/>
<path fill-rule="evenodd" clip-rule="evenodd" d="M8.37978 12.7117C8.54354 12.8691 8.54362 13.131 8.37994 13.2884L5.67736 15.8876C5.4232 16.132 5 15.9519 5 15.5993L5.00002 10.4038C5.00002 10.0513 5.423 9.87119 5.67722 10.1154L8.37978 12.7117Z" fill="#55A76A"/>
<path fill-rule="evenodd" clip-rule="evenodd" d="M0.622553 13.2883C0.459087 13.1309 0.459159 12.8692 0.622712 12.7119L3.32158 10.1163C3.57574 9.87186 3.99894 10.0519 3.99894 10.4045V15.5986C3.99894 15.9514 3.57553 16.1314 3.32142 15.8868L0.622553 13.2883Z" fill="#E55765"/>
<path fill-rule="evenodd" clip-rule="evenodd" d="M9 11.5C9 11.2239 9.22386 11 9.5 11H15.5C15.7761 11 16 11.2239 16 11.5C16 11.7761 15.7761 12 15.5 12H9.5C9.22386 12 9 11.7761 9 11.5ZM9 13.5C9 13.2239 9.22386 13 9.5 13H15.5C15.7761 13 16 13.2239 16 13.5C16 13.7761 15.7761 14 15.5 14H9.5C9.22386 14 9 13.7761 9 13.5ZM9 15.5C9 15.2239 9.22386 15 9.5 15H15.5C15.7761 15 16 15.2239 16 15.5C16 15.7761 15.7761 16 15.5 16H9.5C9.22386 16 9 15.7761 9 15.5Z" fill="#E66D17"/>
</g>
<defs>
<clipPath id="clip0_3871_131759">
<rect width="16" height="16" fill="white"/>
</clipPath>
</defs>
</svg>
