<svg width="16" height="16" viewBox="0 0 16 16" fill="none" xmlns="http://www.w3.org/2000/svg">
<g clip-path="url(#clip0_3871_131608)">
<path d="M8.02437 3.59854L8.30184 4.16672L11.1194 4.16672C11.7829 4.16671 12.318 4.16671 12.7473 4.21142C13.1905 4.25757 13.5748 4.35547 13.9148 4.58804C14.1814 4.77046 14.4103 5.00484 14.5885 5.27777C14.8156 5.62584 14.9113 6.01933 14.9563 6.47304C15 6.91259 15 7.46041 15 8.13974V8.19495C15 9.31042 15 10.1914 14.9345 10.8973L14.0075 10.0067C14.023 9.4976 14.0233 8.89557 14.0233 8.16672C14.0233 7.45408 14.0227 6.95724 13.9846 6.57425C13.9474 6.19963 13.8784 5.98976 13.7763 5.83339C13.6694 5.66956 13.5321 5.52894 13.3721 5.41952C13.2194 5.31503 13.0144 5.2444 12.6485 5.20628C12.2744 5.16732 11.7891 5.16672 11.093 5.16672H8.01058C8.00377 5.16687 7.99697 5.16687 7.99017 5.16672H5.39535C5.12563 5.16672 4.90698 4.94286 4.90698 4.66672C4.90698 4.39058 5.12563 4.16672 5.39535 4.16672H7.20982L7.14056 4.02491C6.77999 3.28655 6.54357 2.80242 6.00478 2.59556C5.77582 2.50765 5.50412 2.50005 4.7079 2.50005C4.44542 2.50005 4.21772 2.50014 4.01741 2.50269C3.75972 2.50597 3.54736 2.51332 3.36464 2.52982C3.0463 2.55854 2.86476 2.61201 2.72789 2.69021C2.58933 2.76938 2.46492 2.87067 2.35902 2.98963C2.28359 3.07436 2.21756 3.16805 2.16248 3.26908C2.0861 3.40921 2.03388 3.59508 2.00581 3.92099C1.97719 4.25348 1.97674 4.68181 1.97674 5.29623V7.33339C1.97674 8.91885 1.97778 10.0577 2.09159 10.9243C2.20351 11.7766 2.41637 12.2904 2.7873 12.6702C3.15824 13.0499 3.66012 13.2679 4.49256 13.3825C5.05681 13.4601 5.73917 13.4865 6.59012 13.4955C6.66112 13.6836 6.77406 13.8595 6.92894 14.0087L7.43907 14.4998C6.18246 14.4983 5.17201 14.485 4.36241 14.3736C3.42165 14.2441 2.67931 13.9738 2.09664 13.3773C1.51398 12.7807 1.25004 12.0207 1.12356 11.0576C0.999986 10.1166 0.999992 8.91056 1 7.37165V5.27306C0.999995 4.68724 0.99999 4.21475 1.03284 3.83318C1.06669 3.44002 1.1383 3.09597 1.30956 2.78177C1.53023 2.37694 1.8565 2.0429 2.25191 1.81699C2.5588 1.64164 2.89486 1.56833 3.27887 1.53368C3.65157 1.50004 4.11306 1.50005 4.68526 1.50005L4.798 1.50003C5.46831 1.49972 5.93174 1.49951 6.34774 1.65923C7.2564 2.00809 7.65517 2.8342 7.96255 3.47097C7.98354 3.51444 8.00411 3.55705 8.02437 3.59854Z" fill="#CED0D6"/>
<path d="M6.0046 2.59557C5.77564 2.50766 5.50394 2.50006 4.70772 2.50006C4.44524 2.50006 4.21754 2.50015 4.01723 2.5027C3.75953 2.50598 3.54718 2.51333 3.36446 2.52982C3.04612 2.55855 2.86458 2.61202 2.72771 2.69022C2.58915 2.76939 2.46474 2.87068 2.35884 2.98964C2.28341 3.07437 2.21737 3.16806 2.1623 3.26909C2.08592 3.40922 2.03369 3.59508 2.00563 3.921C1.977 4.25349 1.97656 4.68182 1.97656 5.29624V7.33339C1.97656 8.91886 1.9776 10.0577 2.09141 10.9243C2.20333 11.7766 2.41619 12.2904 2.78712 12.6702C3.15806 13.0499 3.65993 13.2679 4.49238 13.3825C5.05661 13.4601 5.73895 13.4865 6.58988 13.4955C6.39864 12.9886 6.51175 12.3927 6.92924 11.9912L9.62804 9.39565C10.1895 8.85561 10.9871 8.90754 11.4988 9.33003C12.0102 8.90703 12.8079 8.85451 13.3697 9.39426L14.0073 10.0067C14.0229 9.49765 14.0231 8.8956 14.0231 8.16673C14.0231 7.45409 14.0225 6.95725 13.9844 6.57425C13.9472 6.19963 13.8782 5.98977 13.7762 5.83339C13.6692 5.66957 13.5319 5.52895 13.3719 5.41953C13.2192 5.31504 13.0142 5.2444 12.6483 5.20629C12.2742 5.16733 11.7889 5.16673 11.0928 5.16673H8.0104C8.00359 5.16687 7.99678 5.16687 7.98999 5.16673H5.39517C5.12545 5.16673 4.9068 4.94287 4.9068 4.66673C4.9068 4.39059 5.12545 4.16673 5.39517 4.16673H7.20963L7.14038 4.02492C6.77981 3.28656 6.54339 2.80242 6.0046 2.59557Z" fill="#43454A"/>
<path fill-rule="evenodd" clip-rule="evenodd" d="M15.3798 12.7117C15.5435 12.8691 15.5436 13.131 15.3799 13.2884L12.6774 15.8876C12.4232 16.132 12 15.9519 12 15.5993V10.4038C12 10.0513 12.423 9.87119 12.6772 10.1154L15.3798 12.7117Z" fill="#57965C"/>
<path fill-rule="evenodd" clip-rule="evenodd" d="M7.62255 13.2883C7.45909 13.1309 7.45916 12.8692 7.62271 12.7119L10.3216 10.1163C10.5757 9.87186 10.9989 10.0519 10.9989 10.4045V15.5986C10.9989 15.9514 10.5755 16.1314 10.3214 15.8868L7.62255 13.2883Z" fill="#DB5C5C"/>
</g>
<defs>
<clipPath id="clip0_3871_131608">
<rect width="16" height="16" fill="white"/>
</clipPath>
</defs>
</svg>
