<svg width="16" height="16" viewBox="0 0 16 16" fill="none" xmlns="http://www.w3.org/2000/svg">
<g clip-path="url(#clip0_3871_131734)">
<path d="M10.9546 4.16672H11V5.16672H8.01058C8.00377 5.16687 7.99697 5.16687 7.99017 5.16672H5.39535C5.12563 5.16672 4.90698 4.94286 4.90698 4.66672C4.90698 4.39058 5.12563 4.16672 5.39535 4.16672H7.20982L7.14056 4.02491C6.77999 3.28655 6.54357 2.80242 6.00478 2.59556C5.77582 2.50765 5.50412 2.50005 4.7079 2.50005C4.44542 2.50005 4.21772 2.50014 4.01741 2.50269C3.75972 2.50597 3.54736 2.51332 3.36464 2.52982C3.0463 2.55854 2.86476 2.61201 2.72789 2.69021C2.58933 2.76938 2.46492 2.87067 2.35902 2.98963C2.28359 3.07436 2.21756 3.16805 2.16248 3.26908C2.0861 3.40921 2.03388 3.59508 2.00581 3.92099C1.97719 4.25348 1.97674 4.68181 1.97674 5.29623V7.33339C1.97674 8.91885 1.97778 10.0577 2.09159 10.9243C2.20351 11.7766 2.41637 12.2904 2.7873 12.6702C3.15824 13.0499 3.66012 13.2679 4.49256 13.3825C5.33906 13.499 6.45139 13.5001 8 13.5001H8.81395C9.9673 13.5001 10.7955 13.4994 11.4393 13.4324C12.0749 13.3662 12.4763 13.2394 12.7934 13.0225C13.0955 12.8159 13.355 12.5502 13.5568 12.2409C13.7686 11.9163 13.8925 11.5053 13.9572 10.8546C14.0227 10.1955 14.0233 9.34753 14.0233 8.16672C14.0233 7.56653 14.0228 7.11941 14 6.76445V4.64906C14.2304 4.82163 14.4296 5.03437 14.5885 5.27777C14.8156 5.62584 14.9113 6.01933 14.9563 6.47304C15 6.91259 15 7.46041 15 8.13974V8.19495C15 9.34145 15 10.2402 14.9289 10.9558C14.8564 11.6856 14.7059 12.2802 14.369 12.7964C14.0959 13.215 13.7448 13.5744 13.336 13.854C12.8318 14.1989 12.251 14.353 11.5382 14.4273C10.8392 14.5001 9.96137 14.5001 8.84153 14.5001H7.96264C6.4595 14.5001 5.28152 14.5001 4.36241 14.3736C3.42165 14.2441 2.67931 13.9738 2.09664 13.3773C1.51398 12.7807 1.25004 12.0207 1.12356 11.0576C0.999986 10.1166 0.999992 8.91056 1 7.37165V5.27306C0.999995 4.68724 0.99999 4.21475 1.03284 3.83318C1.06669 3.44002 1.1383 3.09597 1.30956 2.78177C1.53023 2.37694 1.8565 2.0429 2.25191 1.81699C2.5588 1.64164 2.89486 1.56833 3.27887 1.53368C3.65157 1.50004 4.11306 1.50005 4.68526 1.50005L4.798 1.50003C5.46831 1.49972 5.93174 1.49951 6.34774 1.65923C7.2564 2.00809 7.65517 2.8342 7.96255 3.47097C7.97546 3.49771 7.98821 3.52412 8.00083 3.55016C8.01304 3.91716 8.1592 4.28054 8.43933 4.56067C9.02512 5.14645 9.97487 5.14642 10.5606 4.56064L10.9546 4.16672Z" fill="#6C707E"/>
<path d="M10.9997 5.16673V7.5C10.9997 8.32848 11.6714 9 12.4997 9C13.3281 9 13.9997 8.32848 13.9997 7.5V6.76349C14.0227 7.1186 14.0231 7.56599 14.0231 8.16673C14.0231 9.34753 14.0225 10.1955 13.957 10.8546C13.8923 11.5053 13.7684 11.9164 13.5566 12.2409C13.3548 12.5502 13.0953 12.8159 12.7932 13.0225C12.4762 13.2394 12.0747 13.3662 11.4391 13.4324C10.7953 13.4995 9.96712 13.5001 8.81377 13.5001H7.99982C6.4512 13.5001 5.33888 13.499 4.49238 13.3825C3.65993 13.2679 3.15806 13.0499 2.78712 12.6702C2.41619 12.2904 2.20333 11.7766 2.09141 10.9243C1.9776 10.0577 1.97656 8.91886 1.97656 7.33339V5.29624C1.97656 4.68182 1.977 4.25349 2.00563 3.921C2.03369 3.59508 2.08592 3.40922 2.1623 3.26909C2.21737 3.16806 2.28341 3.07437 2.35884 2.98964C2.46474 2.87068 2.58915 2.76939 2.72771 2.69022C2.86458 2.61202 3.04612 2.55855 3.36446 2.52982C3.54718 2.51333 3.75953 2.50598 4.01723 2.5027C4.21754 2.50015 4.44524 2.50006 4.70772 2.50006C5.50394 2.50006 5.77564 2.50766 6.0046 2.59557C6.54339 2.80242 6.77981 3.28656 7.14038 4.02492L7.20963 4.16673H5.39517C5.12545 4.16673 4.9068 4.39059 4.9068 4.66673C4.9068 4.94287 5.12545 5.16673 5.39517 5.16673H7.98999C7.99678 5.16687 8.00359 5.16687 8.0104 5.16673H10.9997Z" fill="#EBECF0"/>
<path fill-rule="evenodd" clip-rule="evenodd" d="M12.1464 0.146447C12.3417 -0.0488156 12.6583 -0.0488156 12.8536 0.146447L15.8536 3.14645C16.0488 3.34171 16.0488 3.65829 15.8536 3.85355C15.6583 4.04882 15.3417 4.04882 15.1464 3.85355L13 1.70711V7.5C13 7.77614 12.7761 8 12.5 8C12.2239 8 12 7.77614 12 7.5V1.70711L9.85355 3.85355C9.65829 4.04882 9.34171 4.04882 9.14645 3.85355C8.95118 3.65829 8.95118 3.34171 9.14645 3.14645L12.1464 0.146447Z" fill="#3574F0"/>
</g>
<defs>
<clipPath id="clip0_3871_131734">
<rect width="16" height="16" fill="white"/>
</clipPath>
</defs>
</svg>
