<svg width="16" height="16" viewBox="0 0 16 16" fill="none" xmlns="http://www.w3.org/2000/svg">
<path fill-rule="evenodd" clip-rule="evenodd" d="M5.49322 3.31107C5.10202 3.16617 4.66717 3.1664 4.05481 3.16672L3.96656 3.16675L3.94391 3.16675C3.4182 3.16674 2.99132 3.16673 2.64597 3.1968C2.28931 3.22785 1.97247 3.29385 1.68149 3.45423C1.30937 3.65933 1.00146 3.96307 0.792875 4.33222C0.629324 4.62168 0.562077 4.93701 0.530503 5.29078C0.499988 5.63268 0.499994 6.05499 0.5 6.57358V8.44582C0.49999 9.81006 0.499982 10.8855 0.614405 11.7261C0.731943 12.5895 0.978511 13.2793 1.52732 13.8213C2.07528 14.3625 2.77111 14.6049 3.64237 14.7206C4.4922 14.8334 5.58007 14.8334 6.96244 14.8334H7.7777C8.80758 14.8334 9.61832 14.8334 10.2646 14.7685C10.9247 14.7022 11.4684 14.564 11.9422 14.2514C12.3242 13.9992 12.6527 13.675 12.9085 13.2968C13.2264 12.8269 13.3668 12.2875 13.4342 11.6337C13.5 10.9944 13.5 10.1929 13.5 9.17649V9.12129C13.5 8.51994 13.5 8.03032 13.4595 7.63647C13.4174 7.22809 13.3275 6.86739 13.1108 6.547C12.9425 6.2983 12.7266 6.08512 12.4754 5.91941C12.1529 5.70659 11.7903 5.61843 11.3787 5.57708C10.9809 5.5371 10.486 5.53711 9.87637 5.53712L7.3073 5.53712L7.06603 5.06055C7.0472 5.02335 7.02804 4.98504 7.00844 4.94582C6.72606 4.38104 6.34971 3.62828 5.49322 3.31107ZM5.14589 4.24881C4.9444 4.17418 4.70377 4.16675 3.96656 4.16675C3.41279 4.16675 3.02956 4.16719 2.7327 4.19303C2.44219 4.21833 2.28211 4.26502 2.16419 4.33001C1.95336 4.44622 1.78025 4.61755 1.6635 4.82416C1.59887 4.93855 1.55202 5.09427 1.52654 5.37967C1.50046 5.67188 1.5 6.04943 1.5 6.59669V8.40747C1.5 9.81854 1.50109 10.8259 1.60527 11.5912C1.7074 12.3415 1.90017 12.7841 2.23004 13.1099C2.56076 13.4365 3.01139 13.628 3.774 13.7293C4.55037 13.8324 5.57182 13.8334 7 13.8334H7.75C8.81361 13.8334 9.57417 13.8328 10.1646 13.7735C10.747 13.715 11.1085 13.6034 11.3913 13.4167C11.6644 13.2365 11.8984 13.0053 12.0803 12.7364C12.268 12.459 12.3804 12.1046 12.4394 11.5312C12.4994 10.9492 12.5 10.1991 12.5 9.1482C12.5 8.51347 12.4994 8.07552 12.4647 7.73892C12.4309 7.41101 12.3691 7.23537 12.2825 7.10736C12.1882 6.96789 12.0666 6.84773 11.9246 6.75405C11.7931 6.66726 11.6127 6.60561 11.2788 6.57207C10.9368 6.53771 10.4923 6.53712 9.85 6.53712H7.01075C7.00384 6.53726 6.99694 6.53726 6.99005 6.53712H4C3.72386 6.53712 3.5 6.31326 3.5 6.03712C3.5 5.76098 3.72386 5.53712 4 5.53712H6.18645L6.17041 5.50543C5.83271 4.83837 5.62387 4.42584 5.14589 4.24881Z" fill="#6C707E"/>
<path d="M3.96656 4.16675C4.70377 4.16675 4.9444 4.17419 5.14589 4.24881C5.62387 4.42584 5.83271 4.83837 6.17041 5.50543L6.18645 5.53712H4C3.72386 5.53712 3.5 5.76098 3.5 6.03712C3.5 6.31326 3.72386 6.53712 4 6.53712H6.99005C6.99694 6.53726 7.00384 6.53727 7.01074 6.53712H9.85C10.4923 6.53712 10.9368 6.53771 11.2788 6.57207C11.6127 6.60562 11.7931 6.66726 11.9246 6.75405C12.0666 6.84774 12.1882 6.96789 12.2825 7.10736C12.3691 7.23537 12.4309 7.41101 12.4647 7.73893C12.4994 8.07552 12.5 8.51347 12.5 9.1482C12.5 10.1991 12.4994 10.9492 12.4394 11.5312C12.3804 12.1046 12.268 12.459 12.0803 12.7364C11.8984 13.0053 11.6644 13.2365 11.3913 13.4167C11.1085 13.6034 10.747 13.715 10.1646 13.7735C9.57417 13.8328 8.81361 13.8334 7.75 13.8334H7C5.57182 13.8334 4.55037 13.8324 3.774 13.7293C3.01139 13.628 2.56076 13.4365 2.23004 13.1099C1.90017 12.7841 1.7074 12.3415 1.60527 11.5912C1.50109 10.8259 1.5 9.81854 1.5 8.40747V6.59669C1.5 6.04943 1.50046 5.67188 1.52654 5.37967C1.55202 5.09427 1.59887 4.93855 1.6635 4.82416C1.78025 4.61755 1.95335 4.44622 2.16419 4.33001C2.28211 4.26502 2.44219 4.21833 2.7327 4.19304C3.02956 4.16719 3.41279 4.16675 3.96656 4.16675Z" fill="#EBECF0"/>
<path d="M6.05456 1.16672C6.66691 1.1664 7.10176 1.16617 7.49296 1.31107C8.34945 1.62828 8.72581 2.38104 9.00818 2.94582C9.02775 2.98497 9.04697 3.02341 9.06577 3.06055L9.30704 3.53712L11.8761 3.53712C12.4857 3.53711 12.9806 3.5371 13.3785 3.57708C13.7901 3.61843 14.1527 3.70659 14.4751 3.91941C14.7263 4.08512 14.9422 4.2983 15.1105 4.547C15.3273 4.86739 15.4171 5.22809 15.4592 5.63647C15.4998 6.03032 15.4998 6.51994 15.4997 7.12129V7.17649C15.4998 8.19286 15.4998 8.99443 15.4339 9.63365C15.3666 10.2875 15.2262 10.8269 14.9083 11.2968C14.7648 11.5088 14.5985 11.704 14.4127 11.8789C14.4185 11.8314 14.4237 11.7838 14.4287 11.7361C14.4998 11.0454 14.4998 10.2009 14.4998 9.22495L14.4998 9.07924C14.4998 8.81553 14.4998 8.55896 14.4952 8.31518C14.4996 7.97205 14.4997 7.58626 14.4997 7.1482C14.4997 6.51347 14.4991 6.07552 14.4645 5.73892C14.4307 5.41101 14.3689 5.23537 14.2823 5.10736C14.1879 4.96789 14.0664 4.84773 13.9243 4.75405C13.7928 4.66726 13.6124 4.60561 13.2785 4.57207C12.9366 4.53771 12.492 4.53712 11.8497 4.53712H10.0159C9.98331 4.53711 9.95058 4.53712 9.91772 4.53712L8.66476 4.53712L8.18619 3.53712L8.17015 3.50543C7.83246 2.83837 7.62361 2.42584 7.14564 2.24881C6.94414 2.17418 6.70351 2.16675 5.96631 2.16675C5.49643 2.16675 5.14933 2.16706 4.87359 2.18295C4.62289 2.16578 4.37602 2.1662 4.14139 2.1666L4.05404 2.16672L3.90791 2.16674C3.5446 2.16673 3.19868 2.16671 2.88672 2.18C3.08935 1.87934 3.3616 1.6304 3.68123 1.45423C3.97221 1.29385 4.28905 1.22785 4.64571 1.1968C4.99107 1.16673 5.41795 1.16674 5.94365 1.16675L6.05456 1.16672Z" fill="#6C707E"/>
</svg>
