<svg xmlns="http://www.w3.org/2000/svg" width="16" height="16" fill="none"><g clip-path="url(#a)"><g clip-path="url(#b)"><g filter="url(#c)" opacity=".25"><rect width="3.75" height="3.75" x="2.781" y="11.469" fill="url(#d)" rx=".938"/></g><g filter="url(#e)" opacity=".25"><rect width="3.75" height="3.75" x="9.469" y="11.469" fill="url(#f)" rx=".938"/></g><path fill="url(#g)" d="M12.333 10.035c.368 0 .667.287.667.641V12.6a.654.654 0 0 1-.667.641h-2a.654.654 0 0 1-.666-.64v-1.924c0-.354.298-.64.666-.64z"/><path fill="url(#h)" d="M5.667 3.625c.368 0 .666.287.666.641v1.923a.654.654 0 0 1-.666.641h-2A.654.654 0 0 1 3 6.19V4.265c0-.354.298-.641.667-.641z"/><path fill="url(#i)" d="M12.805 7.018A.63.63 0 0 0 13 6.565V4.266a.654.654 0 0 0-.667-.641h-2a.654.654 0 0 0-.666.641v1.923A.654.654 0 0 1 9 6.83H6.61a.68.68 0 0 0-.472.188l-2.943 2.83A.63.63 0 0 0 3 10.3v2.298c0 .354.298.641.667.641h2a.654.654 0 0 0 .666-.64v-1.924c0-.354.299-.64.667-.64h2.39a.68.68 0 0 0 .472-.188z"/><path fill="url(#j)" d="M12.333 9.285c.368 0 .667.287.667.641v1.923a.654.654 0 0 1-.667.641h-2a.654.654 0 0 1-.666-.64V9.925c0-.354.298-.64.666-.64z"/><path fill="url(#k)" d="M5.667 2.875c.368 0 .666.287.666.641v1.923a.654.654 0 0 1-.666.641h-2A.654.654 0 0 1 3 5.44V3.515c0-.354.298-.641.667-.641z"/><path fill="url(#l)" d="M12.805 6.268A.63.63 0 0 0 13 5.815V3.516a.654.654 0 0 0-.667-.641h-2a.654.654 0 0 0-.666.641v1.923A.654.654 0 0 1 9 6.08H6.61a.68.68 0 0 0-.472.188l-2.943 2.83A.63.63 0 0 0 3 9.55v2.298c0 .354.298.641.667.641h2a.654.654 0 0 0 .666-.64V9.925c0-.354.299-.64.667-.64h2.39a.68.68 0 0 0 .472-.188z"/></g></g><defs><radialGradient id="d" cx="0" cy="0" r="1" gradientTransform="rotate(90 -4.344 9)scale(1.875)" gradientUnits="userSpaceOnUse"><stop/><stop offset="1" stop-opacity="0"/></radialGradient><radialGradient id="f" cx="0" cy="0" r="1" gradientTransform="rotate(90 -1 12.344)scale(1.875)" gradientUnits="userSpaceOnUse"><stop/><stop offset="1" stop-opacity="0"/></radialGradient><radialGradient id="j" cx="0" cy="0" r="1" gradientTransform="matrix(9.03848 10.57695 -9.87343 8.4373 3.962 2.875)" gradientUnits="userSpaceOnUse"><stop stop-color="#B8CBE5"/><stop offset="1" stop-color="#2B2E35"/></radialGradient><radialGradient id="k" cx="0" cy="0" r="1" gradientTransform="matrix(9.03848 10.57695 -9.87343 8.4373 3.962 2.875)" gradientUnits="userSpaceOnUse"><stop stop-color="#B8CBE5"/><stop offset="1" stop-color="#2B2E35"/></radialGradient><radialGradient id="l" cx="0" cy="0" r="1" gradientTransform="matrix(9.03848 10.57695 -9.87343 8.4373 3.962 2.875)" gradientUnits="userSpaceOnUse"><stop stop-color="#B8CBE5"/><stop offset="1" stop-color="#2B2E35"/></radialGradient><linearGradient id="g" x1="3" x2="13.385" y1="7.542" y2="7.471" gradientUnits="userSpaceOnUse"><stop stop-color="#47515D"/><stop offset=".065" stop-color="#1F2227"/><stop offset=".31" stop-color="#47515D"/><stop offset=".475" stop-color="#1D1F25"/><stop offset=".725" stop-color="#313741"/><stop offset=".897" stop-color="#1F2227"/><stop offset="1" stop-color="#373D47"/></linearGradient><linearGradient id="h" x1="3" x2="13.385" y1="7.542" y2="7.471" gradientUnits="userSpaceOnUse"><stop stop-color="#47515D"/><stop offset=".065" stop-color="#1F2227"/><stop offset=".31" stop-color="#47515D"/><stop offset=".475" stop-color="#1D1F25"/><stop offset=".725" stop-color="#313741"/><stop offset=".897" stop-color="#1F2227"/><stop offset="1" stop-color="#373D47"/></linearGradient><linearGradient id="i" x1="3" x2="13.385" y1="7.542" y2="7.471" gradientUnits="userSpaceOnUse"><stop stop-color="#47515D"/><stop offset=".065" stop-color="#1F2227"/><stop offset=".31" stop-color="#47515D"/><stop offset=".475" stop-color="#1D1F25"/><stop offset=".725" stop-color="#313741"/><stop offset=".897" stop-color="#1F2227"/><stop offset="1" stop-color="#373D47"/></linearGradient><clipPath id="a"><path fill="#fff" d="M0 0h16v16H0z"/></clipPath><clipPath id="b"><path fill="#fff" d="M0 0h16v16H0z"/></clipPath><filter id="c" width="7.25" height="7.25" x="1.031" y="9.719" color-interpolation-filters="sRGB" filterUnits="userSpaceOnUse"><feFlood flood-opacity="0" result="BackgroundImageFix"/><feBlend in="SourceGraphic" in2="BackgroundImageFix" result="shape"/><feGaussianBlur result="effect1_foregroundBlur_429_16315" stdDeviation=".875"/></filter><filter id="e" width="7.25" height="7.25" x="7.719" y="9.719" color-interpolation-filters="sRGB" filterUnits="userSpaceOnUse"><feFlood flood-opacity="0" result="BackgroundImageFix"/><feBlend in="SourceGraphic" in2="BackgroundImageFix" result="shape"/><feGaussianBlur result="effect1_foregroundBlur_429_16315" stdDeviation=".875"/></filter></defs></svg>