<svg xmlns="http://www.w3.org/2000/svg" width="64" height="64" fill="none"><g clip-path="url(#a)"><g clip-path="url(#b)"><g clip-path="url(#c)"><g fill="#000" fill-opacity=".35" filter="url(#d)"><path d="M53.125 46.875c1.795 0 3.25 1.175 3.25 2.625v7.875c0 1.45-1.455 2.625-3.25 2.625h-9.75c-1.795 0-3.25-1.175-3.25-2.625V49.5c0-1.45 1.455-2.625 3.25-2.625zM20.625 20.625c1.795 0 3.25 1.175 3.25 2.625v7.875c0 1.45-1.455 2.625-3.25 2.625h-9.75c-1.795 0-3.25-1.175-3.25-2.625V23.25c0-1.45 1.455-2.625 3.25-2.625zM55.423 34.519c.61-.492.952-1.16.952-1.856V23.25c0-1.45-1.455-2.625-3.25-2.625h-9.75c-1.795 0-3.25 1.175-3.25 2.625v7.875c0 1.45-1.455 2.625-3.25 2.625H25.221c-.862 0-1.688.277-2.298.769L8.577 46.106c-.61.492-.952 1.16-.952 1.856v9.413c0 1.45 1.455 2.625 3.25 2.625h9.75c1.795 0 3.25-1.175 3.25-2.625V49.5c0-1.45 1.455-2.625 3.25-2.625h11.654c.862 0 1.688-.277 2.298-.769z"/></g><g fill="#000" fill-opacity=".15" filter="url(#e)"><path d="M53.125 44.313c1.795 0 3.25 1.32 3.25 2.95v8.85c0 1.629-1.455 2.95-3.25 2.95h-9.75c-1.795 0-3.25-1.321-3.25-2.95v-8.85c0-1.63 1.455-2.95 3.25-2.95zM20.625 14.813c1.795 0 3.25 1.32 3.25 2.95v8.85c0 1.629-1.455 2.95-3.25 2.95h-9.75c-1.795 0-3.25-1.321-3.25-2.95v-8.85c0-1.63 1.455-2.95 3.25-2.95zM55.423 30.427c.61-.554.952-1.304.952-2.086V17.762c0-1.629-1.455-2.95-3.25-2.95h-9.75c-1.795 0-3.25 1.321-3.25 2.95v8.85c0 1.63-1.455 2.95-3.25 2.95H25.221c-.862 0-1.688.311-2.298.864L8.577 43.45c-.61.553-.952 1.303-.952 2.085v10.578c0 1.63 1.455 2.95 3.25 2.95h9.75c1.795 0 3.25-1.32 3.25-2.95v-8.85c0-1.629 1.455-2.95 3.25-2.95h11.654c.862 0 1.688-.31 2.298-.863z"/></g><path fill="url(#f)" d="M53.125 42.5c1.795 0 3.25 1.4 3.25 3.125V55c0 1.726-1.455 3.125-3.25 3.125h-9.75c-1.795 0-3.25-1.4-3.25-3.125v-9.375c0-1.726 1.455-3.125 3.25-3.125z"/><path fill="#000" fill-opacity=".28" d="M53.125 42.5c1.795 0 3.25 1.4 3.25 3.125V55c0 1.726-1.455 3.125-3.25 3.125h-9.75c-1.795 0-3.25-1.4-3.25-3.125v-9.375c0-1.726 1.455-3.125 3.25-3.125z"/><path fill="url(#g)" d="M20.625 11.25c1.795 0 3.25 1.4 3.25 3.125v9.375c0 1.726-1.455 3.125-3.25 3.125h-9.75c-1.795 0-3.25-1.4-3.25-3.125v-9.375c0-1.726 1.455-3.125 3.25-3.125z"/><path fill="#000" fill-opacity=".28" d="M20.625 11.25c1.795 0 3.25 1.4 3.25 3.125v9.375c0 1.726-1.455 3.125-3.25 3.125h-9.75c-1.795 0-3.25-1.4-3.25-3.125v-9.375c0-1.726 1.455-3.125 3.25-3.125z"/><path fill="url(#h)" d="M55.423 27.79c.61-.586.952-1.38.952-2.21V14.376c0-1.726-1.455-3.125-3.25-3.125h-9.75c-1.795 0-3.25 1.4-3.25 3.125v9.375c0 1.726-1.455 3.125-3.25 3.125H25.221c-.862 0-1.688.33-2.298.915L8.577 41.585a3.07 3.07 0 0 0-.952 2.21V55c0 1.726 1.455 3.125 3.25 3.125h9.75c1.795 0 3.25-1.4 3.25-3.125v-9.375c0-1.726 1.455-3.125 3.25-3.125h11.654c.862 0 1.688-.33 2.298-.915z"/><path fill="#000" fill-opacity=".28" d="M55.423 27.79c.61-.586.952-1.38.952-2.21V14.376c0-1.726-1.455-3.125-3.25-3.125h-9.75c-1.795 0-3.25 1.4-3.25 3.125v9.375c0 1.726-1.455 3.125-3.25 3.125H25.221c-.862 0-1.688.33-2.298.915L8.577 41.585a3.07 3.07 0 0 0-.952 2.21V55c0 1.726 1.455 3.125 3.25 3.125h9.75c1.795 0 3.25-1.4 3.25-3.125v-9.375c0-1.726 1.455-3.125 3.25-3.125h11.654c.862 0 1.688-.33 2.298-.915z"/><path fill="url(#i)" stroke="url(#j)" stroke-width=".375" d="M56.188 41.875v9.375c0 1.615-1.365 2.938-3.063 2.938h-9.75c-1.698 0-3.062-1.323-3.062-2.938v-9.375c0-1.615 1.364-2.937 3.062-2.937h9.75c1.698 0 3.063 1.322 3.063 2.937Zm-32.5-31.25V20c0 1.616-1.365 2.938-3.063 2.938h-9.75c-1.698 0-3.062-1.322-3.062-2.938v-9.375c0-1.615 1.364-2.937 3.062-2.937h9.75c1.698 0 3.063 1.322 3.063 2.937Zm32.5 0v11.206c0 .776-.321 1.523-.895 2.074L40.947 37.7a3.13 3.13 0 0 1-2.168.862H27.125c-1.892 0-3.437 1.477-3.437 3.313v9.375c0 1.615-1.365 2.938-3.063 2.938h-9.75c-1.698 0-3.062-1.323-3.062-2.938V40.044c0-.776.32-1.523.894-2.074l14.346-13.795a3.13 3.13 0 0 1 2.168-.863h11.654c1.892 0 3.438-1.476 3.438-3.312v-9.375c0-1.615 1.364-2.937 3.062-2.937h9.75c1.698 0 3.063 1.322 3.063 2.937Z"/><g opacity=".2"><mask id="k" width="50" height="48" x="7" y="7" maskUnits="userSpaceOnUse" style="mask-type:alpha"><path fill="#D9D9D9" d="M53.125 38.75c1.795 0 3.25 1.4 3.25 3.125v9.375c0 1.726-1.455 3.125-3.25 3.125h-9.75c-1.795 0-3.25-1.4-3.25-3.125v-9.375c0-1.726 1.455-3.125 3.25-3.125zM20.625 7.5c1.795 0 3.25 1.4 3.25 3.125V20c0 1.726-1.455 3.125-3.25 3.125h-9.75c-1.795 0-3.25-1.4-3.25-3.125v-9.375c0-1.726 1.455-3.125 3.25-3.125zM55.423 24.04c.61-.586.952-1.38.952-2.21V10.626c0-1.726-1.455-3.125-3.25-3.125h-9.75c-1.795 0-3.25 1.4-3.25 3.125V20c0 1.726-1.455 3.125-3.25 3.125H25.221c-.862 0-1.688.33-2.298.915L8.577 37.835a3.07 3.07 0 0 0-.952 2.21V51.25c0 1.726 1.455 3.125 3.25 3.125h9.75c1.795 0 3.25-1.4 3.25-3.125v-9.375c0-1.726 1.455-3.125 3.25-3.125h11.654c.862 0 1.688-.33 2.298-.915z"/></mask><g stroke="#fff" stroke-width=".6" mask="url(#k)"><path d="m14 6-48 48M17 6l-48 48M20 6l-48 48M23 6l-48 48M26 6l-48 48M29 6l-48 48M32 6l-48 48M35 6l-48 48M38 6l-48 48M41 6-7 54M44 6-4 54M47 6-1 54M50 6 2 54M53 6 5 54M56 6 8 54M59 6 11 54M62 6 14 54M65 6 17 54M68 6 20 54M71 6 23 54M74 6 26 54M77 6 29 54M80 6 32 54M83 6 35 54M86 6 38 54M89 6 41 54M92 6 44 54M95 6 47 54M98 6 50 54M101 6 53 54M104 6 56 54"/></g></g></g></g></g><defs><linearGradient id="f" x1="7.625" x2="58.25" y1="30.347" y2="30" gradientUnits="userSpaceOnUse"><stop stop-color="#637081"/><stop offset=".065" stop-color="#2B2E35"/><stop offset=".31" stop-color="#637081"/><stop offset=".475" stop-color="#282B32"/><stop offset=".725" stop-color="#444D59"/><stop offset=".897" stop-color="#2B2E35"/><stop offset="1" stop-color="#637081"/></linearGradient><linearGradient id="g" x1="7.625" x2="58.25" y1="30.347" y2="30" gradientUnits="userSpaceOnUse"><stop stop-color="#637081"/><stop offset=".065" stop-color="#2B2E35"/><stop offset=".31" stop-color="#637081"/><stop offset=".475" stop-color="#282B32"/><stop offset=".725" stop-color="#444D59"/><stop offset=".897" stop-color="#2B2E35"/><stop offset="1" stop-color="#637081"/></linearGradient><linearGradient id="h" x1="7.625" x2="58.25" y1="30.347" y2="30" gradientUnits="userSpaceOnUse"><stop stop-color="#637081"/><stop offset=".065" stop-color="#2B2E35"/><stop offset=".31" stop-color="#637081"/><stop offset=".475" stop-color="#282B32"/><stop offset=".725" stop-color="#444D59"/><stop offset=".897" stop-color="#2B2E35"/><stop offset="1" stop-color="#637081"/></linearGradient><clipPath id="a"><path fill="#fff" d="M0 0h64v64H0z"/></clipPath><clipPath id="b"><path fill="#fff" d="M0 0h64v64H0z"/></clipPath><clipPath id="c"><path fill="#fff" d="M0 0h64v64H0z"/></clipPath><radialGradient id="i" cx="0" cy="0" r="1" gradientTransform="rotate(49.485 -1.981 17.109)scale(67.8247 63.3135)" gradientUnits="userSpaceOnUse"><stop stop-color="#B8CBE5"/><stop offset="1" stop-color="#2B2E35"/></radialGradient><radialGradient id="j" cx="0" cy="0" r="1" gradientTransform="matrix(21.56249 36.56249 -173.15695 102.11818 7.625 2.813)" gradientUnits="userSpaceOnUse"><stop stop-color="#fff"/><stop offset="1" stop-color="#80818B" stop-opacity=".2"/></radialGradient><filter id="d" width="60.75" height="51.375" x="1.625" y="14.625" color-interpolation-filters="sRGB" filterUnits="userSpaceOnUse"><feFlood flood-opacity="0" result="BackgroundImageFix"/><feBlend in="SourceGraphic" in2="BackgroundImageFix" result="shape"/><feGaussianBlur result="effect1_foregroundBlur_107_782" stdDeviation="3"/></filter><filter id="e" width="54.75" height="50.25" x="4.625" y="11.813" color-interpolation-filters="sRGB" filterUnits="userSpaceOnUse"><feFlood flood-opacity="0" result="BackgroundImageFix"/><feBlend in="SourceGraphic" in2="BackgroundImageFix" result="shape"/><feGaussianBlur result="effect1_foregroundBlur_107_782" stdDeviation="1.5"/></filter></defs></svg>