<svg xmlns="http://www.w3.org/2000/svg" width="64" height="64" fill="none"><g clip-path="url(#a)"><g clip-path="url(#b)"><g filter="url(#c)" opacity=".25"><rect width="15" height="15" x="11.125" y="45.875" fill="url(#d)" rx="3.75"/></g><g filter="url(#e)" opacity=".25"><rect width="15" height="15" x="37.875" y="45.875" fill="url(#f)" rx="3.75"/></g><g fill="#000" fill-opacity=".5" filter="url(#g)"><path d="M49.333 43.917c1.473 0 2.667.97 2.667 2.166v6.5c0 1.197-1.194 2.167-2.667 2.167h-8c-1.472 0-2.666-.97-2.666-2.167v-6.5c0-1.196 1.194-2.166 2.666-2.166zM22.667 22.25c1.472 0 2.666.97 2.666 2.167v6.5c0 1.196-1.194 2.166-2.666 2.166h-8c-1.473 0-2.667-.97-2.667-2.166v-6.5c0-1.197 1.194-2.167 2.667-2.167zM51.219 33.718c.5-.406.781-.958.781-1.532v-7.77c0-1.196-1.194-2.166-2.667-2.166h-8c-1.472 0-2.666.97-2.666 2.167v6.5c0 1.196-1.194 2.166-2.667 2.166h-9.562c-.707 0-1.386.229-1.886.635l-11.771 9.564c-.5.406-.781.958-.781 1.532v7.77c0 1.196 1.194 2.166 2.667 2.166h8c1.472 0 2.666-.97 2.666-2.167v-6.5c0-1.196 1.194-2.166 2.667-2.166h9.562c.707 0 1.386-.229 1.886-.635z"/></g><g fill="#000" fill-opacity=".15" filter="url(#h)"><path d="M49.333 42.042c1.473 0 2.667 1.138 2.667 2.541v7.625c0 1.404-1.194 2.542-2.667 2.542h-8c-1.472 0-2.666-1.138-2.666-2.542v-7.625c0-1.403 1.194-2.541 2.666-2.541zM22.667 16.625c1.472 0 2.666 1.138 2.666 2.542v7.625c0 1.403-1.194 2.541-2.666 2.541h-8c-1.473 0-2.667-1.138-2.667-2.541v-7.625c0-1.404 1.194-2.542 2.667-2.542zM51.219 30.078c.5-.477.781-1.123.781-1.797v-9.114c0-1.404-1.194-2.542-2.667-2.542h-8c-1.472 0-2.666 1.138-2.666 2.542v7.625c0 1.403-1.194 2.541-2.667 2.541h-9.562c-.707 0-1.386.268-1.886.745l-11.771 11.22A2.48 2.48 0 0 0 12 43.093v9.114c0 1.404 1.194 2.542 2.667 2.542h8c1.472 0 2.666-1.138 2.666-2.542v-7.625c0-1.403 1.194-2.541 2.667-2.541h9.562c.707 0 1.386-.268 1.886-.745z"/></g><path fill="url(#i)" d="M49.333 40.141c1.473 0 2.667 1.148 2.667 2.564v7.692c0 1.416-1.194 2.565-2.667 2.565h-8c-1.472 0-2.666-1.149-2.666-2.565v-7.692c0-1.416 1.194-2.564 2.666-2.564z"/><path fill="url(#j)" d="M22.667 14.5c1.472 0 2.666 1.148 2.666 2.564v7.692c0 1.416-1.194 2.564-2.666 2.564h-8c-1.473 0-2.667-1.148-2.667-2.564v-7.692c0-1.416 1.194-2.564 2.667-2.564z"/><path fill="url(#k)" d="M51.219 28.072c.5-.481.781-1.133.781-1.814v-9.194c0-1.416-1.194-2.564-2.667-2.564h-8c-1.472 0-2.666 1.148-2.666 2.564v7.692c0 1.416-1.194 2.564-2.667 2.564h-9.562c-.707 0-1.386.27-1.886.752L12.781 39.39c-.5.48-.781 1.133-.781 1.813v9.194c0 1.416 1.194 2.565 2.667 2.565h8c1.472 0 2.666-1.149 2.666-2.565v-7.692c0-1.416 1.194-2.564 2.667-2.564h9.562c.707 0 1.386-.27 1.886-.751z"/><path fill="url(#l)" stroke="url(#m)" stroke-width=".5" d="M51.75 39.705v7.692c0 1.27-1.073 2.315-2.417 2.315h-8c-1.344 0-2.416-1.046-2.416-2.315v-7.692c0-1.269 1.072-2.314 2.416-2.314h8c1.344 0 2.417 1.045 2.417 2.314Zm-26.667-25.64v7.691c0 1.27-1.072 2.314-2.416 2.314h-8c-1.344 0-2.417-1.045-2.417-2.314v-7.692c0-1.269 1.073-2.314 2.417-2.314h8c1.344 0 2.416 1.045 2.416 2.314Zm26.667 0v9.193c0 .61-.252 1.198-.704 1.633L39.274 36.21a2.47 2.47 0 0 1-1.712.681H28c-1.602 0-2.917 1.25-2.917 2.814v7.692c0 1.27-1.072 2.315-2.416 2.315h-8c-1.344 0-2.417-1.046-2.417-2.315v-9.194c0-.61.252-1.198.704-1.633l11.772-11.318a2.47 2.47 0 0 1 1.712-.681H36c1.602 0 2.917-1.251 2.917-2.815v-7.692c0-1.269 1.072-2.314 2.416-2.314h8c1.344 0 2.417 1.045 2.417 2.314Z"/><g opacity=".2"><mask id="n" width="40" height="39" x="12" y="11" maskUnits="userSpaceOnUse" style="mask-type:alpha"><path fill="#000" d="M49.333 37.141c1.473 0 2.667 1.148 2.667 2.564v7.692c0 1.416-1.194 2.565-2.667 2.565h-8c-1.472 0-2.666-1.149-2.666-2.565v-7.692c0-1.416 1.194-2.564 2.666-2.564zM22.667 11.5c1.472 0 2.666 1.148 2.666 2.564v7.692c0 1.416-1.194 2.564-2.666 2.564h-8c-1.473 0-2.667-1.148-2.667-2.564v-7.692c0-1.416 1.194-2.564 2.667-2.564zM51.219 25.072c.5-.481.781-1.133.781-1.814v-9.194c0-1.416-1.194-2.564-2.667-2.564h-8c-1.472 0-2.666 1.148-2.666 2.564v7.692c0 1.416-1.194 2.564-2.667 2.564h-9.562c-.707 0-1.386.27-1.886.752L12.781 36.39c-.5.48-.781 1.133-.781 1.813v9.194c0 1.416 1.194 2.565 2.667 2.565h8c1.472 0 2.666-1.149 2.666-2.565v-7.692c0-1.416 1.194-2.564 2.667-2.564h9.562c.707 0 1.386-.27 1.886-.751z"/></mask><g stroke="#fff" mask="url(#n)"><path stroke-width=".5" d="m14.368 11.346-40.454 39.066M18.822 11.346l-40.454 39.066"/><path stroke-width=".249" d="m23.276 11.346-40.454 39.066M27.73 11.346l-40.454 39.066M32.184 11.346-8.27 50.412M36.638 11.346-3.816 50.412M41.092 11.346.638 50.412M45.546 11.346 5.092 50.412M50 11.346 9.546 50.412M54.454 11.346 14 50.412M58.908 11.346 18.454 50.412M63.362 11.346 22.908 50.412M67.816 11.346 27.362 50.412M72.27 11.346 31.816 50.412M76.724 11.346 36.27 50.412M81.178 11.346 40.724 50.412M85.632 11.346 45.178 50.412M90.086 11.346 49.632 50.412"/></g></g></g></g><defs><radialGradient id="d" cx="0" cy="0" r="1" gradientTransform="rotate(90 -17.375 36)scale(7.5)" gradientUnits="userSpaceOnUse"><stop/><stop offset="1" stop-opacity="0"/></radialGradient><radialGradient id="f" cx="0" cy="0" r="1" gradientTransform="rotate(90 -4 49.375)scale(7.5)" gradientUnits="userSpaceOnUse"><stop/><stop offset="1" stop-opacity="0"/></radialGradient><radialGradient id="l" cx="0" cy="0" r="1" gradientTransform="matrix(36.15387 42.30771 -39.49364 33.74912 15.846 11.5)" gradientUnits="userSpaceOnUse"><stop stop-color="#B8CBE5"/><stop offset="1" stop-color="#2B2E35"/></radialGradient><radialGradient id="m" cx="0" cy="0" r="1" gradientTransform="matrix(17.6923 30 -142.07715 83.78907 12 7.654)" gradientUnits="userSpaceOnUse"><stop stop-color="#fff"/><stop offset="1" stop-color="#80818B" stop-opacity=".2"/></radialGradient><filter id="c" width="29" height="29" x="4.125" y="38.875" color-interpolation-filters="sRGB" filterUnits="userSpaceOnUse"><feFlood flood-opacity="0" result="BackgroundImageFix"/><feBlend in="SourceGraphic" in2="BackgroundImageFix" result="shape"/><feGaussianBlur result="effect1_foregroundBlur_429_16313" stdDeviation="3.5"/></filter><filter id="e" width="29" height="29" x="30.875" y="38.875" color-interpolation-filters="sRGB" filterUnits="userSpaceOnUse"><feFlood flood-opacity="0" result="BackgroundImageFix"/><feBlend in="SourceGraphic" in2="BackgroundImageFix" result="shape"/><feGaussianBlur result="effect1_foregroundBlur_429_16313" stdDeviation="3.5"/></filter><filter id="g" width="57.5" height="50" x="3.25" y="13.5" color-interpolation-filters="sRGB" filterUnits="userSpaceOnUse"><feFlood flood-opacity="0" result="BackgroundImageFix"/><feBlend in="SourceGraphic" in2="BackgroundImageFix" result="shape"/><feGaussianBlur result="effect1_foregroundBlur_429_16313" stdDeviation="4.375"/></filter><filter id="h" width="45" height="43.125" x="9.5" y="14.125" color-interpolation-filters="sRGB" filterUnits="userSpaceOnUse"><feFlood flood-opacity="0" result="BackgroundImageFix"/><feBlend in="SourceGraphic" in2="BackgroundImageFix" result="shape"/><feGaussianBlur result="effect1_foregroundBlur_429_16313" stdDeviation="1.25"/></filter><linearGradient id="i" x1="12" x2="53.538" y1="30.169" y2="29.885" gradientUnits="userSpaceOnUse"><stop stop-color="#47515D"/><stop offset=".065" stop-color="#1F2227"/><stop offset=".31" stop-color="#47515D"/><stop offset=".475" stop-color="#1D1F25"/><stop offset=".725" stop-color="#313741"/><stop offset=".897" stop-color="#1F2227"/><stop offset="1" stop-color="#373D47"/></linearGradient><linearGradient id="j" x1="12" x2="53.538" y1="30.169" y2="29.885" gradientUnits="userSpaceOnUse"><stop stop-color="#47515D"/><stop offset=".065" stop-color="#1F2227"/><stop offset=".31" stop-color="#47515D"/><stop offset=".475" stop-color="#1D1F25"/><stop offset=".725" stop-color="#313741"/><stop offset=".897" stop-color="#1F2227"/><stop offset="1" stop-color="#373D47"/></linearGradient><linearGradient id="k" x1="12" x2="53.538" y1="30.169" y2="29.885" gradientUnits="userSpaceOnUse"><stop stop-color="#47515D"/><stop offset=".065" stop-color="#1F2227"/><stop offset=".31" stop-color="#47515D"/><stop offset=".475" stop-color="#1D1F25"/><stop offset=".725" stop-color="#313741"/><stop offset=".897" stop-color="#1F2227"/><stop offset="1" stop-color="#373D47"/></linearGradient><clipPath id="a"><path fill="#fff" d="M0 0h64v64H0z"/></clipPath><clipPath id="b"><path fill="#fff" d="M0 0h64v64H0z"/></clipPath></defs></svg>