<svg xmlns="http://www.w3.org/2000/svg" width="16" height="16" fill="none"><g fill="#000" fill-opacity=".25" filter="url(#a)"><path d="M13.2 11.667c.442 0 .8.298.8.666v2c0 .368-.358.667-.8.667h-2.4c-.442 0-.8-.299-.8-.667v-2c0-.368.358-.666.8-.666zM5.2 5c.442 0 .8.298.8.667v2c0 .368-.358.666-.8.666H2.8c-.442 0-.8-.298-.8-.666v-2C2 5.298 2.358 5 2.8 5zM13.766 8.529A.62.62 0 0 0 14 8.057v-2.39c0-.369-.358-.667-.8-.667h-2.4c-.442 0-.8.298-.8.667v2c0 .368-.358.666-.8.666H6.331a.9.9 0 0 0-.565.196L2.234 11.47a.62.62 0 0 0-.234.472v2.39c0 .368.358.667.8.667h2.4c.442 0 .8-.299.8-.667v-2c0-.368.358-.666.8-.666h2.869c.212 0 .415-.07.565-.196z"/></g><path fill="url(#b)" d="M13.2 10.667c.442 0 .8.343.8.766v2.3c0 .424-.358.767-.8.767h-2.4c-.442 0-.8-.343-.8-.767v-2.3c0-.423.358-.766.8-.766z"/><path fill="#000" fill-opacity=".28" d="M13.2 10.667c.442 0 .8.343.8.766v2.3c0 .424-.358.767-.8.767h-2.4c-.442 0-.8-.343-.8-.767v-2.3c0-.423.358-.766.8-.766z"/><path fill="url(#c)" d="M5.2 3c.442 0 .8.343.8.767v2.3c0 .423-.358.766-.8.766H2.8c-.442 0-.8-.343-.8-.766v-2.3C2 3.343 2.358 3 2.8 3z"/><path fill="#000" fill-opacity=".28" d="M5.2 3c.442 0 .8.343.8.767v2.3c0 .423-.358.766-.8.766H2.8c-.442 0-.8-.343-.8-.766v-2.3C2 3.343 2.358 3 2.8 3z"/><path fill="url(#d)" d="M13.766 7.058A.75.75 0 0 0 14 6.516v-2.75c0-.423-.358-.766-.8-.766h-2.4c-.442 0-.8.343-.8.767v2.3c0 .423-.358.766-.8.766H6.331a.82.82 0 0 0-.565.225l-3.532 3.384a.75.75 0 0 0-.234.542v2.75c0 .423.358.766.8.766h2.4c.442 0 .8-.343.8-.767v-2.3c0-.423.358-.766.8-.766h2.869c.212 0 .415-.081.565-.225z"/><path fill="#000" fill-opacity=".28" d="M13.766 7.058A.75.75 0 0 0 14 6.516v-2.75c0-.423-.358-.766-.8-.766h-2.4c-.442 0-.8.343-.8.767v2.3c0 .423-.358.766-.8.766H6.331a.82.82 0 0 0-.565.225l-3.532 3.384a.75.75 0 0 0-.234.542v2.75c0 .423.358.766.8.766h2.4c.442 0 .8-.343.8-.767v-2.3c0-.423.358-.766.8-.766h2.869c.212 0 .415-.081.565-.225z"/><path fill="url(#e)" d="M13.2 9.667c.442 0 .8.343.8.766v2.3c0 .424-.358.767-.8.767h-2.4c-.442 0-.8-.343-.8-.767v-2.3c0-.423.358-.766.8-.766z"/><path fill="url(#f)" d="M5.2 2c.442 0 .8.343.8.767v2.3c0 .423-.358.766-.8.766H2.8c-.442 0-.8-.343-.8-.766v-2.3C2 2.343 2.358 2 2.8 2z"/><path fill="url(#g)" d="M13.766 6.058A.75.75 0 0 0 14 5.516v-2.75c0-.423-.358-.766-.8-.766h-2.4c-.442 0-.8.343-.8.767v2.3c0 .423-.358.766-.8.766H6.331a.82.82 0 0 0-.565.225L2.234 9.442A.75.75 0 0 0 2 9.984v2.75c0 .423.358.766.8.766h2.4c.442 0 .8-.343.8-.767v-2.3c0-.423.358-.766.8-.766h2.869c.212 0 .415-.081.565-.225z"/><defs><radialGradient id="e" cx="0" cy="0" r="1" gradientTransform="rotate(49.39 -.598 4.43)scale(16.6632 15.5629)" gradientUnits="userSpaceOnUse"><stop stop-color="#B8CBE5"/><stop offset="1" stop-color="#2B2E35"/></radialGradient><radialGradient id="f" cx="0" cy="0" r="1" gradientTransform="rotate(49.39 -.598 4.43)scale(16.6632 15.5629)" gradientUnits="userSpaceOnUse"><stop stop-color="#B8CBE5"/><stop offset="1" stop-color="#2B2E35"/></radialGradient><radialGradient id="g" cx="0" cy="0" r="1" gradientTransform="rotate(49.39 -.598 4.43)scale(16.6632 15.5629)" gradientUnits="userSpaceOnUse"><stop stop-color="#B8CBE5"/><stop offset="1" stop-color="#2B2E35"/></radialGradient><linearGradient id="b" x1="2" x2="14.461" y1="7.685" y2="7.599" gradientUnits="userSpaceOnUse"><stop stop-color="#637081"/><stop offset=".065" stop-color="#2B2E35"/><stop offset=".31" stop-color="#637081"/><stop offset=".475" stop-color="#282B32"/><stop offset=".725" stop-color="#444D59"/><stop offset=".897" stop-color="#2B2E35"/><stop offset="1" stop-color="#637081"/></linearGradient><linearGradient id="c" x1="2" x2="14.461" y1="7.685" y2="7.599" gradientUnits="userSpaceOnUse"><stop stop-color="#637081"/><stop offset=".065" stop-color="#2B2E35"/><stop offset=".31" stop-color="#637081"/><stop offset=".475" stop-color="#282B32"/><stop offset=".725" stop-color="#444D59"/><stop offset=".897" stop-color="#2B2E35"/><stop offset="1" stop-color="#637081"/></linearGradient><linearGradient id="d" x1="2" x2="14.461" y1="7.685" y2="7.599" gradientUnits="userSpaceOnUse"><stop stop-color="#637081"/><stop offset=".065" stop-color="#2B2E35"/><stop offset=".31" stop-color="#637081"/><stop offset=".475" stop-color="#282B32"/><stop offset=".725" stop-color="#444D59"/><stop offset=".897" stop-color="#2B2E35"/><stop offset="1" stop-color="#637081"/></linearGradient><filter id="a" width="14" height="12" x="1" y="4" color-interpolation-filters="sRGB" filterUnits="userSpaceOnUse"><feFlood flood-opacity="0" result="BackgroundImageFix"/><feBlend in="SourceGraphic" in2="BackgroundImageFix" result="shape"/><feGaussianBlur result="effect1_foregroundBlur_107_698" stdDeviation=".5"/></filter></defs></svg>