<svg xmlns="http://www.w3.org/2000/svg" width="32" height="32" fill="none"><g clip-path="url(#a)"><g clip-path="url(#b)"><g fill="#000" fill-opacity=".35" filter="url(#c)"><path d="M26.563 23.438c.897 0 1.625.587 1.625 1.312v3.938c0 .724-.728 1.312-1.625 1.312h-4.875c-.898 0-1.625-.588-1.625-1.312V24.75c0-.725.727-1.312 1.625-1.312zM10.313 10.313c.897 0 1.624.587 1.624 1.312v3.938c0 .724-.727 1.312-1.624 1.312H5.437c-.897 0-1.625-.588-1.625-1.312v-3.938c0-.725.728-1.312 1.626-1.312zM27.712 17.26c.304-.247.476-.58.476-.929v-4.706c0-.725-.728-1.312-1.625-1.312h-4.875c-.898 0-1.625.587-1.625 1.312v3.938c0 .724-.728 1.312-1.625 1.312H12.61a1.84 1.84 0 0 0-1.15.384l-7.173 5.794c-.304.246-.476.58-.476.928v4.706c0 .725.728 1.313 1.626 1.313h4.875c.897 0 1.624-.588 1.624-1.312V24.75c0-.725.728-1.312 1.626-1.312h5.826a1.84 1.84 0 0 0 1.15-.385z"/></g><g fill="#000" fill-opacity=".15" filter="url(#d)"><path d="M26.563 22.156c.897 0 1.625.66 1.625 1.475v4.425c0 .815-.728 1.475-1.625 1.475h-4.875c-.898 0-1.625-.66-1.625-1.475v-4.425c0-.814.727-1.475 1.625-1.475zM10.313 7.406c.897 0 1.624.66 1.624 1.475v4.425c0 .815-.727 1.475-1.624 1.475H5.437c-.897 0-1.625-.66-1.625-1.475V8.881c0-.814.728-1.475 1.626-1.475zM27.712 15.213a1.4 1.4 0 0 0 .476-1.043V8.881c0-.814-.728-1.475-1.625-1.475h-4.875c-.898 0-1.625.66-1.625 1.475v4.425c0 .815-.728 1.475-1.625 1.475H12.61c-.431 0-.845.156-1.15.432l-7.173 6.511a1.4 1.4 0 0 0-.476 1.043v5.29c0 .814.728 1.474 1.626 1.474h4.875c.897 0 1.624-.66 1.624-1.475v-4.425c0-.814.728-1.475 1.626-1.475h5.826c.431 0 .845-.155 1.15-.432z"/></g><path fill="url(#e)" d="M26.563 21.25c.897 0 1.625.7 1.625 1.563V27.5c0 .863-.728 1.563-1.625 1.563h-4.875c-.898 0-1.625-.7-1.625-1.563v-4.687c0-.863.727-1.563 1.625-1.563z"/><path fill="#000" fill-opacity=".28" d="M26.563 21.25c.897 0 1.625.7 1.625 1.563V27.5c0 .863-.728 1.563-1.625 1.563h-4.875c-.898 0-1.625-.7-1.625-1.563v-4.687c0-.863.727-1.563 1.625-1.563z"/><path fill="url(#f)" d="M10.313 5.625c.897 0 1.624.7 1.624 1.563v4.687c0 .863-.727 1.563-1.624 1.563H5.437c-.897 0-1.625-.7-1.625-1.563V7.188c0-.863.728-1.563 1.626-1.563z"/><path fill="#000" fill-opacity=".28" d="M10.313 5.625c.897 0 1.624.7 1.624 1.563v4.687c0 .863-.727 1.563-1.624 1.563H5.437c-.897 0-1.625-.7-1.625-1.563V7.188c0-.863.728-1.563 1.626-1.563z"/><path fill="url(#g)" d="M27.712 13.895c.304-.293.476-.69.476-1.105V7.188c0-.863-.728-1.563-1.625-1.563h-4.875c-.898 0-1.625.7-1.625 1.563v4.687c0 .863-.728 1.563-1.625 1.563H12.61c-.431 0-.845.164-1.15.457l-7.173 6.897c-.304.293-.476.69-.476 1.105V27.5c0 .863.728 1.563 1.626 1.563h4.875c.897 0 1.624-.7 1.624-1.563v-4.687c0-.863.728-1.563 1.626-1.563h5.826c.431 0 .845-.165 1.15-.458z"/><path fill="#000" fill-opacity=".28" d="M27.712 13.895c.304-.293.476-.69.476-1.105V7.188c0-.863-.728-1.563-1.625-1.563h-4.875c-.898 0-1.625.7-1.625 1.563v4.687c0 .863-.728 1.563-1.625 1.563H12.61c-.431 0-.845.164-1.15.457l-7.173 6.897c-.304.293-.476.69-.476 1.105V27.5c0 .863.728 1.563 1.626 1.563h4.875c.897 0 1.624-.7 1.624-1.563v-4.687c0-.863.728-1.563 1.626-1.563h5.826c.431 0 .845-.165 1.15-.458z"/><path fill="url(#h)" stroke="url(#i)" stroke-width=".188" d="M28.094 20.938v4.687c0 .808-.682 1.469-1.532 1.469h-4.875c-.849 0-1.53-.661-1.53-1.469v-4.687c0-.808.681-1.47 1.53-1.47h4.875c.85 0 1.532.662 1.532 1.47ZM11.844 5.313V10c0 .808-.682 1.469-1.531 1.469H5.437c-.849 0-1.53-.661-1.53-1.469V5.313c0-.808.681-1.47 1.53-1.47h4.876c.849 0 1.53.662 1.53 1.47Zm16.25 0v5.602c0 .389-.16.762-.447 1.038l-7.173 6.897a1.57 1.57 0 0 1-1.085.431h-5.826c-.946 0-1.72.738-1.72 1.657v4.687c0 .808-.681 1.469-1.53 1.469H5.437c-.849 0-1.53-.661-1.53-1.469v-5.603c0-.388.16-.761.446-1.037l7.174-6.897a1.57 1.57 0 0 1 1.084-.432h5.826c.946 0 1.72-.738 1.72-1.656V5.313c0-.808.681-1.47 1.53-1.47h4.875c.85 0 1.532.662 1.532 1.47Z"/><g opacity=".2"><mask id="j" width="26" height="25" x="3" y="3" maskUnits="userSpaceOnUse" style="mask-type:alpha"><path fill="#D9D9D9" d="M26.563 19.375c.897 0 1.625.7 1.625 1.563v4.687c0 .863-.728 1.563-1.625 1.563h-4.875c-.898 0-1.625-.7-1.625-1.563v-4.687c0-.863.727-1.563 1.625-1.563zM10.313 3.75c.897 0 1.624.7 1.624 1.563V10c0 .863-.727 1.563-1.624 1.563H5.437c-.897 0-1.625-.7-1.625-1.563V5.313c0-.863.728-1.563 1.626-1.563zM27.712 12.02c.304-.293.476-.69.476-1.105V5.313c0-.863-.728-1.563-1.625-1.563h-4.875c-.898 0-1.625.7-1.625 1.563V10c0 .863-.728 1.563-1.625 1.563H12.61c-.431 0-.845.164-1.15.457l-7.173 6.897c-.304.293-.476.69-.476 1.105v5.603c0 .863.728 1.563 1.626 1.563h4.875c.897 0 1.624-.7 1.624-1.563v-4.687c0-.863.728-1.563 1.626-1.563h5.826c.431 0 .845-.165 1.15-.458z"/></mask><g stroke="#fff" stroke-width=".3" mask="url(#j)"><path d="m7 3-24 24M10 3l-24 24M13 3l-24 24M16 3-8 27M19 3-5 27M22 3-2 27M25 3 1 27M28 3 4 27M31 3 7 27M34 3 10 27M37 3 13 27M40 3 16 27M43 3 19 27M46 3 22 27M49 3 25 27M52 3 28 27"/></g></g></g></g><defs><linearGradient id="e" x1="3.813" x2="29.125" y1="15.174" y2="15" gradientUnits="userSpaceOnUse"><stop stop-color="#637081"/><stop offset=".065" stop-color="#2B2E35"/><stop offset=".31" stop-color="#637081"/><stop offset=".475" stop-color="#282B32"/><stop offset=".725" stop-color="#444D59"/><stop offset=".897" stop-color="#2B2E35"/><stop offset="1" stop-color="#637081"/></linearGradient><linearGradient id="f" x1="3.813" x2="29.125" y1="15.174" y2="15" gradientUnits="userSpaceOnUse"><stop stop-color="#637081"/><stop offset=".065" stop-color="#2B2E35"/><stop offset=".31" stop-color="#637081"/><stop offset=".475" stop-color="#282B32"/><stop offset=".725" stop-color="#444D59"/><stop offset=".897" stop-color="#2B2E35"/><stop offset="1" stop-color="#637081"/></linearGradient><linearGradient id="g" x1="3.813" x2="29.125" y1="15.174" y2="15" gradientUnits="userSpaceOnUse"><stop stop-color="#637081"/><stop offset=".065" stop-color="#2B2E35"/><stop offset=".31" stop-color="#637081"/><stop offset=".475" stop-color="#282B32"/><stop offset=".725" stop-color="#444D59"/><stop offset=".897" stop-color="#2B2E35"/><stop offset="1" stop-color="#637081"/></linearGradient><radialGradient id="h" cx="0" cy="0" r="1" gradientTransform="rotate(49.485 -.99 8.554)scale(33.9124 31.6567)" gradientUnits="userSpaceOnUse"><stop stop-color="#B8CBE5"/><stop offset="1" stop-color="#2B2E35"/></radialGradient><radialGradient id="i" cx="0" cy="0" r="1" gradientTransform="matrix(10.78127 18.28129 -86.57848 51.05909 3.813 1.406)" gradientUnits="userSpaceOnUse"><stop stop-color="#fff"/><stop offset="1" stop-color="#80818B" stop-opacity=".2"/></radialGradient><clipPath id="a"><path fill="#fff" d="M0 0h32v32H0z"/></clipPath><clipPath id="b"><path fill="#fff" d="M0 0h32v32H0z"/></clipPath><filter id="c" width="30.375" height="25.688" x=".813" y="7.313" color-interpolation-filters="sRGB" filterUnits="userSpaceOnUse"><feFlood flood-opacity="0" result="BackgroundImageFix"/><feBlend in="SourceGraphic" in2="BackgroundImageFix" result="shape"/><feGaussianBlur result="effect1_foregroundBlur_107_699" stdDeviation="1.5"/></filter><filter id="d" width="27.375" height="25.125" x="2.313" y="5.906" color-interpolation-filters="sRGB" filterUnits="userSpaceOnUse"><feFlood flood-opacity="0" result="BackgroundImageFix"/><feBlend in="SourceGraphic" in2="BackgroundImageFix" result="shape"/><feGaussianBlur result="effect1_foregroundBlur_107_699" stdDeviation=".75"/></filter></defs></svg>