<svg xmlns="http://www.w3.org/2000/svg" width="32" height="32" fill="none"><g clip-path="url(#a)"><g clip-path="url(#b)"><g filter="url(#c)" opacity=".25"><rect width="7.5" height="7.5" x="5.563" y="22.938" fill="url(#d)" rx="1.875"/></g><g filter="url(#e)" opacity=".25"><rect width="7.5" height="7.5" x="18.938" y="22.938" fill="url(#f)" rx="1.875"/></g><g fill="#000" fill-opacity=".5" filter="url(#g)"><path d="M24.667 21.958c.736 0 1.333.485 1.333 1.084v3.25c0 .598-.597 1.083-1.333 1.083h-4c-.737 0-1.334-.485-1.334-1.083v-3.25c0-.599.597-1.084 1.334-1.084zM11.333 11.125c.737 0 1.334.485 1.334 1.083v3.25c0 .599-.597 1.084-1.334 1.084h-4c-.736 0-1.333-.485-1.333-1.084v-3.25c0-.598.597-1.083 1.333-1.083zM25.61 16.859c.25-.203.39-.479.39-.766v-3.885c0-.598-.597-1.083-1.333-1.083h-4c-.737 0-1.334.485-1.334 1.083v3.25c0 .599-.597 1.084-1.333 1.084h-4.781c-.354 0-.693.114-.943.317l-5.885 4.782c-.25.203-.391.479-.391.766v3.885c0 .598.597 1.083 1.333 1.083h4c.737 0 1.334-.485 1.334-1.083v-3.25c0-.599.597-1.084 1.333-1.084h4.781c.354 0 .693-.114.943-.317z"/></g><g fill="#000" fill-opacity=".15" filter="url(#h)"><path d="M24.667 21.02c.736 0 1.333.57 1.333 1.272v3.812c0 .702-.597 1.271-1.333 1.271h-4c-.737 0-1.334-.569-1.334-1.27v-3.813c0-.702.597-1.271 1.334-1.271zM11.333 8.313c.737 0 1.334.568 1.334 1.27v3.813c0 .702-.597 1.27-1.334 1.27h-4c-.736 0-1.333-.568-1.333-1.27V9.583c0-.702.597-1.27 1.333-1.27zM25.61 15.039c.25-.238.39-.562.39-.899V9.583c0-.702-.597-1.27-1.333-1.27h-4c-.737 0-1.334.568-1.334 1.27v3.813c0 .702-.597 1.27-1.333 1.27h-4.781c-.354 0-.693.135-.943.373l-5.885 5.61c-.25.238-.391.561-.391.898v4.557c0 .702.597 1.271 1.333 1.271h4c.737 0 1.334-.569 1.334-1.27v-3.813c0-.702.597-1.271 1.333-1.271h4.781c.354 0 .693-.134.943-.372z"/></g><path fill="url(#i)" d="M24.667 20.07c.736 0 1.333.575 1.333 1.283v3.846c0 .708-.597 1.282-1.333 1.282h-4c-.737 0-1.334-.574-1.334-1.282v-3.846c0-.709.597-1.283 1.334-1.283z"/><path fill="url(#j)" d="M11.333 7.25c.737 0 1.334.574 1.334 1.282v3.846c0 .708-.597 1.282-1.334 1.282h-4C6.597 13.66 6 13.086 6 12.378V8.532c0-.708.597-1.282 1.333-1.282z"/><path fill="url(#k)" d="M25.61 14.036c.25-.24.39-.567.39-.907V8.532c0-.708-.597-1.282-1.333-1.282h-4c-.737 0-1.334.574-1.334 1.282v3.846c0 .708-.597 1.282-1.333 1.282h-4.781a1.36 1.36 0 0 0-.943.376l-5.885 5.659c-.25.24-.391.567-.391.907v4.597c0 .708.597 1.282 1.333 1.282h4c.737 0 1.334-.574 1.334-1.282v-3.846c0-.709.597-1.283 1.333-1.283h4.781c.354 0 .693-.135.943-.375z"/><path fill="url(#l)" stroke="url(#m)" stroke-width=".25" d="M25.875 19.853v3.846c0 .634-.536 1.157-1.208 1.157h-4c-.672 0-1.209-.523-1.209-1.157v-3.846c0-.635.537-1.158 1.209-1.158h4c.672 0 1.208.523 1.208 1.158ZM12.542 7.032v3.846c0 .635-.537 1.157-1.209 1.157h-4c-.672 0-1.208-.522-1.208-1.157V7.032c0-.634.536-1.157 1.208-1.157h4c.672 0 1.209.523 1.209 1.157Zm13.333 0v4.597c0 .306-.126.6-.352.817l-5.886 5.659c-.226.218-.534.34-.856.34H14c-.8 0-1.458.626-1.458 1.408v3.846c0 .634-.537 1.157-1.209 1.157h-4c-.672 0-1.208-.523-1.208-1.157v-4.597c0-.306.126-.6.352-.817l5.886-5.66c.226-.217.534-.34.856-.34H18c.8 0 1.458-.625 1.458-1.407V7.032c0-.634.537-1.157 1.209-1.157h4c.672 0 1.208.523 1.208 1.157Z"/></g></g><defs><radialGradient id="d" cx="0" cy="0" r="1" gradientTransform="rotate(90 -8.688 18)scale(3.75)" gradientUnits="userSpaceOnUse"><stop/><stop offset="1" stop-opacity="0"/></radialGradient><radialGradient id="f" cx="0" cy="0" r="1" gradientTransform="rotate(90 -2 24.688)scale(3.75)" gradientUnits="userSpaceOnUse"><stop/><stop offset="1" stop-opacity="0"/></radialGradient><radialGradient id="l" cx="0" cy="0" r="1" gradientTransform="matrix(18.0769 21.15382 -19.74686 16.8746 7.923 5.75)" gradientUnits="userSpaceOnUse"><stop stop-color="#B8CBE5"/><stop offset="1" stop-color="#2B2E35"/></radialGradient><radialGradient id="m" cx="0" cy="0" r="1" gradientTransform="matrix(8.84615 15 -71.03875 41.89463 6 3.827)" gradientUnits="userSpaceOnUse"><stop stop-color="#fff"/><stop offset="1" stop-color="#80818B" stop-opacity=".2"/></radialGradient><filter id="c" width="14.5" height="14.5" x="2.063" y="19.438" color-interpolation-filters="sRGB" filterUnits="userSpaceOnUse"><feFlood flood-opacity="0" result="BackgroundImageFix"/><feBlend in="SourceGraphic" in2="BackgroundImageFix" result="shape"/><feGaussianBlur result="effect1_foregroundBlur_429_16193" stdDeviation="1.75"/></filter><filter id="e" width="14.5" height="14.5" x="15.438" y="19.438" color-interpolation-filters="sRGB" filterUnits="userSpaceOnUse"><feFlood flood-opacity="0" result="BackgroundImageFix"/><feBlend in="SourceGraphic" in2="BackgroundImageFix" result="shape"/><feGaussianBlur result="effect1_foregroundBlur_429_16193" stdDeviation="1.75"/></filter><filter id="g" width="28.75" height="25" x="1.625" y="6.75" color-interpolation-filters="sRGB" filterUnits="userSpaceOnUse"><feFlood flood-opacity="0" result="BackgroundImageFix"/><feBlend in="SourceGraphic" in2="BackgroundImageFix" result="shape"/><feGaussianBlur result="effect1_foregroundBlur_429_16193" stdDeviation="2.188"/></filter><filter id="h" width="22.5" height="21.563" x="4.75" y="7.063" color-interpolation-filters="sRGB" filterUnits="userSpaceOnUse"><feFlood flood-opacity="0" result="BackgroundImageFix"/><feBlend in="SourceGraphic" in2="BackgroundImageFix" result="shape"/><feGaussianBlur result="effect1_foregroundBlur_429_16193" stdDeviation=".625"/></filter><linearGradient id="i" x1="6" x2="26.769" y1="15.085" y2="14.942" gradientUnits="userSpaceOnUse"><stop stop-color="#47515D"/><stop offset=".065" stop-color="#1F2227"/><stop offset=".31" stop-color="#47515D"/><stop offset=".475" stop-color="#1D1F25"/><stop offset=".725" stop-color="#313741"/><stop offset=".897" stop-color="#1F2227"/><stop offset="1" stop-color="#373D47"/></linearGradient><linearGradient id="j" x1="6" x2="26.769" y1="15.085" y2="14.942" gradientUnits="userSpaceOnUse"><stop stop-color="#47515D"/><stop offset=".065" stop-color="#1F2227"/><stop offset=".31" stop-color="#47515D"/><stop offset=".475" stop-color="#1D1F25"/><stop offset=".725" stop-color="#313741"/><stop offset=".897" stop-color="#1F2227"/><stop offset="1" stop-color="#373D47"/></linearGradient><linearGradient id="k" x1="6" x2="26.769" y1="15.085" y2="14.942" gradientUnits="userSpaceOnUse"><stop stop-color="#47515D"/><stop offset=".065" stop-color="#1F2227"/><stop offset=".31" stop-color="#47515D"/><stop offset=".475" stop-color="#1D1F25"/><stop offset=".725" stop-color="#313741"/><stop offset=".897" stop-color="#1F2227"/><stop offset="1" stop-color="#373D47"/></linearGradient><clipPath id="a"><path fill="#fff" d="M0 0h32v32H0z"/></clipPath><clipPath id="b"><path fill="#fff" d="M0 0h32v32H0z"/></clipPath></defs></svg>